<svg width="17" height="20" viewBox="0 0 17 20" fill="none" xmlns="http://www.w3.org/2000/svg">
<path d="M4.57692 9.33333H3.92308V10.6667H4.57692V9.33333ZM12.4231 10.6667H13.0769V9.33333H12.4231V10.6667ZM9.80769 13.3333H9.15385V14.6667H9.80769V13.3333ZM12.4231 14.6667H13.0769V13.3333H12.4231V14.6667ZM4.57692 5.33333H3.92308V6.66667H4.57692V5.33333ZM7.19231 6.66667H7.84615V5.33333H7.19231V6.66667ZM12.4231 0.666667L12.886 0.194667L12.6938 0H12.4231V0.666667ZM16.3462 4.66667H17V4.39067L16.8091 4.19467L16.3462 4.66667ZM4.57692 10.6667H12.4231V9.33333H4.57692V10.6667ZM9.80769 14.6667H12.4231V13.3333H9.80769V14.6667ZM4.57692 6.66667H7.19231V5.33333H4.57692V6.66667ZM15.0385 18.6667H1.96154V20H15.0385V18.6667ZM1.30769 18V2H0V18H1.30769ZM1.96154 1.33333H12.4231V0H1.96154V1.33333ZM15.6923 4.66667V18H17V4.66667H15.6923ZM11.9602 1.13867L15.8832 5.13867L16.8091 4.19467L12.886 0.194667L11.9602 1.13867ZM1.96154 18.6667C1.78813 18.6667 1.62182 18.5964 1.4992 18.4714C1.37658 18.3464 1.30769 18.1768 1.30769 18H0C0 18.5304 0.206662 19.0391 0.574521 19.4142C0.942381 19.7893 1.44131 20 1.96154 20V18.6667ZM15.0385 20C15.5587 20 16.0576 19.7893 16.4255 19.4142C16.7933 19.0391 17 18.5304 17 18H15.6923C15.6923 18.1768 15.6234 18.3464 15.5008 18.4714C15.3782 18.5964 15.2119 18.6667 15.0385 18.6667V20ZM1.30769 2C1.30769 1.82319 1.37658 1.65362 1.4992 1.5286C1.62182 1.40357 1.78813 1.33333 1.96154 1.33333V0C1.44131 0 0.942381 0.210714 0.574521 0.585786C0.206662 0.960859 0 1.46957 0 2H1.30769Z" fill="white"/>
</svg>
