<svg width="18" height="18" viewBox="0 0 18 18" fill="none" xmlns="http://www.w3.org/2000/svg">
<path d="M8.99998 6.28438C7.42303 6.28438 6.13611 7.57129 6.13611 9.14825C6.13611 10.7252 7.42303 12.0121 8.99998 12.0121C10.5769 12.0121 11.8638 10.7252 11.8638 9.14825C11.8638 7.57129 10.5769 6.28438 8.99998 6.28438ZM17.5894 9.14825C17.5894 7.96231 17.6002 6.78711 17.5336 5.60332C17.467 4.22832 17.1533 3.00801 16.1478 2.00254C15.1402 0.994926 13.9221 0.683403 12.5471 0.616801C11.3611 0.5502 10.1859 0.560942 9.00213 0.560942C7.81619 0.560942 6.641 0.5502 5.45721 0.616801C4.08221 0.683403 2.86189 0.997075 1.85643 2.00254C0.848808 3.01016 0.537285 4.22832 0.470683 5.60332C0.404081 6.78926 0.414824 7.96446 0.414824 9.14825C0.414824 10.332 0.404081 11.5094 0.470683 12.6932C0.537285 14.0682 0.850957 15.2885 1.85643 16.294C2.86404 17.3016 4.08221 17.6131 5.45721 17.6797C6.64315 17.7463 7.81834 17.7356 9.00213 17.7356C10.1881 17.7356 11.3633 17.7463 12.5471 17.6797C13.9221 17.6131 15.1424 17.2994 16.1478 16.294C17.1555 15.2863 17.467 14.0682 17.5336 12.6932C17.6023 11.5094 17.5894 10.3342 17.5894 9.14825ZM8.99998 13.5547C6.5615 13.5547 4.59353 11.5867 4.59353 9.14825C4.59353 6.70977 6.5615 4.7418 8.99998 4.7418C11.4385 4.7418 13.4064 6.70977 13.4064 9.14825C13.4064 11.5867 11.4385 13.5547 8.99998 13.5547ZM13.5869 5.59043C13.0176 5.59043 12.5578 5.13067 12.5578 4.56133C12.5578 3.992 13.0176 3.53223 13.5869 3.53223C14.1562 3.53223 14.616 3.992 14.616 4.56133C14.6162 4.69652 14.5897 4.83042 14.538 4.95535C14.4864 5.08029 14.4106 5.1938 14.315 5.2894C14.2194 5.38499 14.1059 5.46079 13.9809 5.51244C13.856 5.5641 13.7221 5.5906 13.5869 5.59043Z" fill="#132897"/>
</svg>
