<svg width="29" height="29" viewBox="0 0 29 29" fill="none" xmlns="http://www.w3.org/2000/svg">
<path d="M26.1887 22.4186C25.4119 21.7261 24.7318 20.9322 24.1668 20.0583C23.5499 18.8521 23.1801 17.5347 23.0793 16.1836V12.2042C23.0846 10.082 22.3148 8.03097 20.9145 6.43637C19.5142 4.84177 17.5798 3.81339 15.4748 3.54444V2.50528C15.4748 2.22006 15.3615 1.94652 15.1598 1.74484C14.9581 1.54316 14.6846 1.42986 14.3994 1.42986C14.1142 1.42986 13.8406 1.54316 13.639 1.74484C13.4373 1.94652 13.324 2.22006 13.324 2.50528V3.56056C11.2378 3.84889 9.32679 4.88348 7.9449 6.47272C6.56302 8.06197 5.8039 10.0982 5.80814 12.2042V16.1836C5.70725 17.5347 5.33752 18.8521 4.72064 20.0583C4.16552 20.9302 3.49635 21.724 2.73092 22.4186C2.64499 22.4941 2.57613 22.587 2.5289 22.6912C2.48168 22.7954 2.45718 22.9084 2.45703 23.0228V24.1183C2.45703 24.332 2.5419 24.5369 2.69297 24.6879C2.84404 24.839 3.04894 24.9239 3.26259 24.9239H25.657C25.8707 24.9239 26.0756 24.839 26.2266 24.6879C26.3777 24.5369 26.4626 24.332 26.4626 24.1183V23.0228C26.4624 22.9084 26.4379 22.7954 26.3907 22.6912C26.3435 22.587 26.2746 22.4941 26.1887 22.4186ZM4.13259 23.3128C4.88208 22.5887 5.54199 21.7774 6.09814 20.8961C6.87519 19.4392 7.32857 17.8318 7.42731 16.1836V12.2042C7.39536 11.2601 7.55372 10.3192 7.89296 9.43762C8.23219 8.55601 8.74537 7.75169 9.40192 7.07254C10.0585 6.39339 10.845 5.8533 11.7146 5.48444C12.5842 5.11558 13.5192 4.92549 14.4638 4.92549C15.4085 4.92549 16.3434 5.11558 17.2131 5.48444C18.0827 5.8533 18.8692 6.39339 19.5257 7.07254C20.1823 7.75169 20.6955 8.55601 21.0347 9.43762C21.374 10.3192 21.5323 11.2601 21.5004 12.2042V16.1836C21.5991 17.8318 22.0525 19.4392 22.8295 20.8961C23.3857 21.7774 24.0456 22.5887 24.7951 23.3128H4.13259Z" fill="#132EBA"/>
<path d="M14.4997 27.6144C15.0072 27.6028 15.4941 27.412 15.8745 27.0759C16.2548 26.7397 16.504 26.2799 16.578 25.7778H12.3408C12.4169 26.2936 12.6778 26.7642 13.0749 27.102C13.472 27.4399 13.9784 27.622 14.4997 27.6144Z" fill="#132EBA"/>
</svg>
