<svg width="20" height="20" viewBox="0 0 20 20" fill="none" xmlns="http://www.w3.org/2000/svg">
<path d="M13.75 13.75V17.5H3.75V2.5H10V1.25H3.75C3.41848 1.25 3.10054 1.3817 2.86612 1.61612C2.6317 1.85054 2.5 2.16848 2.5 2.5V17.5C2.5 17.8315 2.6317 18.1495 2.86612 18.3839C3.10054 18.6183 3.41848 18.75 3.75 18.75H13.75C14.0815 18.75 14.3995 18.6183 14.6339 18.3839C14.8683 18.1495 15 17.8315 15 17.5V13.75H13.75Z" fill="white"/>
<path d="M18.4625 3.60001L16.4 1.53751C16.2131 1.35428 15.9618 1.25165 15.7 1.25165C15.4382 1.25165 15.1869 1.35428 15 1.53751L6.25 10.2875V13.75H9.70625L18.4563 5.00001C18.6395 4.81308 18.7421 4.56176 18.7421 4.30001C18.7421 4.03825 18.6395 3.78693 18.4563 3.60001H18.4625ZM9.1875 12.5H7.5V10.8125L13.4 4.90625L15.0938 6.60001L9.1875 12.5ZM15.975 5.71875L14.2812 4.025L15.7 2.60626L17.3938 4.30001L15.975 5.71875Z" fill="white"/>
</svg>
