<svg width="58" height="72" viewBox="0 0 58 72" fill="none" xmlns="http://www.w3.org/2000/svg">
<path d="M56.7266 9.27344L30.1797 0.226562C29.8594 0.117187 29.4297 0.0625 29 0.0625C28.5703 0.0625 28.1406 0.117187 27.8203 0.226562L1.27344 9.27344C0.625001 9.49219 0.09375 10.2422 0.09375 10.9297V48.6172C0.09375 49.3047 0.539063 50.2109 1.07813 50.6406L28.0078 71.625C28.2813 71.8359 28.6328 71.9453 28.9922 71.9453C29.3516 71.9453 29.7109 71.8359 29.9766 71.625L56.9063 50.6406C57.4453 50.2188 57.8906 49.3125 57.8906 48.6172V10.9297C57.9063 10.2422 57.375 9.5 56.7266 9.27344ZM52.2813 47.1172L29 65.2578L5.71875 47.1172V13.7109L29 5.77344L52.2813 13.7109V47.1172ZM20.4766 37.3125L14.4219 43.3672C14.3056 43.4847 14.2403 43.6433 14.2403 43.8086C14.2403 43.9739 14.3056 44.1325 14.4219 44.25L17.0781 46.9062C17.3203 47.1484 17.7188 47.1484 17.9609 46.9062L24.0156 40.8516C28.3672 43.5938 34.1797 43.0703 37.9688 39.2812C42.3672 34.8828 42.3672 27.7578 37.9688 23.3594C33.5703 18.9609 26.4453 18.9609 22.0469 23.3594C18.2578 27.1484 17.7344 32.9688 20.4766 37.3125ZM25.5859 26.8984C28.0313 24.4531 31.9922 24.4531 34.4297 26.8984C36.875 29.3438 36.875 33.3047 34.4297 35.7422C31.9844 38.1875 28.0234 38.1875 25.5859 35.7422C23.1484 33.2969 23.1406 29.3438 25.5859 26.8984Z" fill="#132EBA"/>
</svg>
