<svg width="20" height="20" viewBox="0 0 20 20" fill="none" xmlns="http://www.w3.org/2000/svg">
<path d="M19.8139 0.184893C19.902 0.273195 19.9623 0.385453 19.9872 0.507723C20.0121 0.629993 20.0005 0.756886 19.9539 0.87264L12.5438 19.3998C12.4785 19.5629 12.3694 19.7049 12.2286 19.8101C12.0878 19.9153 11.9208 19.9795 11.7458 19.9959C11.5708 20.0122 11.3948 19.9799 11.2369 19.9026C11.0791 19.8253 10.9457 19.706 10.8513 19.5577L6.80434 13.196L0.443482 9.14852C0.294894 9.05425 0.175233 8.92076 0.0977035 8.76278C0.020174 8.6048 -0.0122101 8.42847 0.00412456 8.25325C0.0204592 8.07802 0.0848777 7.91072 0.190272 7.76979C0.295666 7.62887 0.437938 7.5198 0.601389 7.45463L19.1262 0.0460703C19.2419 -0.000527954 19.3688 -0.0120919 19.4911 0.0128149C19.6133 0.0377217 19.7256 0.0980017 19.8139 0.186167V0.184893ZM8.07524 12.8241L11.5912 18.349L17.6184 3.27975L8.07524 12.8241ZM16.7181 2.37931L1.65071 8.40728L7.17619 11.9224L16.7194 2.37931H16.7181Z" fill="white"/>
</svg>
