<svg width="66" height="44" viewBox="0 0 66 44" fill="none" xmlns="http://www.w3.org/2000/svg">
<path d="M1.12795 23.292C6.21595 9.812 17.4599 0 32.9999 0C36.9599 0 40.6399 0.64 44.0159 1.812C43.7557 2.07244 43.5201 2.35631 43.3119 2.66L41.5439 5.22C39.414 4.58486 37.2184 4.19566 34.9999 4.06V14C34.9999 14.5304 34.7892 15.0391 34.4142 15.4142C34.0391 15.7893 33.5304 16 32.9999 16C32.4695 16 31.9608 15.7893 31.5857 15.4142C31.2107 15.0391 30.9999 14.5304 30.9999 14V4.064C22.0439 4.624 14.7919 8.984 9.78395 15.66C9.93173 15.723 10.0714 15.8036 10.1999 15.9L16.1999 20.4C16.6243 20.7183 16.9048 21.1921 16.9798 21.7172C17.0549 22.2423 16.9182 22.7757 16.5999 23.2C16.2817 23.6243 15.8079 23.9049 15.2828 23.9799C14.7577 24.0549 14.2243 23.9183 13.7999 23.6L7.79995 19.1C7.73271 19.0507 7.66858 18.9972 7.60795 18.94C6.53601 20.7826 5.62079 22.7121 4.87195 24.708C4.68417 25.2045 4.30686 25.606 3.82302 25.8243C3.33918 26.0426 2.78843 26.0598 2.29195 25.872C1.79546 25.6842 1.3939 25.3069 1.17561 24.8231C0.957319 24.3392 0.940174 23.7885 1.12795 23.292ZM53.9079 8.056C53.9679 7.896 54.0159 7.728 54.0599 7.564C58.8599 11.62 62.5239 17.064 64.8719 23.292C64.9649 23.5378 65.0086 23.7996 65.0004 24.0623C64.9922 24.325 64.9324 24.5835 64.8243 24.8231C64.7162 25.0626 64.562 25.2786 64.3704 25.4586C64.1789 25.6385 63.9538 25.779 63.7079 25.872C63.4621 25.965 63.2004 26.0086 62.9377 26.0004C62.675 25.9923 62.4164 25.9324 62.1769 25.8243C61.9373 25.7162 61.7214 25.562 61.5414 25.3705C61.3614 25.1789 61.2209 24.9538 61.1279 24.708C60.3794 22.7107 59.4641 20.7799 58.3919 18.936C58.3315 18.9947 58.2674 19.0495 58.1999 19.1L52.1999 23.6C51.9898 23.7576 51.7507 23.8722 51.4963 23.9374C51.2419 24.0026 50.9771 24.017 50.7171 23.9799C50.4571 23.9428 50.207 23.8548 49.981 23.7209C49.755 23.5871 49.5575 23.4101 49.3999 23.2C49.2424 22.9899 49.1277 22.7508 49.0625 22.4964C48.9973 22.2419 48.9829 21.9772 49.02 21.7172C49.0572 21.4571 49.1452 21.207 49.279 20.981C49.4128 20.755 49.5898 20.5576 49.7999 20.4L55.7999 15.9C55.9298 15.8034 56.0708 15.7228 56.2199 15.66C55.1456 14.2235 53.9491 12.8825 52.6439 11.652L53.9079 8.056ZM49.0919 4.28C49.5226 4.4996 49.8591 4.86774 50.0393 5.31631C50.2195 5.76489 50.2311 6.26353 50.0719 6.72L39.5199 36.848C39.0251 38.2606 38.2948 39.5792 37.3599 40.748C32.9999 46.204 24.4119 41.44 26.5999 34.88C26.9926 33.7015 27.5487 32.584 28.2519 31.56L46.5359 4.936C46.8104 4.5357 47.221 4.24884 47.6912 4.12888C48.1615 4.00892 48.6593 4.06406 49.0919 4.284V4.28ZM41.3359 19.572L31.5479 33.824C31.0559 34.536 30.6679 35.32 30.3919 36.144C29.5959 38.532 32.7039 40.164 34.2359 38.252C34.8919 37.432 35.3999 36.512 35.7479 35.524L41.3359 19.572Z" fill="#132EBA"/>
</svg>
