<svg width="20" height="20" viewBox="0 0 20 20" fill="none" xmlns="http://www.w3.org/2000/svg">
<path d="M5 8.75H11.875V10H5V8.75ZM5 11.875H13.125V13.125H5V11.875Z" fill="white"/>
<path d="M17.75 3.75V3.5H17.5H2.5H2.25V3.75V5V5.25H2.5H17.5H17.75V5V3.75ZM2.25 16.25V16.5H2.5H17.5H17.75V16.25V6.25V6H17.5H2.5H2.25V6.25V16.25ZM2.5 2.75H17.5C17.7652 2.75 18.0196 2.85536 18.2071 3.04289C18.3946 3.23043 18.5 3.48478 18.5 3.75V16.25C18.5 16.5152 18.3946 16.7696 18.2071 16.9571C18.0196 17.1446 17.7652 17.25 17.5 17.25H2.5C2.23478 17.25 1.98043 17.1446 1.79289 16.9571C1.60536 16.7696 1.5 16.5152 1.5 16.25V3.75C1.5 3.48478 1.60536 3.23043 1.79289 3.04289C1.98043 2.85536 2.23478 2.75 2.5 2.75Z" fill="white" stroke="white" stroke-width="0.5"/>
</svg>
