<svg width="54" height="68" viewBox="0 0 54 68" fill="none" xmlns="http://www.w3.org/2000/svg">
<path d="M53.6666 48.1534C53.6666 47.1686 53.4726 46.1935 53.0957 45.2838C52.7187 44.374 52.1662 43.5475 51.4697 42.8513C50.7733 42.1551 49.9464 41.603 49.0365 41.2264C48.1266 40.8499 47.1514 40.6563 46.1666 40.6567H7.83331C6.84828 40.6563 5.87281 40.85 4.96267 41.2268C4.05253 41.6035 3.22556 42.1559 2.52904 42.8525C1.83251 43.549 1.28008 44.376 0.903325 45.2861C0.52657 46.1962 0.332876 47.1717 0.333314 48.1567V50.0801C0.333314 53.0567 1.39665 55.9334 3.32665 58.1967C8.54998 64.3101 16.5033 67.3301 26.9866 67.3301C37.4733 67.3301 45.43 64.3134 50.66 58.2001C52.5998 55.9354 53.6662 53.0519 53.6666 50.0701V48.1534ZM7.82998 45.6567H46.1666C47.5433 45.6567 48.66 46.7734 48.66 48.1567V50.0734C48.6605 51.8616 48.0221 53.5911 46.86 54.9501C42.67 59.8434 36.1133 62.3267 26.9833 62.3267C17.8566 62.3267 11.3033 59.8434 7.12665 54.9501C5.96718 53.5923 5.3301 51.8655 5.32998 50.0801V48.1534C5.32998 46.7767 6.44665 45.6567 7.82665 45.6567H7.82998Z" fill="#132EBA"/>
<path d="M43.6567 17.3401C43.6571 13.83 42.5493 10.4093 40.4912 7.56584C38.4331 4.72238 35.5297 2.6013 32.1952 1.50505C28.8606 0.408794 25.265 0.393338 21.9212 1.46088C18.5773 2.52843 15.6558 4.62447 13.5733 7.45014C13.3318 7.37364 13.08 7.3343 12.8267 7.33347H4.5C3.83696 7.33347 3.20108 7.59687 2.73224 8.06571C2.26339 8.53455 2 9.17043 2 9.83347V28.1601C1.99913 29.3645 2.23558 30.5572 2.69586 31.6701C3.15613 32.783 3.83121 33.7943 4.6825 34.6463C5.53379 35.4982 6.54461 36.174 7.6572 36.6351C8.76978 37.0962 9.96232 37.3335 11.1667 37.3335H12V37.3201H12.0333C12.5981 37.321 13.1538 37.1781 13.648 36.9049C14.1423 36.6316 14.5588 36.2371 14.8584 35.7583C15.158 35.2796 15.3308 34.7325 15.3606 34.1685C15.3903 33.6046 15.2759 33.0423 15.0283 32.5348C14.7807 32.0272 14.4079 31.591 13.9451 31.2674C13.4823 30.9437 12.9447 30.7432 12.383 30.6847C11.8213 30.6262 11.2539 30.7117 10.7344 30.9331C10.2149 31.1545 9.76022 31.5045 9.41334 31.9501C8.69148 31.6153 8.08061 31.0808 7.65294 30.4097C7.22527 29.7387 6.99869 28.9592 7 28.1635V27.3335H9.49334C10.76 27.3335 11.9367 26.9268 12.8933 26.2401C14.8213 29.2967 17.6905 31.6438 21.0685 32.9277C24.4465 34.2117 28.1504 34.3629 31.6218 33.3586C35.0933 32.3543 38.1442 30.2489 40.3149 27.3597C42.4857 24.4704 43.6585 20.9539 43.6567 17.3401ZM10.3233 16.9868C10.3185 17.2223 10.3185 17.4579 10.3233 17.6935V21.4968C10.3233 21.7178 10.2355 21.9298 10.0793 22.0861C9.92298 22.2423 9.71102 22.3301 9.49 22.3301H7V12.3368H10.3267V16.9868H10.3233ZM15.3233 17.6368V17.0435C15.4014 13.976 16.6847 11.0627 18.8955 8.93472C21.1062 6.80674 24.0663 5.6354 27.1346 5.67442C30.2028 5.71343 33.1322 6.95967 35.2881 9.14318C37.444 11.3267 38.6529 14.2716 38.6529 17.3401C38.6529 20.4086 37.444 23.3536 35.2881 25.5371C33.1322 27.7206 30.2028 28.9668 27.1346 29.0059C24.0663 29.0449 21.1062 27.8735 18.8955 25.7456C16.6847 23.6176 15.4014 20.7043 15.3233 17.6368Z" fill="#132EBA"/>
</svg>
