<svg width="20" height="16" viewBox="0 0 20 16" fill="none" xmlns="http://www.w3.org/2000/svg">
<path d="M19.7026 2.26259C19.0067 2.57092 18.2592 2.77925 17.4734 2.87342C18.2842 2.38825 18.8908 1.62464 19.1801 0.725087C18.4183 1.17758 17.5845 1.49608 16.7151 1.66675C16.1304 1.04247 15.3559 0.628692 14.512 0.489649C13.668 0.350605 12.8018 0.49408 12.0477 0.897798C11.2937 1.30152 10.694 1.94289 10.3418 2.72234C9.98966 3.50179 9.90466 4.37571 10.1001 5.20842C8.55646 5.13092 7.04641 4.72971 5.6679 4.03084C4.2894 3.33197 3.07325 2.35105 2.09838 1.15175C1.76505 1.72675 1.57338 2.39342 1.57338 3.10342C1.57301 3.74258 1.73041 4.37196 2.03162 4.9357C2.33282 5.49944 2.76852 5.98012 3.30005 6.33509C2.68361 6.31547 2.08078 6.14891 1.54172 5.84925V5.89925C1.54166 6.7957 1.85174 7.66457 2.41937 8.35842C2.98699 9.05227 3.77719 9.52836 4.65588 9.70592C4.08404 9.86068 3.4845 9.88348 2.90255 9.77259C3.15047 10.5439 3.63338 11.2184 4.28369 11.7017C4.934 12.1849 5.71915 12.4527 6.52922 12.4676C5.15408 13.5471 3.45579 14.1327 1.70755 14.1301C1.39787 14.1302 1.08845 14.1121 0.780884 14.0759C2.55545 15.2169 4.62117 15.8224 6.73088 15.8201C13.8726 15.8201 17.7767 9.90509 17.7767 4.77509C17.7767 4.60842 17.7726 4.44009 17.7651 4.27342C18.5245 3.72423 19.18 3.04417 19.7009 2.26509L19.7026 2.26259Z" fill="#132897"/>
</svg>
