<svg width="624" height="475" viewBox="0 0 624 475" fill="none" xmlns="http://www.w3.org/2000/svg">
<path d="M91.2119 426.821C212.824 490.407 410.001 490.407 531.613 426.821C653.225 363.234 653.225 260.284 531.613 196.757C410.001 133.23 212.824 133.171 91.2119 196.757C-30.4005 260.343 -30.4005 363.279 91.2119 426.821Z" fill="#F5F5F5"/>
<path d="M158.392 134.575L187.7 117.659L158.392 100.742L128.817 117.659L158.392 134.575Z" stroke="#EBEBEB" stroke-width="1.08419" stroke-linecap="round" stroke-linejoin="round"/>
<path d="M135.633 117.673L158.406 51.8542V130.819L135.633 117.673Z" fill="#E0E0E0"/>
<path d="M158.406 130.819L181.164 117.673L158.406 51.8542V130.819Z" fill="#E6E6E6"/>
<path d="M122.576 155.219L151.885 138.302L122.576 121.385L93.001 138.302L122.576 155.219Z" stroke="#EBEBEB" stroke-width="1.08419" stroke-linecap="round" stroke-linejoin="round"/>
<path d="M99.8182 138.317L122.576 40.5714V151.463L99.8182 138.317Z" fill="#E0E0E0"/>
<path d="M122.576 151.463L145.334 138.317L122.576 40.5714V151.463Z" fill="#E6E6E6"/>
<path d="M86.7607 175.862L116.07 158.945L86.7607 142.028L57.171 158.945L86.7607 175.862Z" stroke="#EBEBEB" stroke-width="1.08419" stroke-linecap="round" stroke-linejoin="round"/>
<path d="M64.0028 158.96L86.7608 100.742V172.106L64.0028 158.96Z" fill="#E0E0E0"/>
<path d="M86.7608 172.106L109.519 158.96L86.7608 100.742V172.106Z" fill="#E6E6E6"/>
<path d="M50.9455 196.505L80.2543 179.589L50.9455 162.672L21.3557 179.589L50.9455 196.505Z" stroke="#EBEBEB" stroke-width="1.08419" stroke-linecap="round" stroke-linejoin="round"/>
<path d="M28.1725 179.603L50.9453 80.7638V192.749L28.1725 179.603Z" fill="#E0E0E0"/>
<path d="M50.9457 192.749L73.7036 179.603L50.9457 80.7638V192.749Z" fill="#E6E6E6"/>
<path d="M441.557 112.084L597.861 202.317" stroke="#EBEBEB" stroke-width="1.08419" stroke-miterlimit="10" stroke-linecap="round"/>
<path d="M597.861 192.749C597.672 181.422 596.877 170.113 595.48 158.871C594.001 146.657 591.044 126.043 579.288 119.241C567.532 112.439 563.096 124.742 561.395 130.79C559.177 138.642 547.657 133.673 546.06 120.734C544.463 107.795 543.413 66.5677 529.602 58.6269C515.79 50.686 511.339 69.8358 509.772 75.1889C506.681 85.7028 497.617 82.8044 494.659 75.8395C491.702 68.8746 483.628 67.174 480.581 76.9781C477.535 86.7822 475.657 98.0355 465.794 92.2536C457.128 87.1815 461.106 77.9393 452.663 73.5474C445.979 70.0872 442.873 86.59 442.873 103.285L597.861 192.749Z" fill="#E0E0E0"/>
<path d="M586.504 106.701C586.504 108.505 584.877 109.023 582.896 107.884L571.066 101.023C570.093 100.471 569.262 99.7027 568.636 98.7766C568.01 97.8505 567.607 96.7922 567.458 95.6843C567.458 93.895 569.084 93.3627 571.066 94.5161L582.896 101.378C583.868 101.925 584.7 102.691 585.326 103.615C585.952 104.539 586.355 105.595 586.504 106.701Z" fill="#E6E6E6"/>
<path d="M537.942 48.6897C537.942 50.4938 536.33 51.0113 534.334 49.8727L522.504 43.0113C521.53 42.4628 520.696 41.6948 520.07 40.7682C519.443 39.8416 519.042 38.7819 518.896 37.673C518.896 35.8837 520.508 35.3514 522.504 36.5048L534.334 43.3662C535.308 43.9124 536.141 44.6778 536.767 45.6018C537.393 46.5259 537.796 47.5831 537.942 48.6897Z" fill="#E6E6E6"/>
<path d="M499.48 59.3662C499.48 61.1703 497.868 61.6878 495.886 60.5492L484.056 53.6878C483.082 53.1393 482.248 52.3713 481.622 51.4447C480.996 50.5181 480.594 49.4584 480.448 48.3495C480.448 46.5602 482.06 46.0279 484.056 47.1813L495.886 54.0427C496.856 54.5915 497.686 55.3579 498.309 56.2817C498.933 57.2054 499.334 58.2613 499.48 59.3662Z" fill="#E6E6E6"/>
<path d="M463.014 62.9005C463.014 64.7046 461.402 65.2221 459.406 64.0687L447.576 57.2221C446.605 56.67 445.776 55.9008 445.153 54.9747C444.529 54.0485 444.129 52.9906 443.982 51.8838C443.982 50.0945 445.594 49.5622 447.576 50.7156L459.406 57.5622C460.379 58.1125 461.211 58.881 461.837 59.8072C462.463 60.7335 462.866 61.7923 463.014 62.9005Z" fill="#E6E6E6"/>
<path d="M435.051 98.7601V1" stroke="#EBEBEB" stroke-width="1.08419" stroke-miterlimit="10" stroke-linecap="round"/>
<path d="M56.1803 314.998C56.1803 314.998 58.6054 293.29 51.8771 272.617C45.5481 253.068 32.8308 242.702 25.1265 239.596C10.5609 233.785 9.25957 249.829 20.1727 260.935C28.1728 269.097 47.4261 285.925 50.7385 314.465L56.1803 314.998Z" fill="#132EBA"/>
<path opacity="0.7" d="M56.1803 314.998C56.1803 314.998 58.6054 293.29 51.8771 272.617C45.5481 253.068 32.8308 242.702 25.1265 239.596C10.5609 233.785 9.25957 249.829 20.1727 260.935C28.1728 269.097 47.4261 285.925 50.7385 314.465L56.1803 314.998Z" fill="white"/>
<path d="M21.1929 244.077C29.9914 249.992 53.6366 267.071 54.4943 314.835" stroke="#FAFAFA" stroke-width="1.08419" stroke-miterlimit="10" stroke-linecap="round"/>
<path d="M49.9843 329.83C45.4593 307.944 36.2171 300.003 19.6995 291.545C12.631 287.937 4.35005 283.914 1.36297 279.315C-1.6241 274.717 -0.115776 268.535 10.058 268.668C28.6459 268.92 49.8216 291.323 52.646 315.87L49.9843 329.83Z" fill="#132EBA"/>
<path opacity="0.8" d="M49.9843 329.83C45.4593 307.944 36.2171 300.003 19.6995 291.545C12.631 287.937 4.35005 283.914 1.36297 279.315C-1.6241 274.717 -0.115776 268.535 10.058 268.668C28.6459 268.92 49.8216 291.323 52.646 315.87L49.9843 329.83Z" fill="white"/>
<path d="M8.49078 273.43C22.5241 275.338 44.6906 291.692 51.7294 320.75" stroke="#FAFAFA" stroke-width="1.08419" stroke-miterlimit="10" stroke-linecap="round"/>
<path d="M568.419 304.75C574.112 293.807 578.534 263.108 571.214 248.912C563.894 234.716 553.01 235.855 551.325 240.454C549.846 244.698 553.498 252.284 558.23 261.319C562.962 270.354 566.955 289.711 562.474 298.731L568.419 304.75Z" fill="#132EBA"/>
<path opacity="0.7" d="M568.419 304.75C574.112 293.807 578.534 263.108 571.214 248.912C563.894 234.716 553.01 235.855 551.325 240.454C549.846 244.698 553.498 252.284 558.23 261.319C562.962 270.354 566.955 289.711 562.474 298.731L568.419 304.75Z" fill="white"/>
<path d="M558.511 241.193C563.169 244.935 576.508 267.811 567.177 299.205" stroke="#FAFAFA" stroke-width="1.08419" stroke-miterlimit="10" stroke-linecap="round"/>
<path d="M566.615 316.343C563.184 309.482 555.672 298.125 560.789 290.332C565.905 282.539 571.258 289.43 575.369 284.343C579.48 279.256 574.778 271.034 578.327 266.598C585.188 257.874 590.157 268.003 595.539 266.672C599.428 265.711 603.761 257.09 614.955 258.14C626.149 259.19 625.587 268.062 620.604 272.232C615.621 276.402 609.706 280.558 613.55 286.813C616.952 292.358 618.711 302.606 607.073 306.584C595.953 310.384 601.454 315.205 599.68 320.646C597.905 326.088 587.406 331.249 576.242 327.049L566.615 316.343Z" fill="#132EBA"/>
<path opacity="0.8" d="M566.615 316.343C563.184 309.482 555.672 298.125 560.789 290.332C565.905 282.539 571.258 289.43 575.369 284.343C579.48 279.256 574.778 271.034 578.327 266.598C585.188 257.874 590.157 268.003 595.539 266.672C599.428 265.711 603.761 257.09 614.955 258.14C626.149 259.19 625.587 268.062 620.604 272.232C615.621 276.402 609.706 280.558 613.55 286.813C616.952 292.358 618.711 302.606 607.073 306.584C595.953 310.384 601.454 315.205 599.68 320.646C597.905 326.088 587.406 331.249 576.242 327.049L566.615 316.343Z" fill="white"/>
<path d="M616.493 263.167C604.367 266.421 575.325 290.022 572.87 319.641" stroke="#FAFAFA" stroke-width="1.08419" stroke-miterlimit="10" stroke-linecap="round"/>
<path d="M607.754 294.266C601.765 292.905 586.549 292.713 580.855 295.478" stroke="#FAFAFA" stroke-width="1.08419" stroke-miterlimit="10" stroke-linecap="round"/>
<path d="M584.242 269.201C584.242 269.201 588.678 277.792 588.042 285.023" stroke="#FAFAFA" stroke-width="1.08419" stroke-miterlimit="10" stroke-linecap="round"/>
<path d="M418.829 185.282C416.847 178.419 413.304 172.108 408.478 166.842C402.773 160.621 396.102 155.363 388.721 151.271C380.151 146.416 371.038 142.589 361.572 139.869C351.143 136.859 340.445 134.878 329.631 133.954C318.46 132.934 307.219 132.934 296.048 133.954C285.238 134.878 274.545 136.859 264.122 139.869C254.65 142.586 245.531 146.413 236.957 151.271C229.576 155.399 222.91 160.692 217.216 166.945C212.394 172.215 208.852 178.525 206.865 185.385C205.098 191.732 205.098 198.44 206.865 204.786C208.836 211.649 212.38 217.958 217.216 223.212C222.914 229.471 229.585 234.769 236.972 238.901C245.536 243.755 254.644 247.577 264.107 250.288C274.535 253.311 285.233 255.312 296.048 256.262C307.22 257.267 318.459 257.267 329.631 256.262C340.452 255.308 351.154 253.302 361.586 250.273C371.049 247.562 380.158 243.74 388.721 238.886C396.111 234.758 402.783 229.459 408.478 223.197C413.307 217.938 416.85 211.631 418.829 204.772C420.598 198.395 420.598 191.658 418.829 185.282Z" fill="#37474F"/>
<path d="M205.534 185.311H420.145V196.254L205.534 195.648V185.311Z" fill="#37474F"/>
<path d="M296.048 124.15L312.817 185.282L264.122 130.124C274.543 127.094 285.237 125.093 296.048 124.15Z" fill="#455A64"/>
<path d="M329.631 124.15L312.862 185.282L296.093 124.121C307.25 123.113 318.475 123.123 329.631 124.15Z" fill="#455A64"/>
<path d="M361.572 130.124L312.862 185.282L329.631 124.121C340.448 125.074 351.146 127.084 361.572 130.124Z" fill="#455A64"/>
<path d="M408.463 157.185C413.286 162.459 416.829 168.775 418.814 175.64L312.877 185.282L408.463 157.185Z" fill="#455A64"/>
<path d="M418.829 175.655C420.581 181.998 420.581 188.698 418.829 195.041L312.877 185.282L418.829 175.655Z" fill="#455A64"/>
<path d="M418.829 195.041C416.847 201.904 413.304 208.216 408.478 213.481L312.877 185.385L418.829 195.041Z" fill="#455A64"/>
<path d="M408.478 213.482C402.782 219.739 396.11 225.032 388.722 229.156L312.847 185.282L408.478 213.482Z" fill="#455A64"/>
<path d="M312.862 185.356L361.587 240.557C351.154 243.569 340.45 245.55 329.631 246.472L312.847 185.311L312.862 185.356Z" fill="#455A64"/>
<path d="M312.847 185.37L329.631 246.532C318.46 247.552 307.219 247.552 296.048 246.532L312.847 185.37Z" fill="#455A64"/>
<path d="M312.817 185.356L296.019 246.517C285.199 245.594 274.496 243.613 264.063 240.602L312.817 185.356Z" fill="#455A64"/>
<path d="M312.817 185.356L264.019 240.557C254.557 237.835 245.45 234.008 236.883 229.156L312.817 185.356Z" fill="#455A64"/>
<path d="M312.802 185.282L217.201 213.378C212.368 208.117 208.824 201.804 206.85 194.938L312.802 185.282Z" fill="#455A64"/>
<path d="M312.802 185.282L206.865 195.041C205.098 188.7 205.098 181.996 206.865 175.655L312.802 185.282Z" fill="#455A64"/>
<path d="M312.803 185.282L206.865 175.596C208.855 168.732 212.397 162.418 217.216 157.141L312.803 185.282Z" fill="#455A64"/>
<path d="M236.958 141.54L312.803 185.282L217.216 157.186C222.912 150.942 229.578 145.659 236.958 141.54Z" fill="#455A64"/>
<path d="M388.721 141.54L312.862 185.282L361.572 130.095C371.042 132.822 380.156 136.664 388.721 141.54Z" fill="#455A64"/>
<path d="M388.722 141.54C396.103 145.656 402.77 150.939 408.463 157.186L312.877 185.282L388.722 141.54Z" fill="#455A64"/>
<path d="M312.817 185.282L236.928 229.097C229.542 224.969 222.871 219.676 217.172 213.422L312.773 185.326L312.817 185.282Z" fill="#455A64"/>
<path d="M264.122 130.124L312.817 185.282L236.957 141.481C245.531 136.633 254.649 132.821 264.122 130.124Z" fill="#455A64"/>
<path d="M312.862 185.356L388.721 229.156C380.155 234.008 371.047 237.835 361.586 240.557L312.862 185.356Z" fill="#455A64"/>
<path d="M247.945 123.588L308.204 158.369L305.246 109.2C283.08 110.147 264.255 114.878 247.945 123.588Z" fill="#132EBA"/>
<path opacity="0.2" d="M247.945 123.588L308.204 158.369L305.246 109.2C283.08 110.147 264.255 114.878 247.945 123.588Z" fill="white"/>
<path d="M308.204 158.368V177.356L247.945 142.561V123.588L308.204 158.368Z" fill="#132EBA"/>
<path opacity="0.1" d="M308.204 158.368V177.356L247.945 142.561V123.588L308.204 158.368Z" fill="black"/>
<path d="M386.326 128.468L317.165 159.67V178.642L386.326 147.441V128.468Z" fill="#132EBA"/>
<path opacity="0.3" d="M386.326 128.468L317.165 159.67V178.642L386.326 147.441V128.468Z" fill="black"/>
<path d="M386.326 128.468C367.708 115.795 342.88 109.111 314.104 109.023L315.952 139.766L317.165 159.67L386.326 128.468Z" fill="#132EBA"/>
<path opacity="0.1" d="M386.326 128.468C367.708 115.795 342.88 109.111 314.104 109.023L315.952 139.766L317.165 159.67L386.326 128.468Z" fill="black"/>
<path d="M314.089 109.023V127.995L317.165 178.642V159.67L314.089 109.023Z" fill="#263238"/>
<path d="M331.228 196.21L366.585 230.221C368.566 229.467 370.4 228.742 372.5 227.737C396.855 216.764 409.587 200.321 409.572 183.729V164.949C406.895 157.807 399.531 157.821 391.827 151.537L319.62 184.069L318.895 184.394L331.228 196.21Z" fill="#132EBA"/>
<path opacity="0.6" d="M331.228 196.21L366.585 230.221C368.566 229.467 370.4 228.742 372.5 227.737C396.855 216.764 409.587 200.321 409.572 183.729V164.949C406.895 157.807 399.531 157.821 391.827 151.537L319.62 184.069L318.895 184.394L331.228 196.21Z" fill="white"/>
<path d="M331.228 177.237L366.585 211.249C368.566 210.494 370.4 209.77 372.5 208.75C413.269 190.339 421.431 156.624 391.856 132.505L319.649 165.038L318.924 165.363L331.228 177.237Z" fill="#132EBA"/>
<path opacity="0.8" d="M331.228 177.237L366.585 211.249C368.566 210.494 370.4 209.77 372.5 208.75C413.269 190.339 421.431 156.624 391.856 132.505L319.649 165.038L318.924 165.363L331.228 177.237Z" fill="white"/>
<path d="M366.525 230.191V211.204L318.851 165.407V184.38L366.525 230.191Z" fill="#132EBA"/>
<path opacity="0.6" d="M366.525 230.191V211.204L318.851 165.407V184.38L366.525 230.191Z" fill="white"/>
<path d="M241.675 146.184C231.516 152.587 220.233 156.624 216.122 164.402V183.389C216.122 193.282 220.721 203.308 230.259 212.476C243.567 225.238 264.64 234.258 289.675 237.851C312.844 241.271 336.481 239.55 358.91 232.809V213.836L327.782 202.894L309.505 185.282L241.675 146.184Z" fill="#132EBA"/>
<path opacity="0.6" d="M241.675 146.184C231.516 152.587 220.233 156.624 216.122 164.402V183.389C216.122 193.282 220.721 203.308 230.259 212.476C243.567 225.238 264.64 234.258 289.675 237.851C312.844 241.271 336.481 239.55 358.91 232.809V213.836L327.782 202.894L309.505 185.282L241.675 146.184Z" fill="black"/>
<path d="M241.675 127.211C212.484 145.577 207.782 171.899 230.259 193.489C243.567 206.265 264.64 215.271 289.675 218.879C312.844 222.291 336.48 220.57 358.91 213.836L327.782 183.921L309.505 166.369L241.675 127.211Z" fill="#132EBA"/>
<path opacity="0.3" d="M241.675 127.211C212.484 145.577 207.782 171.899 230.259 193.489C243.567 206.265 264.64 215.271 289.675 218.879C312.844 222.291 336.48 220.57 358.91 213.836L327.782 183.921L309.505 166.369L241.675 127.211Z" fill="black"/>
<path d="M580.382 334.118C578.4 327.255 574.857 320.944 570.031 315.678C564.339 309.422 557.673 304.129 550.29 300.003C541.719 295.148 532.607 291.322 523.14 288.602C512.711 285.592 502.013 283.611 491.199 282.687C480.028 281.667 468.787 281.667 457.616 282.687C446.807 283.612 436.114 285.593 425.69 288.602C416.223 291.322 407.11 295.148 398.54 300.003C391.152 304.127 384.48 309.421 378.784 315.678C373.962 320.947 370.42 327.257 368.433 334.118C366.666 340.464 366.666 347.173 368.433 353.519C370.404 360.382 373.949 366.691 378.784 371.944C384.482 378.203 391.154 383.501 398.54 387.634C407.107 392.482 416.215 396.304 425.675 399.02C436.11 402.023 446.813 404.004 457.631 404.935C468.803 405.941 480.042 405.941 491.214 404.935C502.032 404.005 512.735 402.024 523.169 399.02C532.635 396.311 541.744 392.483 550.304 387.619C557.698 383.496 564.375 378.203 570.075 371.944C574.9 366.683 578.443 360.377 580.426 353.519C582.172 347.168 582.157 340.461 580.382 334.118Z" fill="#37474F"/>
<path d="M367.087 334.103H581.698V345.046L367.087 344.439V334.103Z" fill="#37474F"/>
<path d="M457.601 272.942L474.385 334.103L425.675 278.916C436.097 275.888 446.79 273.887 457.601 272.942Z" fill="#455A64"/>
<path d="M491.184 272.942L474.415 334.103L457.631 272.942C468.792 271.923 480.023 271.923 491.184 272.942Z" fill="#455A64"/>
<path d="M523.125 278.916L474.415 334.103L491.184 272.942C502.001 273.885 512.699 275.886 523.125 278.916Z" fill="#455A64"/>
<path d="M570.016 305.992C574.843 311.264 578.385 317.58 580.367 324.447L474.43 334.133L570.016 305.992Z" fill="#455A64"/>
<path d="M580.382 324.447C582.142 330.789 582.142 337.491 580.382 343.833L474.445 334.133L580.382 324.447Z" fill="#455A64"/>
<path d="M580.382 343.833C578.396 350.694 574.854 357.005 570.031 362.273L474.43 334.177L580.382 343.833Z" fill="#455A64"/>
<path d="M570.046 362.273C564.337 368.523 557.662 373.816 550.275 377.948L474.4 334.133L570.046 362.273Z" fill="#455A64"/>
<path d="M474.415 334.147L523.14 389.349C512.705 392.353 502.003 394.334 491.184 395.264L474.4 334.103L474.415 334.147Z" fill="#455A64"/>
<path d="M474.4 334.162L491.184 395.264C480.013 396.277 468.773 396.277 457.602 395.264L474.4 334.162Z" fill="#455A64"/>
<path d="M474.385 334.147L457.602 395.264C446.783 394.333 436.081 392.352 425.646 389.349L474.385 334.147Z" fill="#455A64"/>
<path d="M474.385 334.147L425.587 389.349C416.128 386.621 407.02 382.795 398.452 377.948L474.385 334.147Z" fill="#455A64"/>
<path d="M474.356 334.133L378.755 362.229C373.921 356.968 370.378 350.655 368.403 343.789L474.356 334.133Z" fill="#455A64"/>
<path d="M474.356 334.133L368.418 343.833C366.651 337.492 366.651 330.788 368.418 324.447L474.356 334.133Z" fill="#455A64"/>
<path d="M474.356 334.118L368.418 324.432C370.405 317.567 373.947 311.252 378.77 305.977L474.356 334.118Z" fill="#455A64"/>
<path d="M398.526 290.273L474.356 334.059L378.769 305.962C384.464 299.7 391.136 294.401 398.526 290.273Z" fill="#455A64"/>
<path d="M550.275 290.273L474.415 334.059L523.125 278.872C532.594 281.585 541.707 285.412 550.275 290.273Z" fill="#455A64"/>
<path d="M550.275 290.273C557.658 294.393 564.325 299.681 570.016 305.933L474.445 334.029L550.275 290.273Z" fill="#455A64"/>
<path d="M474.386 334.118L398.511 377.948C391.128 373.816 384.458 368.523 378.755 362.273L474.356 334.177L474.386 334.118Z" fill="#455A64"/>
<path d="M425.676 278.916L474.386 334.103L398.526 290.273C407.095 285.428 416.209 281.616 425.676 278.916Z" fill="#455A64"/>
<path d="M474.415 334.147L550.275 377.948C541.709 382.8 532.601 386.627 523.14 389.349L474.415 334.147Z" fill="#455A64"/>
<path d="M379.864 310.103V340.831C379.085 338.024 378.687 335.124 378.681 332.21V310.103H379.864Z" fill="#132EBA"/>
<path opacity="0.3" d="M379.864 310.103V340.831C379.085 338.024 378.687 335.124 378.681 332.21V310.103H379.864Z" fill="black"/>
<path d="M474.356 310.133L379.864 318.768C378.296 313.113 378.296 307.137 379.864 301.482L474.356 310.133Z" fill="#132EBA"/>
<path d="M474.356 310.103L379.864 301.452C381.64 295.329 384.802 289.697 389.106 284.994L474.356 310.103Z" fill="#132EBA"/>
<path d="M406.718 271.049L474.356 310.103L389.106 284.964C394.191 279.41 400.138 274.712 406.718 271.049Z" fill="#132EBA"/>
<path d="M430.94 260.875L474.385 310.088L406.718 271.049C414.362 266.713 422.492 263.298 430.94 260.875Z" fill="#132EBA"/>
<path d="M459.42 255.552L474.385 310.088L430.94 260.875C440.236 258.171 449.775 256.388 459.42 255.552Z" fill="#132EBA"/>
<path d="M489.454 255.552L474.415 310.088L459.45 255.552C469.43 254.632 479.474 254.632 489.454 255.552Z" fill="#132EBA"/>
<path d="M517.861 260.875L474.415 310.088L489.454 255.552C499.074 256.393 508.589 258.176 517.861 260.875Z" fill="#132EBA"/>
<g opacity="0.2">
<path opacity="0.2" d="M474.356 310.132L379.864 318.768C378.296 313.113 378.296 307.137 379.864 301.482L474.356 310.132Z" fill="white"/>
<path opacity="0.2" d="M474.356 310.103L379.864 301.452C381.64 295.329 384.802 289.697 389.106 284.994L474.356 310.103Z" fill="white"/>
<path opacity="0.2" d="M406.718 271.049L474.356 310.103L389.106 284.964C394.191 279.41 400.138 274.712 406.718 271.049Z" fill="white"/>
<path opacity="0.2" d="M430.94 260.875L474.385 310.088L406.718 271.049C414.362 266.713 422.492 263.298 430.94 260.875Z" fill="white"/>
<path opacity="0.2" d="M459.42 255.552L474.385 310.088L430.94 260.875C440.236 258.171 449.775 256.388 459.42 255.552Z" fill="white"/>
<path opacity="0.2" d="M489.454 255.552L474.415 310.088L459.45 255.552C469.43 254.632 479.474 254.632 489.454 255.552Z" fill="white"/>
<path opacity="0.2" d="M517.86 260.875L474.415 310.088L489.454 255.552C499.074 256.393 508.588 258.176 517.86 260.875Z" fill="white"/>
</g>
<path d="M554.519 324.861L540.338 338.17L529.558 348.358L519.28 358.029L517.905 359.316V381.393C526.351 378.973 534.481 375.563 542.127 371.234C548.715 367.54 554.666 362.812 559.754 357.231C564.056 352.542 567.21 346.918 568.966 340.802C569.75 337.995 570.153 335.095 570.164 332.181V310.118L554.519 324.861Z" fill="#132EBA"/>
<path opacity="0.3" d="M554.519 324.861L540.338 338.17L529.558 348.358L519.28 358.029L517.905 359.316V381.393C526.351 378.973 534.481 375.563 542.127 371.234C548.715 367.54 554.666 362.812 559.754 357.231C564.056 352.542 567.21 346.918 568.966 340.802C569.75 337.995 570.153 335.095 570.164 332.181V310.118L554.519 324.861Z" fill="black"/>
<path d="M559.694 285.023C563.993 289.731 567.154 295.361 568.937 301.482L474.43 310.133L559.694 285.023Z" fill="#132EBA"/>
<path d="M570.12 310.147C570.108 313.067 569.705 315.971 568.922 318.783L540.293 316.151L474.43 310.118L554.475 302.724L568.922 301.408C569.713 304.254 570.116 307.194 570.12 310.147Z" fill="#132EBA"/>
<path d="M568.922 318.783C567.162 324.898 564.009 330.521 559.709 335.212L529.513 326.34L474.43 310.073L540.293 316.107L568.922 318.783Z" fill="#132EBA"/>
<path d="M559.709 335.212C554.621 340.794 548.67 345.522 542.083 349.216L519.236 335.996L474.445 310.147L529.528 326.414L559.709 335.212Z" fill="#132EBA"/>
<path d="M542.083 271.049L474.415 310.118L517.861 260.905C526.305 263.324 534.435 266.729 542.083 271.049Z" fill="#132EBA"/>
<path d="M542.083 271.049C548.664 274.733 554.611 279.452 559.695 285.023L474.43 310.162L542.083 271.049Z" fill="#132EBA"/>
<path d="M542.083 349.216C534.436 353.54 526.306 356.945 517.861 359.36L474.445 310.147L519.236 335.996L542.083 349.216Z" fill="#132EBA"/>
<g opacity="0.2">
<path opacity="0.2" d="M559.695 285.023C563.993 289.731 567.155 295.361 568.937 301.482L474.43 310.133L559.695 285.023Z" fill="white"/>
<path opacity="0.2" d="M570.12 310.147C570.108 313.067 569.705 315.971 568.922 318.783L540.293 316.151L474.43 310.118L554.475 302.724L568.922 301.408C569.713 304.254 570.116 307.194 570.12 310.147Z" fill="white"/>
<path opacity="0.2" d="M568.922 318.783C567.162 324.898 564.009 330.521 559.709 335.212L529.513 326.34L474.43 310.073L540.293 316.107L568.922 318.783Z" fill="white"/>
<path opacity="0.2" d="M559.709 335.212C554.621 340.794 548.67 345.522 542.083 349.216L519.236 335.996L474.445 310.147L529.528 326.414L559.709 335.212Z" fill="white"/>
<path opacity="0.2" d="M542.083 271.049L474.415 310.118L517.861 260.905C526.305 263.324 534.435 266.729 542.083 271.049Z" fill="white"/>
<path opacity="0.2" d="M542.083 271.049C548.664 274.733 554.611 279.452 559.695 285.023L474.43 310.162L542.083 271.049Z" fill="white"/>
<path opacity="0.2" d="M542.083 349.216C534.436 353.54 526.306 356.945 517.861 359.36L474.445 310.147L519.236 335.996L542.083 349.216Z" fill="white"/>
</g>
<path d="M517.876 359.375V381.453L474.385 332.181V310.088L517.876 359.375Z" fill="#263238"/>
<path d="M474.385 332.181L379.864 340.861V318.768L474.385 310.088V332.181Z" fill="#132EBA"/>
<path opacity="0.1" d="M474.385 332.181L379.864 340.861V318.768L474.385 310.088V332.181Z" fill="black"/>
<path d="M257.29 334.118C255.308 327.255 251.765 320.944 246.939 315.678C241.245 309.425 234.579 304.132 227.198 300.003C218.624 295.146 209.505 291.319 200.033 288.602C189.61 285.592 178.917 283.611 168.107 282.687C156.936 281.667 145.695 281.667 134.524 282.687C123.71 283.612 113.012 285.593 102.583 288.602C93.1065 291.319 83.9835 295.146 75.404 300.003C68.0209 304.129 61.3543 309.422 55.6627 315.678C50.8364 320.944 47.2937 327.255 45.3114 334.118C43.5588 340.466 43.5588 347.171 45.3114 353.519C47.2903 360.379 50.8336 366.686 55.6627 371.944C61.3531 378.205 68.0198 383.504 75.404 387.634C83.9678 392.487 93.0762 396.309 102.539 399.02C112.974 402.024 123.676 404.005 134.495 404.935C145.666 405.941 156.906 405.941 168.077 404.935C178.896 404.005 189.598 402.024 200.033 399.02C209.499 396.311 218.608 392.483 227.168 387.619C234.563 383.498 241.24 378.204 246.939 371.944C251.768 366.686 255.311 360.379 257.29 353.519C259.043 347.171 259.043 340.466 257.29 334.118Z" fill="#37474F"/>
<path d="M43.9807 334.103H258.592V345.046L43.9807 344.439V334.103Z" fill="#37474F"/>
<path d="M134.554 272.942L151.323 334.103L102.613 278.916C113.04 275.888 123.738 273.887 134.554 272.942Z" fill="#455A64"/>
<path d="M168.077 272.942L151.308 334.103L134.554 272.942C145.705 271.925 156.926 271.925 168.077 272.942Z" fill="#455A64"/>
<path d="M200.004 278.916L151.308 334.103L168.077 272.942C178.889 273.885 189.582 275.886 200.004 278.916Z" fill="#455A64"/>
<path d="M246.939 305.992C251.766 311.264 255.308 317.58 257.29 324.447L151.338 334.133L246.939 305.992Z" fill="#455A64"/>
<path d="M257.29 324.447C259.042 330.79 259.042 337.49 257.29 343.833L151.338 334.133L257.29 324.447Z" fill="#455A64"/>
<path d="M257.29 343.833C255.309 350.696 251.766 357.007 246.939 362.273L151.338 334.177L257.29 343.833Z" fill="#455A64"/>
<path d="M246.939 362.273C241.236 368.523 234.566 373.816 227.183 377.948L151.293 334.133L246.939 362.273Z" fill="#455A64"/>
<path d="M151.308 334.147L200.033 389.349C189.598 392.353 178.896 394.334 168.077 395.264L151.279 334.103L151.308 334.147Z" fill="#455A64"/>
<path d="M151.279 334.162L168.077 395.264C156.926 396.273 145.706 396.273 134.554 395.264L151.279 334.162Z" fill="#455A64"/>
<path d="M151.264 334.147L134.554 395.264C123.735 394.334 113.033 392.353 102.598 389.349L151.264 334.147Z" fill="#455A64"/>
<path d="M151.264 334.147L102.465 389.349C93.0295 386.621 83.9469 382.795 75.404 377.948L151.264 334.147Z" fill="#455A64"/>
<path d="M151.249 334.133L55.6479 362.229C50.8212 356.963 47.2784 350.652 45.2966 343.789L151.249 334.133Z" fill="#455A64"/>
<path d="M151.249 334.133L45.2968 343.833C43.5446 337.49 43.5446 330.79 45.2968 324.447L151.249 334.133Z" fill="#455A64"/>
<path d="M151.249 334.118L45.2966 324.432C47.2787 317.565 50.8214 311.249 55.6479 305.977L151.249 334.118Z" fill="#455A64"/>
<path d="M75.404 290.273L151.249 334.059L55.6627 305.962C61.352 299.7 68.0189 294.402 75.404 290.273Z" fill="#455A64"/>
<path d="M227.168 290.273L151.308 334.059L200.004 278.872C209.478 281.583 218.597 285.41 227.168 290.273Z" fill="#455A64"/>
<path d="M227.168 290.273C234.563 294.412 241.24 299.72 246.939 305.992L151.353 334.088L227.168 290.273Z" fill="#455A64"/>
<path d="M151.264 334.118L75.4039 377.948C68.0184 373.819 61.3474 368.527 55.6478 362.273L151.249 334.177L151.264 334.118Z" fill="#455A64"/>
<path d="M102.554 278.916L151.264 334.103L75.404 290.273C83.9733 285.428 93.0869 281.616 102.554 278.916Z" fill="#455A64"/>
<path d="M151.308 334.147L227.168 377.948C218.602 382.8 209.494 386.627 200.033 389.349L151.308 334.147Z" fill="#455A64"/>
<path d="M179.819 296.188L192.048 282.317C192.048 266.051 172.173 265.652 163.39 264.868C154.606 264.084 139.537 259.042 139.537 277.556L143.737 292.875C155.863 292.096 168.037 293.214 179.819 296.188Z" fill="#132EBA"/>
<path opacity="0.6" d="M179.819 296.188L192.048 282.317C192.048 266.051 172.173 265.652 163.39 264.868C154.606 264.084 139.537 259.042 139.537 277.556L143.737 292.875C155.863 292.096 168.037 293.214 179.819 296.188Z" fill="white"/>
<path d="M179.819 274.406L192.048 260.55C174.924 256.093 157.184 254.485 139.537 255.788L143.737 271.049C155.866 270.285 168.039 271.417 179.819 274.406Z" fill="#132EBA"/>
<path opacity="0.8" d="M179.819 274.406L192.048 260.55C174.924 256.093 157.184 254.485 139.537 255.788L143.737 271.049C155.866 270.285 168.039 271.417 179.819 274.406Z" fill="white"/>
<path d="M143.737 271.108V292.905L139.537 277.585V255.788L143.737 271.108Z" fill="#132EBA"/>
<path d="M192.048 260.55L179.819 274.406V296.217L192.048 282.347V260.55Z" fill="#132EBA"/>
<g opacity="0.6">
<path opacity="0.6" d="M143.737 271.108V292.905L139.537 277.585V255.788L143.737 271.108Z" fill="white"/>
<path opacity="0.6" d="M192.048 260.55L179.819 274.406V296.217L192.048 282.347V260.55Z" fill="white"/>
</g>
<path d="M185.793 276.166V297.962C190.895 299.61 195.819 301.765 200.491 304.395C204.568 306.71 208.314 309.565 211.626 312.883L235.612 305.829C230.843 300.962 225.412 296.79 219.479 293.437C212.928 289.681 205.918 274.45 185.793 276.166Z" fill="#132EBA"/>
<path opacity="0.6" d="M185.793 276.166V297.962C190.895 299.61 195.819 301.765 200.491 304.395C204.568 306.71 208.314 309.565 211.626 312.883L235.612 305.829C230.843 300.962 225.412 296.79 219.479 293.437C212.928 289.681 205.918 274.45 185.793 276.166Z" fill="black"/>
<path d="M198.022 262.325L185.793 276.166C190.9 277.8 195.825 279.956 200.491 282.598C204.568 284.913 208.314 287.768 211.626 291.086L235.612 284.033C230.85 279.156 225.418 274.983 219.479 271.641C212.68 267.777 205.487 264.654 198.022 262.325Z" fill="#132EBA"/>
<path opacity="0.3" d="M198.022 262.325L185.793 276.166C190.9 277.8 195.825 279.956 200.491 282.598C204.568 284.913 208.314 287.768 211.626 291.086L235.612 284.033C230.85 279.156 225.418 274.983 219.479 271.641C212.68 267.777 205.487 264.654 198.022 262.325Z" fill="black"/>
<path d="M211.627 291.086L235.612 284.018V305.829L211.627 312.883V291.086Z" fill="#132EBA"/>
<path opacity="0.6" d="M211.627 291.086L235.612 284.018V305.829L211.627 312.883V291.086Z" fill="black"/>
<path d="M247.649 310.428H239.545C239.25 310.044 238.998 309.659 238.702 309.275L214.688 294.487V316.299C219.804 322.879 221.741 330.066 220.41 337.12L246.939 339.589C247.388 337.39 247.611 335.15 247.605 332.905L247.649 310.428Z" fill="#132EBA"/>
<path opacity="0.6" d="M247.649 310.428H239.545C239.25 310.044 238.998 309.659 238.702 309.275L214.688 294.487V316.299C219.804 322.879 221.741 330.066 220.41 337.12L246.939 339.589C247.388 337.39 247.611 335.15 247.605 332.905L247.649 310.428Z" fill="black"/>
<path d="M220.395 315.412L246.939 317.793C249.098 307.545 246.362 297.001 238.687 287.478L214.673 294.532C219.789 301.112 221.8 308.314 220.395 315.412Z" fill="#132EBA"/>
<path opacity="0.3" d="M220.395 315.412L246.939 317.793C249.098 307.545 246.362 297.001 238.687 287.478L214.673 294.532C219.789 301.112 221.8 308.314 220.395 315.412Z" fill="black"/>
<path d="M246.939 317.792V339.604L220.395 337.164V315.367L246.939 317.792Z" fill="#132EBA"/>
<path opacity="0.6" d="M246.939 317.792V339.604L220.395 337.164V315.367L246.939 317.792Z" fill="black"/>
<path d="M137.112 293.526V271.715C122.325 264.898 94.7904 271.818 85.563 292.121L104.55 303.094C114.749 297.993 125.776 294.753 137.112 293.526Z" fill="#132EBA"/>
<path opacity="0.3" d="M137.112 293.526V271.715C122.325 264.898 94.7904 271.818 85.563 292.121L104.55 303.094C114.749 297.993 125.776 294.753 137.112 293.526Z" fill="black"/>
<path d="M137.112 271.715L132.898 256.35C115.02 258.362 98.65 263.286 85.5779 270.325L104.565 281.282C114.759 276.183 125.781 272.943 137.112 271.715Z" fill="#132EBA"/>
<path opacity="0.1" d="M137.112 271.715L132.898 256.35C115.02 258.362 98.65 263.286 85.5779 270.325L104.565 281.282C114.759 276.183 125.781 272.943 137.112 271.715Z" fill="black"/>
<path d="M104.55 281.282V303.094L85.563 292.121V270.325L104.55 281.282Z" fill="#263238"/>
<path d="M84.6907 284.033L80.7868 294.842C68.0251 302.739 59.966 312.247 56.6536 322.199L83.2711 324.624C85.711 317.807 91.2711 311.316 99.8774 305.844V284.033H84.6907Z" fill="#132EBA"/>
<path opacity="0.3" d="M84.6907 284.033L80.7868 294.842C68.0251 302.739 59.966 312.247 56.6536 322.199L83.2711 324.624C85.711 317.807 91.2711 311.316 99.8774 305.844V284.033H84.6907Z" fill="black"/>
<path d="M99.8183 284.033L80.7868 273.046C68.0251 280.927 59.966 290.45 56.6536 300.388L83.2711 302.828C85.6518 296.01 91.2119 289.504 99.8183 284.033Z" fill="#132EBA"/>
<path opacity="0.1" d="M99.8183 284.033L80.7868 273.046C68.0251 280.927 59.966 290.45 56.6536 300.388L83.2711 302.828C85.6518 296.01 91.2119 289.504 99.8183 284.033Z" fill="black"/>
<path d="M56.6536 300.388V322.199L83.2119 324.624V302.828L56.6536 300.388Z" fill="#263238"/>
<path d="M82.1619 328.454V306.643L74.2654 305.933L54.9233 310.975V332.757C55.0472 341.412 58.1848 349.753 63.7958 356.343L87.8107 349.29C82.7978 342.709 80.8458 335.508 82.1619 328.454Z" fill="#132EBA"/>
<path opacity="0.3" d="M82.1619 328.454V306.643L74.2654 305.933L54.9233 310.975V332.757C55.0472 341.412 58.1848 349.753 63.7958 356.343L87.8107 349.29C82.7978 342.709 80.8458 335.508 82.1619 328.454Z" fill="black"/>
<path d="M63.8845 334.547L87.8994 327.478V349.29L63.8845 356.343V334.547Z" fill="#263238"/>
<path d="M82.1766 306.643L55.5591 304.218C53.4001 314.48 56.1358 325.009 63.8105 334.547L87.8254 327.478C82.7976 320.898 80.8457 313.696 82.1766 306.643Z" fill="#132EBA"/>
<path opacity="0.1" d="M82.1766 306.643L55.5591 304.218C53.4001 314.48 56.1358 325.009 63.8105 334.547L87.8254 327.478C82.7976 320.898 80.8457 313.696 82.1766 306.643Z" fill="black"/>
<path d="M110.583 356.314C99.3302 349.822 93.7109 341.319 93.7109 332.816V310.975H208.861V332.772C208.861 341.29 203.242 349.793 191.989 356.284C169.512 369.297 133.075 369.297 110.583 356.314Z" fill="#37474F"/>
<path d="M151.294 344.247C183.087 344.247 208.861 329.364 208.861 311.005C208.861 292.646 183.087 277.763 151.294 277.763C119.5 277.763 93.7258 292.646 93.7258 311.005C93.7258 329.364 119.5 344.247 151.294 344.247Z" fill="#455A64"/>
<path d="M104.55 362.554V359.774L66.9454 337.992V359.774C71.7161 364.646 77.1527 368.818 83.0934 372.166C89.8919 376.03 97.0853 379.153 104.55 381.482L116.765 367.641C112.564 366.274 108.479 364.573 104.55 362.554Z" fill="#132EBA"/>
<path opacity="0.3" d="M104.55 362.554V359.774L66.9454 337.992V359.774C71.7161 364.646 77.1527 368.818 83.0934 372.166C89.8919 376.03 97.0853 379.153 104.55 381.482L116.765 367.641C112.564 366.274 108.479 364.573 104.55 362.554Z" fill="black"/>
<path d="M102.022 339.412C97.94 337.103 94.1894 334.253 90.8718 330.938L66.8865 337.992C71.6609 342.86 77.0969 347.032 83.0344 350.384C89.836 354.242 97.0287 357.365 104.491 359.7L116.706 345.844C111.603 344.21 106.682 342.054 102.022 339.412Z" fill="#132EBA"/>
<path opacity="0.1" d="M102.022 339.412C97.94 337.103 94.1894 334.253 90.8718 330.938L66.8865 337.992C71.6609 342.86 77.0969 347.032 83.0344 350.384C89.836 354.242 97.0287 357.365 104.491 359.7L116.706 345.844C111.603 344.21 106.682 342.054 102.022 339.412Z" fill="black"/>
<path d="M104.55 381.497V359.7L116.765 345.844V367.656L104.55 381.497Z" fill="#263238"/>
<path d="M110.524 361.46V383.271C127.648 387.728 145.389 389.337 163.035 388.033V366.236L110.524 361.46Z" fill="#132EBA"/>
<path opacity="0.1" d="M110.524 361.46V383.271C127.648 387.728 145.389 389.337 163.035 388.033V366.236L110.524 361.46Z" fill="black"/>
<path d="M122.724 347.604L110.495 361.46C127.619 365.914 145.358 367.528 163.005 366.236L158.835 350.902C146.7 351.689 134.516 350.576 122.724 347.604Z" fill="#132EBA"/>
<path opacity="0.2" d="M122.724 347.604L110.495 361.46C127.619 365.914 145.358 367.528 163.005 366.236L158.835 350.902C146.7 351.689 134.516 350.576 122.724 347.604Z" fill="white"/>
<path d="M202.754 359.774L221.8 370.776C234.562 362.894 242.621 353.371 245.934 343.419V321.622L219.316 340.994C216.92 347.811 211.36 354.318 202.754 359.774Z" fill="#132EBA"/>
<path opacity="0.1" d="M202.754 359.774L221.8 370.776C234.562 362.894 242.621 353.371 245.934 343.419V321.622L219.316 340.994C216.92 347.811 211.36 354.318 202.754 359.774Z" fill="black"/>
<path d="M202.754 337.977L221.8 348.979C234.562 341.083 242.621 331.574 245.934 321.622L219.316 319.197C216.92 326.014 211.36 332.506 202.754 337.977Z" fill="#132EBA"/>
<path opacity="0.2" d="M202.754 337.977L221.8 348.979C234.562 341.083 242.621 331.574 245.934 321.622L219.316 319.197C216.92 326.014 211.36 332.506 202.754 337.977Z" fill="white"/>
<path d="M221.786 348.979V370.776L202.754 359.789V337.977L221.786 348.979Z" fill="#132EBA"/>
<path opacity="0.3" d="M221.786 348.979V370.776L202.754 359.789V337.977L221.786 348.979Z" fill="black"/>
<path d="M169.674 365.689V371.604C168.269 371.826 166.879 372.018 165.46 372.181L169.674 387.53C186.902 385.608 203.375 380.95 216.994 373.586V351.715L169.674 365.689Z" fill="#132EBA"/>
<path opacity="0.1" d="M169.674 365.689V371.604C168.269 371.826 166.879 372.018 165.46 372.181L169.674 387.53C186.902 385.608 203.375 380.95 216.994 373.586V351.715L169.674 365.689Z" fill="black"/>
<path d="M165.46 350.31L169.674 365.689C186.902 363.767 203.375 359.123 216.994 351.759L197.963 340.757C187.79 345.868 176.78 349.104 165.46 350.31Z" fill="#132EBA"/>
<path opacity="0.2" d="M165.46 350.31L169.674 365.689C186.902 363.767 203.375 359.123 216.994 351.759L197.963 340.757C187.79 345.868 176.78 349.104 165.46 350.31Z" fill="white"/>
<path d="M169.674 365.645V387.441L165.46 372.122V350.31L169.674 365.645Z" fill="#132EBA"/>
<path opacity="0.3" d="M169.674 365.645V387.441L165.46 372.122V350.31L169.674 365.645Z" fill="black"/>
<path d="M538.711 219.796C538.658 218.834 538.381 217.898 537.9 217.064C537.42 216.229 536.751 215.519 535.946 214.99L495.901 191.877C494.422 190.99 493.136 191.714 493.136 193.489V232.188C493.186 233.15 493.463 234.087 493.943 234.922C494.424 235.757 495.095 236.467 495.901 236.994L512.67 246.665L517.964 268.092C517.946 268.484 518.085 268.867 518.35 269.157C518.615 269.447 518.984 269.619 519.376 269.637C519.768 269.655 520.152 269.516 520.441 269.251C520.731 268.986 520.904 268.617 520.922 268.225L525.772 254.221L536.02 260.136C537.498 261.023 538.785 260.299 538.785 258.539L538.711 219.796Z" fill="#132EBA"/>
<path opacity="0.5" d="M538.711 219.796C538.658 218.834 538.381 217.898 537.9 217.064C537.42 216.229 536.751 215.519 535.946 214.99L495.901 191.877C494.422 190.99 493.136 191.714 493.136 193.489V232.188C493.186 233.15 493.463 234.087 493.943 234.922C494.424 235.757 495.095 236.467 495.901 236.994L512.67 246.665L517.964 268.092C517.946 268.484 518.085 268.867 518.35 269.157C518.615 269.447 518.984 269.619 519.376 269.637C519.768 269.655 520.152 269.516 520.441 269.251C520.731 268.986 520.904 268.617 520.922 268.225L525.772 254.221L536.02 260.136C537.498 261.023 538.785 260.299 538.785 258.539L538.711 219.796Z" fill="white"/>
<path d="M508.308 209.504C509.125 209.969 509.88 210.535 510.555 211.189C511.159 211.777 511.699 212.426 512.167 213.127C512.573 213.746 512.906 214.411 513.158 215.108C513.366 215.701 513.501 216.316 513.557 216.942C513.557 217.578 513.631 218.243 513.631 218.938C513.631 219.633 513.631 220.269 513.557 220.86C513.521 221.337 513.385 221.801 513.158 222.221C512.937 222.609 512.586 222.908 512.167 223.064C511.64 223.209 511.083 223.209 510.555 223.064C509.76 222.88 509 222.565 508.308 222.132C507.487 221.672 506.726 221.111 506.045 220.461C505.439 219.891 504.903 219.25 504.448 218.554C503.675 217.41 503.193 216.096 503.043 214.724C503.043 214.088 503.043 213.422 503.043 212.727C503.043 212.032 503.043 211.397 503.043 210.82C503.089 210.338 503.23 209.871 503.458 209.445C503.671 209.05 504.025 208.75 504.448 208.602C504.965 208.439 505.516 208.413 506.045 208.528C506.851 208.717 507.617 209.048 508.308 209.504ZM522.445 218.509C522.596 218.398 522.775 218.332 522.962 218.317C523.231 218.335 523.491 218.421 523.716 218.568L525.831 219.796C526.073 219.933 526.285 220.12 526.452 220.343C526.59 220.532 526.668 220.759 526.674 220.994C526.68 221.043 526.68 221.092 526.674 221.141C526.648 221.196 526.613 221.246 526.57 221.289L509.151 234.154C508.999 234.267 508.821 234.338 508.633 234.361C508.362 234.344 508.101 234.252 507.879 234.095L505.764 232.883C505.519 232.743 505.306 232.551 505.143 232.321C505.001 232.138 504.918 231.916 504.907 231.685C504.895 231.631 504.895 231.576 504.907 231.522C504.927 231.465 504.963 231.413 505.01 231.374L522.445 218.509ZM510.171 218.509C510.192 218.293 510.192 218.075 510.171 217.859V215.951C510.191 215.72 510.191 215.487 510.171 215.256C510.123 214.737 509.967 214.233 509.713 213.777C509.372 213.223 508.886 212.773 508.308 212.476C507.628 212.077 507.154 211.973 506.829 212.151C506.689 212.263 506.576 212.405 506.497 212.566C506.417 212.727 506.374 212.903 506.371 213.082C506.371 213.215 506.371 213.422 506.371 213.733C506.371 214.043 506.371 214.339 506.371 214.665C506.371 214.99 506.371 215.315 506.371 215.626C506.371 215.936 506.371 216.173 506.371 216.336C506.426 216.854 506.582 217.356 506.829 217.814C507.192 218.377 507.704 218.827 508.308 219.116C508.988 219.515 509.461 219.618 509.713 219.441C509.846 219.334 509.955 219.199 510.032 219.046C510.109 218.893 510.151 218.725 510.156 218.554L510.171 218.509ZM523.569 230.65C524.39 231.115 525.15 231.681 525.831 232.336C526.431 232.923 526.966 233.572 527.428 234.273C527.846 234.886 528.179 235.552 528.419 236.254C528.624 236.848 528.763 237.463 528.833 238.088C528.833 238.724 528.833 239.389 528.833 240.084C528.833 240.779 528.833 241.415 528.833 242.007C528.787 242.483 528.646 242.946 528.419 243.367C528.318 243.566 528.178 243.743 528.008 243.888C527.838 244.033 527.641 244.142 527.428 244.21C526.907 244.363 526.352 244.363 525.831 244.21C525.031 244.026 524.266 243.711 523.569 243.278C522.752 242.818 521.996 242.257 521.321 241.607C520.714 241.033 520.174 240.393 519.709 239.7C519.3 239.082 518.967 238.416 518.718 237.718C518.511 237.125 518.377 236.51 518.319 235.885C518.319 235.234 518.319 234.569 518.319 233.873C518.319 233.178 518.319 232.543 518.319 231.966C518.353 231.484 518.489 231.016 518.718 230.591C518.935 230.199 519.287 229.899 519.709 229.748C520.238 229.617 520.791 229.617 521.321 229.748C522.12 229.929 522.881 230.249 523.569 230.694V230.65ZM525.447 239.7C525.458 239.483 525.458 239.266 525.447 239.049V237.186C525.447 236.89 525.447 236.654 525.447 236.506C525.385 235.989 525.229 235.488 524.988 235.027C524.621 234.468 524.11 234.019 523.509 233.726C522.829 233.326 522.356 233.223 522.105 233.4C521.965 233.513 521.851 233.654 521.772 233.815C521.693 233.976 521.65 234.153 521.646 234.332C521.631 234.549 521.631 234.766 521.646 234.983C521.646 235.278 521.646 235.589 521.646 235.914C521.646 236.239 521.646 236.565 521.646 236.89C521.632 237.122 521.632 237.354 521.646 237.585C521.692 238.105 521.848 238.609 522.105 239.064C522.441 239.621 522.928 240.072 523.509 240.365C524.19 240.764 524.663 240.868 524.988 240.691C525.127 240.574 525.239 240.429 525.318 240.266C525.397 240.103 525.441 239.925 525.447 239.744V239.7Z" fill="#FAFAFA"/>
<path d="M365.475 71.418C365.422 70.4567 365.144 69.5213 364.663 68.6867C364.183 67.8522 363.514 67.1417 362.71 66.6121L322.666 43.514C321.187 42.6268 319.9 43.3366 319.9 45.1111V83.81C319.952 84.7739 320.229 85.7122 320.709 86.5495C321.189 87.3868 321.86 88.0996 322.666 88.6307L339.435 98.3017L344.729 119.684C344.787 120.016 344.956 120.317 345.208 120.539C345.46 120.762 345.781 120.891 346.117 120.907C346.453 120.922 346.784 120.823 347.056 120.625C347.328 120.427 347.524 120.142 347.612 119.818L352.462 105.814L362.71 111.729C364.189 112.616 365.475 111.906 365.475 110.132V71.418Z" fill="#132EBA"/>
<path opacity="0.5" d="M365.475 71.418C365.422 70.4567 365.144 69.5213 364.663 68.6867C364.183 67.8522 363.514 67.1417 362.71 66.6121L322.666 43.514C321.187 42.6268 319.9 43.3366 319.9 45.1111V83.81C319.952 84.7739 320.229 85.7122 320.709 86.5495C321.189 87.3868 321.86 88.0996 322.666 88.6307L339.435 98.3017L344.729 119.684C344.787 120.016 344.956 120.317 345.208 120.539C345.46 120.762 345.781 120.891 346.117 120.907C346.453 120.922 346.784 120.823 347.056 120.625C347.328 120.427 347.524 120.142 347.612 119.818L352.462 105.814L362.71 111.729C364.189 112.616 365.475 111.906 365.475 110.132V71.418Z" fill="white"/>
<path d="M335.072 61.1851C335.89 61.65 336.645 62.2164 337.32 62.8708C337.92 63.4616 338.46 64.1105 338.932 64.808C339.344 65.4245 339.677 66.0902 339.923 66.7895C340.131 67.3819 340.265 67.9978 340.322 68.6232C340.322 69.259 340.396 69.9245 340.396 70.6195C340.396 71.3145 340.396 71.9503 340.322 72.5418C340.288 73.0234 340.152 73.4922 339.923 73.9171C339.708 74.3078 339.354 74.6034 338.932 74.7452C338.411 74.915 337.854 74.9405 337.32 74.8191C336.522 74.6349 335.762 74.3147 335.072 73.8727C334.248 73.4178 333.487 72.8559 332.81 72.2017C332.204 71.6313 331.668 70.991 331.213 70.2942C330.795 69.681 330.462 69.0145 330.222 68.3126C330.017 67.7187 329.878 67.1037 329.808 66.479C329.808 65.8283 329.808 65.1629 329.808 64.4827C329.808 63.8024 329.808 63.137 329.808 62.5603C329.854 62.079 329.994 61.6116 330.222 61.1851C330.436 60.7907 330.789 60.4901 331.213 60.3422C331.737 60.2113 332.286 60.2113 332.81 60.3422C333.607 60.4904 334.373 60.7756 335.072 61.1851ZM349.209 70.1906C349.364 70.0861 349.541 70.0202 349.727 69.9984C349.998 70.0162 350.259 70.1083 350.481 70.2646L352.596 71.4771C352.835 71.6192 353.046 71.8048 353.217 72.0243C353.353 72.2144 353.431 72.4409 353.438 72.6749C353.444 72.729 353.444 72.7835 353.438 72.8376C353.409 72.8902 353.374 72.9398 353.335 72.9855L335.915 85.8506C335.761 85.9551 335.583 86.021 335.398 86.0428C335.127 86.0251 334.866 85.933 334.644 85.7767L332.529 84.5641C332.284 84.4302 332.072 84.2432 331.908 84.017C331.771 83.8268 331.694 83.6004 331.686 83.3663C331.672 83.318 331.672 83.2667 331.686 83.2184C331.706 83.1563 331.742 83.1003 331.79 83.0558L349.209 70.1906ZM336.936 70.1906C336.957 69.9743 336.957 69.7563 336.936 69.54V67.6324C336.956 67.4061 336.956 67.1785 336.936 66.9522C336.892 66.4318 336.736 65.9272 336.477 65.4734C336.142 64.9117 335.655 64.4557 335.072 64.1573C334.392 63.7729 333.919 63.6546 333.594 63.8468C333.457 63.9617 333.345 64.1039 333.266 64.2643C333.187 64.4247 333.143 64.5998 333.135 64.7784C333.135 64.8967 333.135 65.1185 333.135 65.4143C333.135 65.71 333.135 66.0206 333.135 66.3607C333.135 66.7008 333.135 67.0113 333.135 67.3219C333.135 67.6324 333.135 67.869 333.135 68.0169C333.193 68.5344 333.349 69.0362 333.594 69.4956C333.956 70.0581 334.468 70.5087 335.072 70.7969C335.753 71.1962 336.226 71.2997 336.477 71.1223C336.614 71.0167 336.725 70.8826 336.805 70.7294C336.884 70.5761 336.929 70.4074 336.936 70.235V70.1906ZM350.333 82.3312C351.159 82.7961 351.919 83.3679 352.596 84.0317C353.199 84.6105 353.734 85.2553 354.193 85.9541C354.607 86.5688 354.941 87.2349 355.183 87.9356C355.388 88.53 355.526 89.1449 355.597 89.7693C355.597 90.4199 355.597 91.0854 355.597 91.7804C355.597 92.4754 355.597 93.1112 355.597 93.688C355.552 94.1693 355.411 94.6367 355.183 95.0632C354.97 95.4576 354.616 95.7581 354.193 95.9061C353.67 96.0525 353.118 96.0525 352.596 95.9061C351.795 95.7218 351.031 95.407 350.333 94.9745C349.522 94.5058 348.768 93.9451 348.085 93.3035C347.482 92.721 346.942 92.0766 346.474 91.3811C346.067 90.7613 345.735 90.0963 345.483 89.3996C345.275 88.8072 345.14 88.1913 345.084 87.5659C345.084 86.9301 345.01 86.2647 345.01 85.5696C345.01 84.8746 345.01 84.2388 345.084 83.6473C345.119 83.166 345.255 82.6976 345.483 82.272C345.705 81.8876 346.056 81.5942 346.474 81.4439C346.994 81.2762 347.549 81.2456 348.085 81.3552C348.888 81.5631 349.648 81.9083 350.333 82.3755V82.3312ZM352.211 91.3811C352.223 91.1644 352.223 90.9472 352.211 90.7305V88.8672C352.211 88.5715 352.211 88.3349 352.211 88.187C352.16 87.6681 352.004 87.165 351.753 86.7083C351.391 86.1413 350.879 85.6857 350.274 85.3922C349.594 85.0077 349.121 84.8894 348.869 85.0817C348.727 85.1919 348.612 85.333 348.532 85.4945C348.453 85.6559 348.411 85.8333 348.411 86.0132C348.395 86.2249 348.395 86.4375 348.411 86.6491C348.411 86.9449 348.411 87.2554 348.411 87.5955C348.411 87.9356 348.411 88.2462 348.411 88.5567C348.396 88.7881 348.396 89.0203 348.411 89.2517C348.454 89.7721 348.611 90.2767 348.869 90.7305C349.205 91.2922 349.692 91.7482 350.274 92.0465C350.954 92.431 351.447 92.5345 351.753 92.3571C351.893 92.2447 352.006 92.1031 352.085 91.9421C352.164 91.7812 352.207 91.6048 352.211 91.4255V91.3811Z" fill="#FAFAFA"/>
<path d="M90.5463 218.598C90.5989 217.636 90.8765 216.7 91.3568 215.866C91.8371 215.031 92.5067 214.321 93.3116 213.792L133.356 190.679C134.835 189.792 136.121 190.516 136.121 192.291V230.99C136.071 231.952 135.795 232.889 135.314 233.724C134.834 234.559 134.163 235.269 133.356 235.796L116.587 245.467L111.293 266.864C111.311 267.257 111.172 267.64 110.907 267.929C110.642 268.219 110.273 268.392 109.881 268.41C109.489 268.427 109.106 268.288 108.816 268.024C108.526 267.759 108.353 267.39 108.336 266.997L103.5 252.994L93.2524 258.909C91.7737 259.796 90.4872 259.071 90.4872 257.312L90.5463 218.598Z" fill="#132EBA"/>
<g opacity="0.5">
<path opacity="0.5" d="M90.5463 218.598C90.5989 217.636 90.8765 216.7 91.3568 215.866C91.8371 215.031 92.5067 214.321 93.3116 213.792L133.356 190.679C134.835 189.792 136.121 190.516 136.121 192.291V230.99C136.071 231.952 135.795 232.889 135.314 233.724C134.834 234.559 134.163 235.269 133.356 235.796L116.587 245.467L111.293 266.864C111.311 267.257 111.172 267.64 110.907 267.929C110.642 268.219 110.273 268.392 109.881 268.41C109.489 268.427 109.106 268.288 108.816 268.024C108.526 267.759 108.353 267.39 108.336 266.997L103.5 252.994L93.2524 258.909C91.7737 259.796 90.4872 259.071 90.4872 257.312L90.5463 218.598Z" fill="white"/>
</g>
<path d="M104.535 215.714C105.336 215.217 106.216 214.862 107.138 214.665C107.757 214.539 108.397 214.57 109.001 214.753C109.487 214.929 109.892 215.276 110.14 215.729C110.404 216.218 110.561 216.757 110.598 217.311C110.657 217.992 110.687 218.731 110.687 219.53C110.687 220.328 110.657 221.097 110.598 221.836C110.533 222.562 110.379 223.278 110.14 223.966C109.856 224.769 109.474 225.534 109.001 226.243C108.466 227.051 107.841 227.795 107.138 228.461C106.352 229.21 105.478 229.86 104.535 230.398C103.725 230.894 102.842 231.258 101.918 231.478C101.306 231.614 100.669 231.589 100.069 231.404C99.5834 231.229 99.1784 230.881 98.9308 230.428C98.6616 229.941 98.5002 229.401 98.4576 228.846C98.4576 228.166 98.4576 227.367 98.4576 226.628C98.4576 225.888 98.4576 225.06 98.4576 224.321C98.5283 223.594 98.6872 222.879 98.9308 222.191C99.208 221.385 99.5909 220.619 100.069 219.914C100.607 219.108 101.227 218.36 101.918 217.681C102.707 216.922 103.586 216.261 104.535 215.714ZM120.801 207.271C120.969 206.947 121.167 206.64 121.393 206.354C121.642 206.07 121.937 205.83 122.265 205.644L124.72 204.165C124.924 204.015 125.179 203.951 125.43 203.988C125.607 203.988 125.696 204.18 125.696 204.417C125.707 204.495 125.707 204.575 125.696 204.653L125.578 204.964L105.437 243.086C105.27 243.405 105.072 243.707 104.846 243.988C104.6 244.275 104.305 244.516 103.973 244.698L101.533 246.177C101.324 246.327 101.064 246.39 100.809 246.354C100.631 246.354 100.543 246.162 100.543 245.925C100.532 245.847 100.532 245.767 100.543 245.689L100.661 245.378L120.801 207.271ZM106.694 223.729C106.714 223.463 106.714 223.197 106.694 222.931V220.727C106.716 220.476 106.716 220.224 106.694 219.973C106.686 219.766 106.635 219.563 106.543 219.377C106.451 219.191 106.321 219.026 106.162 218.894C105.866 218.687 105.319 218.894 104.535 219.263C103.93 219.568 103.414 220.023 103.036 220.585C102.658 221.147 102.431 221.797 102.376 222.472C102.355 222.743 102.355 223.015 102.376 223.286C102.376 223.641 102.376 224.01 102.376 224.395C102.376 224.779 102.376 225.134 102.376 225.489C102.353 225.735 102.353 225.982 102.376 226.228C102.376 226.437 102.424 226.643 102.517 226.83C102.609 227.017 102.743 227.181 102.909 227.308C103.204 227.515 103.737 227.382 104.535 226.938C105.202 226.603 105.765 226.092 106.162 225.459C106.456 224.925 106.638 224.336 106.694 223.729ZM122.177 219.884C122.984 219.386 123.868 219.026 124.794 218.82C125.408 218.695 126.043 218.725 126.643 218.909C127.129 219.084 127.534 219.431 127.781 219.884C128.05 220.372 128.212 220.912 128.254 221.467C128.254 222.147 128.328 222.946 128.328 223.685C128.328 224.424 128.328 225.252 128.254 225.992C128.185 226.718 128.026 227.434 127.781 228.121C127.501 228.931 127.119 229.701 126.643 230.413C125.51 232.123 123.99 233.542 122.206 234.554C121.403 235.053 120.524 235.417 119.604 235.633C118.987 235.777 118.343 235.752 117.74 235.559C117.252 235.389 116.845 235.04 116.602 234.583C116.336 234.096 116.179 233.556 116.143 233.001C116.143 232.336 116.055 231.522 116.055 230.798C116.055 230.073 116.055 229.215 116.143 228.476C116.207 227.755 116.361 227.044 116.602 226.361C116.885 225.553 117.268 224.783 117.74 224.069C118.279 223.26 118.904 222.511 119.604 221.836C120.369 221.06 121.235 220.389 122.177 219.84V219.884ZM124.336 227.84C124.356 227.574 124.356 227.307 124.336 227.042V224.853C124.357 224.602 124.357 224.35 124.336 224.099C124.337 223.89 124.289 223.684 124.197 223.496C124.105 223.309 123.97 223.146 123.803 223.019C123.508 222.812 122.975 222.931 122.177 223.389C121.512 223.728 120.95 224.238 120.55 224.868C120.265 225.395 120.084 225.973 120.018 226.568C120.004 226.834 120.004 227.101 120.018 227.367C120.018 227.737 120.018 228.106 120.018 228.476C120.018 228.846 120.018 229.23 120.018 229.57C120.002 229.817 120.002 230.063 120.018 230.31C120.026 230.517 120.077 230.72 120.169 230.906C120.261 231.092 120.391 231.257 120.55 231.389C120.846 231.596 121.393 231.478 122.177 231.019C122.844 230.685 123.407 230.174 123.803 229.541C124.108 229.006 124.29 228.41 124.336 227.796V227.84Z" fill="#FAFAFA"/>
</svg>
