<svg width="410" height="381" viewBox="0 0 410 381" fill="none" xmlns="http://www.w3.org/2000/svg">
<path d="M59.9592 351.677C139.911 389.779 269.531 389.791 349.483 351.677C429.434 313.564 429.423 251.793 349.483 213.691C269.543 175.589 139.911 175.589 59.9592 213.691C-19.9922 251.793 -19.9806 313.575 59.9592 351.677Z" fill="#F5F5F5"/>
<path d="M349.205 323.518C363.93 323.518 375.867 317.83 375.867 310.814C375.867 303.797 363.93 298.109 349.205 298.109C334.48 298.109 322.542 303.797 322.542 310.814C322.542 317.83 334.48 323.518 349.205 323.518Z" fill="#EBEBEB"/>
<path d="M53.8911 312.635L63.3238 307.194C68.5903 302.896 72.5988 297.256 74.9261 290.87C77.8383 282.841 77.4322 276.738 75.3438 273.675C72.7797 269.904 66.1315 270.566 65.8647 278.502C65.3078 294.141 60.7481 304.99 53.8911 312.635Z" fill="#132EBA" fill-opacity="0.6"/>
<path opacity="0.2" d="M53.8911 312.635L63.3238 307.194C68.5903 302.896 72.5988 297.256 74.9261 290.87C77.8383 282.841 77.4322 276.738 75.3438 273.675C72.7797 269.904 66.1315 270.566 65.8647 278.502C65.3078 294.141 60.7481 304.99 53.8911 312.635Z" fill="black"/>
<path d="M53.8911 313.216C53.7683 313.214 53.6491 313.174 53.5507 313.1C53.4524 313.026 53.3799 312.924 53.3438 312.806C53.3076 312.689 53.3097 312.563 53.3497 312.447C53.3897 312.331 53.4655 312.23 53.5663 312.16C75.3786 297.077 71.1553 276.042 71.1089 275.833C71.0929 275.757 71.0921 275.678 71.1065 275.602C71.1208 275.525 71.1501 275.452 71.1927 275.387C71.2353 275.322 71.2902 275.266 71.3545 275.222C71.4188 275.178 71.491 275.147 71.5672 275.131C71.6434 275.115 71.722 275.114 71.7985 275.129C71.875 275.143 71.9479 275.172 72.0131 275.215C72.0783 275.257 72.1345 275.312 72.1784 275.377C72.2223 275.441 72.2532 275.513 72.2692 275.589C72.2692 275.81 76.7244 297.564 54.2624 313.111C54.1534 313.186 54.023 313.222 53.8911 313.216Z" fill="#FFFCF5"/>
<path d="M34.9912 323.553C34.9912 323.553 31.7077 320.885 32.4967 317.265C33.2856 313.645 35.4089 311.046 31.7773 306.382C28.1458 301.718 27.1364 295.499 31.4757 292.134C34.7823 289.524 39.9454 293.213 41.8017 286.333C43.1708 281.298 42.7067 270.148 49.1228 266.435C55.5388 262.722 59.5648 268.315 58.5554 275.879C57.6737 282.644 56.4206 289.152 57.3952 290.962C59.2748 294.443 62.4886 293.967 62.3378 300.325C62.2102 306.243 56.6062 311.139 56.6062 311.139L34.9912 323.553Z" fill="#132EBA" fill-opacity="0.6"/>
<path d="M45.7696 317.88C45.6278 317.878 45.4912 317.826 45.3847 317.732C45.2783 317.639 45.209 317.51 45.1895 317.369C43.5304 303.621 47.51 279.882 50.7586 272.828C50.786 272.75 50.8298 272.678 50.8871 272.618C50.9444 272.559 51.0138 272.512 51.0908 272.481C51.1677 272.45 51.2504 272.436 51.3332 272.44C51.416 272.444 51.497 272.465 51.5708 272.503C51.64 272.534 51.7023 272.579 51.754 272.635C51.8057 272.69 51.8457 272.756 51.8716 272.827C51.8976 272.899 51.909 272.974 51.9051 273.05C51.9013 273.126 51.8823 273.201 51.8492 273.269C48.6354 280.23 44.795 304.038 46.3846 317.184C46.4009 317.336 46.3564 317.488 46.2607 317.608C46.1651 317.727 46.0261 317.804 45.874 317.822L45.7696 317.88Z" fill="#FFFCF5"/>
<path d="M45.4563 307.171C45.3676 307.175 45.2793 307.155 45.2011 307.113C41.1751 305.152 38.6226 298.156 38.5182 297.831C38.4897 297.759 38.4761 297.682 38.478 297.604C38.4799 297.527 38.4973 297.45 38.5292 297.38C38.5611 297.309 38.6069 297.245 38.6638 297.193C38.7207 297.14 38.7876 297.099 38.8606 297.073C38.9335 297.046 39.011 297.035 39.0885 297.039C39.1659 297.043 39.2418 297.063 39.3115 297.097C39.3813 297.13 39.4435 297.178 39.4946 297.236C39.5456 297.295 39.5845 297.363 39.6088 297.436C39.6088 297.506 42.1033 304.282 45.7116 306.034C45.83 306.091 45.9253 306.187 45.9821 306.306C46.0388 306.424 46.0536 306.559 46.0239 306.687C45.9942 306.815 45.9219 306.929 45.8188 307.011C45.7157 307.092 45.5879 307.137 45.4563 307.136V307.171Z" fill="#FFFCF5"/>
<path d="M45.3869 311.812C45.2707 311.812 45.1572 311.776 45.0618 311.71C44.9663 311.644 44.8936 311.549 44.8532 311.44C44.7955 311.299 44.796 311.14 44.8547 310.999C44.9134 310.858 45.0254 310.745 45.1665 310.686C51.9422 307.971 56.1655 299.908 56.2119 299.815C56.2826 299.678 56.4049 299.575 56.5518 299.528C56.6987 299.481 56.8581 299.495 56.995 299.566C57.132 299.636 57.2352 299.759 57.2819 299.905C57.3287 300.052 57.3153 300.212 57.2445 300.349C57.0588 300.697 52.7776 308.888 45.6422 311.765C45.5627 311.803 45.4746 311.819 45.3869 311.812Z" fill="#FFFCF5"/>
<path d="M282.225 249.391C282.225 249.391 277.154 241.177 276.655 232.255C276.157 223.333 278.117 219.62 280.809 218.552C283.501 217.485 283.71 220.768 285.09 222.706C286.471 224.644 289.29 223.541 290.335 217.497C291.379 211.452 295.184 201.253 303.097 199.269C311.799 197.111 307.135 207.321 304.942 211.301C302.749 215.281 301.055 220.711 302.494 222.184C303.932 223.657 306.172 220.931 308.295 223.46C310.882 226.512 302.842 237.499 298.224 240.156L282.225 249.391Z" fill="#132EBA" fill-opacity="0.6"/>
<path d="M289.174 245.945C289.098 245.942 289.023 245.925 288.954 245.893C288.885 245.861 288.822 245.815 288.771 245.759C288.719 245.703 288.679 245.638 288.652 245.566C288.626 245.494 288.614 245.418 288.617 245.342C289.403 230.99 293.879 217.083 301.612 204.966C301.656 204.903 301.712 204.849 301.777 204.809C301.842 204.768 301.915 204.741 301.991 204.729C302.066 204.717 302.144 204.72 302.218 204.739C302.293 204.758 302.363 204.792 302.424 204.839C302.545 204.929 302.627 205.063 302.651 205.213C302.675 205.362 302.639 205.515 302.552 205.639C294.957 217.578 290.562 231.271 289.789 245.4C289.785 245.476 289.765 245.551 289.732 245.62C289.698 245.688 289.652 245.75 289.595 245.801C289.538 245.851 289.471 245.89 289.399 245.915C289.327 245.94 289.25 245.95 289.174 245.945Z" fill="#FFFCF5"/>
<path d="M289.836 239.089C289.738 239.088 289.643 239.064 289.557 239.019C286.308 237.221 284.51 231.883 284.44 231.663C284.415 231.591 284.404 231.514 284.408 231.437C284.412 231.361 284.432 231.286 284.465 231.217C284.499 231.148 284.546 231.086 284.603 231.035C284.66 230.984 284.727 230.945 284.8 230.92C284.946 230.873 285.105 230.885 285.242 230.955C285.379 231.025 285.483 231.146 285.531 231.292C285.531 231.292 287.271 236.432 290.172 237.998C290.303 238.076 290.4 238.201 290.441 238.348C290.482 238.495 290.465 238.652 290.392 238.787C290.34 238.887 290.259 238.969 290.16 239.022C290.061 239.076 289.948 239.099 289.836 239.089Z" fill="#FFFCF5"/>
<path d="M290.404 235.573C290.276 235.572 290.151 235.528 290.05 235.448C289.95 235.368 289.878 235.257 289.847 235.132C289.828 235.059 289.824 234.983 289.835 234.908C289.845 234.833 289.871 234.761 289.91 234.696C289.949 234.632 290 234.575 290.061 234.53C290.122 234.486 290.191 234.454 290.265 234.436C298.642 232.313 301.542 227.927 301.566 227.881C301.607 227.816 301.66 227.76 301.723 227.716C301.786 227.672 301.857 227.641 301.931 227.624C302.006 227.607 302.084 227.605 302.159 227.619C302.235 227.632 302.307 227.66 302.372 227.701C302.437 227.742 302.493 227.796 302.537 227.858C302.581 227.921 302.612 227.992 302.629 228.067C302.646 228.142 302.647 228.219 302.634 228.295C302.621 228.37 302.593 228.442 302.552 228.507C302.424 228.704 299.408 233.311 290.555 235.561L290.404 235.573Z" fill="#FFFCF5"/>
<path d="M155.991 231.361C155.991 231.361 144.865 228.646 144.285 207.809C143.67 185.323 147.011 159.079 133.843 156.956C120.674 154.833 113.365 170.879 113.527 189.616C113.678 206.022 120.291 241.641 155.945 248.626L155.991 231.361Z" fill="#132EBA" fill-opacity="0.6"/>
<path opacity="0.2" d="M155.991 231.361C155.991 231.361 144.865 228.646 144.285 207.809C143.67 185.323 147.011 159.079 133.843 156.956C120.674 154.833 113.365 170.879 113.527 189.616C113.678 206.022 120.291 241.641 155.945 248.626L155.991 231.361Z" fill="black"/>
<path d="M155.991 246.491H155.887C147.87 245.029 141.338 240.608 136.476 233.369C122.066 211.87 126.603 171.726 128.1 164.718C128.133 164.569 128.223 164.438 128.351 164.354C128.478 164.269 128.634 164.238 128.784 164.265C128.934 164.301 129.065 164.394 129.149 164.523C129.233 164.653 129.265 164.81 129.237 164.961C127.763 171.923 123.25 211.556 137.439 232.719C139.505 236.001 142.23 238.817 145.441 240.991C148.653 243.164 152.281 244.645 156.096 245.342C156.172 245.356 156.244 245.385 156.308 245.427C156.373 245.469 156.428 245.523 156.471 245.587C156.515 245.651 156.545 245.723 156.56 245.798C156.575 245.873 156.575 245.951 156.56 246.027C156.535 246.159 156.465 246.278 156.361 246.363C156.257 246.448 156.126 246.493 155.991 246.491Z" fill="#FFFCF5"/>
<path d="M155.991 299.966C144.493 301.521 125.825 301.497 115.047 293.004C104.268 284.512 106.519 277.202 110.661 274.151C114.803 271.099 118.4 267.619 111.276 260.843C104.152 254.067 92.7124 243.184 88.9997 226.86C85.287 210.535 87.1201 200.325 94.4064 196.926C101.472 193.631 103.34 198.875 107.668 209.688C111.995 220.502 121.73 211.231 130.06 214.608C138.391 217.984 138.054 224.667 138.576 230.41C139.098 236.153 141.848 237.743 146.57 237.743C151.292 237.743 155.991 240.458 155.991 245.864V299.966Z" fill="#132EBA" fill-opacity="0.6"/>
<path d="M155.991 281.008C155.942 281.019 155.89 281.019 155.84 281.008C155.342 280.868 143.449 277.411 126.127 261.504C107.679 244.565 98.9776 219.156 98.8847 218.901C98.8403 218.754 98.8541 218.597 98.9233 218.46C98.9925 218.324 99.1117 218.22 99.256 218.17C99.4007 218.121 99.5585 218.132 99.6952 218.2C99.832 218.267 99.9368 218.385 99.987 218.529C100.068 218.785 108.689 243.915 126.916 260.646C143.994 276.343 156.026 279.859 156.154 279.894C156.227 279.915 156.295 279.951 156.354 279.998C156.414 280.046 156.463 280.105 156.5 280.172C156.537 280.239 156.56 280.312 156.568 280.388C156.576 280.463 156.569 280.54 156.548 280.613C156.511 280.73 156.436 280.832 156.335 280.903C156.235 280.974 156.114 281.011 155.991 281.008Z" fill="#FFFCF5"/>
<path d="M130.965 265.542C130.849 265.544 130.734 265.509 130.639 265.442C130.543 265.375 130.47 265.28 130.432 265.17C126.707 255.61 125.86 235.155 125.791 234.285C125.787 234.132 125.844 233.984 125.947 233.871C126.051 233.759 126.195 233.691 126.348 233.682C126.499 233.684 126.644 233.742 126.756 233.845C126.867 233.948 126.937 234.088 126.951 234.239C126.951 234.448 127.821 255.367 131.476 264.753C131.504 264.824 131.517 264.901 131.515 264.978C131.514 265.054 131.496 265.13 131.465 265.2C131.434 265.27 131.389 265.334 131.333 265.386C131.277 265.439 131.211 265.48 131.139 265.507C131.083 265.527 131.025 265.539 130.965 265.542Z" fill="#FFFCF5"/>
<path d="M130.872 279.291C129.803 279.299 128.734 279.245 127.67 279.128C127.594 279.119 127.52 279.095 127.453 279.057C127.387 279.02 127.328 278.969 127.28 278.909C127.233 278.849 127.198 278.78 127.177 278.706C127.156 278.632 127.151 278.555 127.16 278.478C127.169 278.402 127.193 278.329 127.23 278.262C127.268 278.195 127.318 278.136 127.379 278.089C127.439 278.041 127.508 278.006 127.582 277.985C127.656 277.965 127.733 277.959 127.809 277.968C127.914 277.968 138.716 279.198 143.67 274.151C143.721 274.09 143.785 274.04 143.857 274.005C143.928 273.969 144.007 273.949 144.087 273.946C144.166 273.942 144.246 273.955 144.321 273.983C144.395 274.012 144.463 274.056 144.52 274.112C144.577 274.168 144.622 274.235 144.652 274.31C144.681 274.384 144.695 274.463 144.693 274.543C144.69 274.623 144.671 274.702 144.637 274.774C144.603 274.846 144.554 274.91 144.494 274.963C140.908 278.664 134.655 279.291 130.872 279.291Z" fill="#FFFCF5"/>
<path d="M122.519 59.5894L121.266 52.3612L114.815 56.6076C114.226 55.4474 113.39 54.4299 112.367 53.6258L115.453 45.2722L109.652 43.9843L105.406 52.1059C103.869 52.3651 102.38 52.8499 100.985 53.5446L99.1404 47.4186L92.2486 52.8369L92.7011 60.0303C91.2977 61.6024 90.0249 63.2865 88.8956 65.0657L83.2104 64.7756L79.2192 73.721L84.1038 75.8094C83.5939 77.6597 83.2713 79.5565 83.1408 81.4713L76.9336 87.1797L78.175 94.4195L84.6375 90.1731C85.2236 91.3322 86.0597 92.3466 87.0856 93.1432L84.0574 101.508L89.8586 102.785L95.9382 96.8676C97.342 96.6471 96.994 94.0018 98.5255 93.2477L100.37 99.3505L107.25 93.9438L107.076 91.1128C108.469 89.5581 113.736 86.1355 114.873 84.3487L116.3 82.0282L120.291 73.0829L118.435 69.7182L116.37 65.3325L122.519 59.5894ZM101.461 83.3857C96.1702 87.5393 94.4995 88.4559 93.6061 82.8984C92.7127 77.3409 95.7409 68.8944 101.032 64.7292C106.322 60.564 108.341 60.2739 109.292 65.8198C110.244 71.3657 106.763 79.2785 101.461 83.3857Z" fill="#E0E0E0"/>
<path d="M109.698 43.9843L117.228 48.3236L112.982 56.422L105.452 52.0827L109.698 43.9843Z" fill="#F5F5F5"/>
<path d="M128.795 56.7004L122.345 60.9469L114.815 56.6076L121.266 52.3612L128.795 56.7004Z" fill="#F5F5F5"/>
<path d="M127.763 77.3873L122.879 75.3105L115.349 70.9713L120.233 73.0481L127.763 77.3873Z" fill="#E0E0E0"/>
<path d="M84.0457 101.508L91.5755 105.836L94.6617 97.4825L87.1319 93.1432L84.0457 101.508Z" fill="#E0E0E0"/>
<path d="M107.83 103.69L100.312 99.3505L98.4673 93.2477L105.997 97.5869L107.83 103.69Z" fill="#E0E0E0"/>
<path d="M130.037 63.9286L128.796 56.7004L122.345 60.9469C121.751 59.7862 120.912 58.7687 119.885 57.9651L122.971 49.6114L117.228 48.3236L112.97 56.4452C111.434 56.7044 109.944 57.1892 108.55 57.8839L106.717 51.781L99.8248 57.1993L100.277 64.3928C98.8723 65.9759 97.5995 67.6717 96.4717 69.4629L90.775 69.1729L86.7838 78.1183L91.6684 80.2067C91.1631 82.0619 90.8405 83.9621 90.7054 85.8802L84.5098 91.5073L85.7512 98.7472L92.2021 94.5007C92.796 95.658 93.6354 96.6717 94.6618 97.4709L91.5756 105.825L97.3767 107.112L101.623 98.9908C103.165 98.7345 104.66 98.2455 106.055 97.5405L107.888 103.643L114.78 98.2366L114.328 91.0432C115.731 89.4711 117.004 87.7871 118.133 86.0078L123.83 86.2863L127.821 77.3409L122.867 75.2641C123.381 73.4102 123.707 71.5096 123.842 69.5906L130.037 63.9286ZM109.002 87.7714C103.723 91.925 98.6646 90.7996 97.7016 85.2537C96.7386 79.7078 100.254 71.8298 105.545 67.6762C110.835 63.5226 115.882 64.6596 116.845 70.2055C117.808 75.7514 114.293 83.6177 109.002 87.7714Z" fill="#EBEBEB"/>
<path d="M106.716 51.7579L99.1864 47.4186L92.2947 52.8369L99.8246 57.1761L106.716 51.7579Z" fill="#F5F5F5"/>
<path d="M92.2947 52.8369L92.7472 60.0303L100.277 64.3695L99.8246 57.1761L92.2947 52.8369Z" fill="#E0E0E0"/>
<path d="M96.4716 69.4049L88.9417 65.0657L83.2566 64.7872L90.7749 69.1265L96.4716 69.4049Z" fill="#F5F5F5"/>
<path d="M83.2566 64.7872L79.2654 73.721L86.7837 78.0603L90.7749 69.1265L83.2566 64.7872Z" fill="#E0E0E0"/>
<path d="M90.7055 85.8106L83.1872 81.4713L76.98 87.1797L84.4983 91.5189L90.7055 85.8106Z" fill="#F5F5F5"/>
<path d="M85.7513 98.7588L78.2214 94.4195L76.98 87.1797L84.4983 91.5189L85.7513 98.7588Z" fill="#E0E0E0"/>
<path d="M117.228 48.3236L109.698 43.9843L115.453 45.2722L122.971 49.6114L117.228 48.3236Z" fill="#F5F5F5"/>
<path d="M88.8026 26.7781V15.9764L80.2052 19.8515C79.7499 18.0189 78.9635 16.2849 77.8848 14.7349L83.3031 3.81716L76.6898 0L69.9372 10.152C68.0555 9.98761 66.1595 10.1725 64.3449 10.6973L63.3935 1.31107L54.0421 6.71773L53.1023 17.1598C51.0671 18.9632 49.1957 20.9433 47.51 23.077L40.7575 20.7565L34.1441 32.2196L39.5508 36.8605C38.5518 39.3869 37.7753 41.9957 37.2304 44.6572L28.6331 50.702V61.5154L37.2304 57.6402C37.6857 59.4729 38.4721 61.2069 39.5508 62.7568L34.1673 73.6862L40.7807 77.5033L47.5332 67.3513C49.415 67.5152 51.3108 67.3303 53.1255 66.806L54.0653 76.1923L63.4167 70.7856L64.3681 60.3435C67.2869 59.2786 69.8725 57.4615 71.8632 55.0761L76.713 56.7817L83.3263 45.3302L79.2655 41.8495C80.147 38.947 80.4737 35.9044 80.2285 32.8809L88.8026 26.7781ZM58.7178 53.765C51.5476 57.9071 47.1155 54.9253 47.1155 46.676C47.1155 38.4268 53.0443 28.2284 60.2261 24.0864C67.4079 19.9444 71.7472 22.9261 71.7472 31.245C71.7472 39.5638 65.8996 49.6114 58.7178 53.765Z" fill="#E0E0E0"/>
<path d="M84.2078 4.32766L76.6895 0L69.937 10.152L77.4553 14.4913L84.2078 4.32766Z" fill="#F5F5F5"/>
<path d="M96.3325 20.3156L88.8026 15.9764L80.2053 19.8515L87.7352 24.1908L96.3325 20.3156Z" fill="#F5F5F5"/>
<path d="M61.5604 80.5315L54.0421 76.1923L53.1023 66.806L60.6206 71.1453L61.5604 80.5315Z" fill="#E0E0E0"/>
<path d="M34.1326 73.6862L41.6625 78.0255L47.0807 67.1077L39.5508 62.7684L34.1326 73.6862Z" fill="#E0E0E0"/>
<path d="M96.3324 31.1754V20.3736L87.735 24.214C87.2845 22.3797 86.4977 20.6448 85.4146 19.0974L90.8329 8.17962L84.2196 4.35086L77.467 14.5145C75.5852 14.3444 73.6882 14.5293 71.8747 15.0598L70.9233 5.65032L61.5719 11.057L60.6205 21.4991C58.5882 23.3054 56.717 25.2853 55.0282 27.4162L48.2756 25.0958L41.6623 36.5588L47.0806 41.1998C46.0763 43.7243 45.2997 46.3336 44.7601 48.9965L36.1628 55.0413V65.8546L44.7601 61.9795C45.2105 63.8139 45.9973 65.5488 47.0806 67.0961L41.6623 78.0138L48.2756 81.831L55.0282 71.679C56.91 71.8434 58.8059 71.6585 60.6205 71.1337L61.5719 80.5199L70.9233 75.1133L71.8631 64.6712C73.8983 62.8678 75.7697 60.8877 77.4554 58.754L84.208 61.0745L90.8213 49.623L85.403 44.9821C86.407 42.4574 87.1836 39.8482 87.7235 37.1854L96.3324 31.1754ZM66.2476 58.1623C59.0658 62.3043 53.2414 58.9397 53.2414 50.6556C53.2414 42.3716 59.0426 32.2892 66.2476 28.1356C73.4526 23.9819 79.2422 27.3582 79.2422 35.6423C79.2422 43.9263 73.4178 53.9507 66.2476 58.1043V58.1623Z" fill="#EBEBEB"/>
<path d="M47.5101 23.1002L55.0284 27.4394L48.2759 25.0842L40.7576 20.7333L47.5101 23.1002Z" fill="#F0F0F0"/>
<path d="M40.7567 20.7451L34.1416 32.2121L41.669 36.5545L48.2841 25.0876L40.7567 20.7451Z" fill="#F5F5F5"/>
<path d="M34.1326 32.1964L41.6625 36.5356L47.0807 41.1998L39.5508 36.8721L34.1326 32.1964Z" fill="#E0E0E0"/>
<path d="M37.2304 44.6689L44.7602 49.0081L36.1629 55.0529L28.6331 50.7136L37.2304 44.6689Z" fill="#F5F5F5"/>
<path d="M28.6331 50.7137L36.1629 55.0529V65.8663L28.6331 61.527V50.7137Z" fill="#E0E0E0"/>
<path d="M70.9236 5.65032L63.3937 1.31107L54.0422 6.71773L61.5605 11.057L70.9236 5.65032Z" fill="#F5F5F5"/>
<path d="M167.454 315.49L276.516 252.512C276.756 252.428 276.964 252.271 277.112 252.063C277.259 251.855 277.338 251.607 277.338 251.352C277.338 251.097 277.259 250.849 277.112 250.641C276.964 250.433 276.756 250.276 276.516 250.192L266.434 244.391C265.809 244.077 265.12 243.913 264.421 243.913C263.721 243.913 263.032 244.077 262.408 244.391L153.311 307.31C153.071 307.394 152.863 307.551 152.716 307.759C152.568 307.967 152.489 308.216 152.489 308.47C152.489 308.725 152.568 308.973 152.716 309.181C152.863 309.389 153.071 309.546 153.311 309.63L163.428 315.432C164.048 315.755 164.735 315.929 165.435 315.939C166.134 315.949 166.825 315.795 167.454 315.49Z" fill="#E0E0E0"/>
<path d="M273.523 9.36305L175.181 66.1447C173.72 67.0987 172.503 68.3837 171.63 69.8955C170.757 71.4073 170.253 73.1034 170.158 74.8464V308.134C170.158 311.336 172.409 312.636 175.181 311.034L273.523 254.253C274.986 253.301 276.204 252.016 277.078 250.504C277.951 248.992 278.454 247.295 278.546 245.551V12.2636C278.546 9.06139 276.307 7.76193 273.523 9.36305Z" fill="#455A64"/>
<path d="M175.182 66.1447L273.523 9.36304C276.005 7.92436 278.059 8.81773 278.477 11.3122C278.245 9.74388 277.683 8.24243 276.83 6.90661C275.976 5.57079 274.849 4.43089 273.523 3.56189L269.439 1.24143C267.882 0.451551 266.161 0.0399017 264.415 0.0399017C262.669 0.0399017 260.948 0.451551 259.391 1.24143L161.038 57.9767C159.557 58.9055 158.336 60.1949 157.488 61.7242L171.631 69.8458C172.478 68.3286 173.701 67.0542 175.182 66.1447Z" fill="#37474F"/>
<path d="M155.991 299.966C156.086 301.709 156.591 303.405 157.464 304.917C158.337 306.428 159.553 307.713 161.015 308.668L165.111 310.988C166.528 311.697 168.079 312.099 169.663 312.167C171.247 312.235 172.827 311.967 174.3 311.382C171.979 312.287 170.134 310.953 170.134 308.087V74.8464C170.193 73.096 170.7 71.3899 171.608 69.8922L157.465 61.7706C156.569 63.257 156.063 64.9448 155.991 66.6784V299.966Z" fill="#263238"/>
<path d="M177.885 97.2272L270.854 43.5666C272.525 42.6152 273.871 43.3926 273.871 45.307V217.972C273.815 219.019 273.513 220.037 272.988 220.945C272.464 221.852 271.733 222.622 270.854 223.193L177.92 276.854C176.249 277.817 174.903 277.04 174.903 275.114V102.448C174.956 101.405 175.253 100.389 175.771 99.4821C176.289 98.5751 177.013 97.8027 177.885 97.2272Z" fill="#FFFCF5"/>
<path d="M224.352 46.5948C223.839 46.9317 223.412 47.3844 223.106 47.9164C222.799 48.4484 222.622 49.0449 222.589 49.6578C222.589 50.8181 223.378 51.2473 224.352 50.6788C224.867 50.344 225.296 49.8918 225.602 49.3594C225.909 48.827 226.085 48.2294 226.116 47.6158C226.116 46.4904 225.327 46.0379 224.352 46.5948Z" fill="#37474F"/>
<path d="M224.352 258.279C222.324 259.606 220.637 261.392 219.427 263.492C218.218 265.592 217.52 267.948 217.391 270.368C217.391 274.812 220.512 276.622 224.352 274.394C226.38 273.067 228.066 271.281 229.276 269.18C230.485 267.08 231.183 264.725 231.313 262.305C231.337 257.861 228.204 256.051 224.352 258.279Z" fill="#37474F"/>
<path d="M207.656 64.5552C206.637 65.232 205.79 66.1391 205.186 67.2032C204.581 68.2674 204.235 69.4587 204.176 70.6812C204.176 72.932 205.753 73.8486 207.656 72.7232C208.687 72.0527 209.544 71.1484 210.159 70.0839C210.774 69.0194 211.129 67.8247 211.195 66.5972C211.195 64.3463 209.617 63.4297 207.656 64.5552Z" fill="#37474F"/>
<path d="M216.323 63.7894C216.323 65.2977 217.483 65.8662 218.841 65.0657L242.046 51.6418C242.764 51.1929 243.367 50.5807 243.804 49.8549C244.242 49.1291 244.502 48.3102 244.563 47.465C244.563 45.9683 243.403 45.3998 242.046 46.2003L218.841 59.6242C218.124 60.072 217.522 60.6824 217.085 61.4061C216.647 62.1297 216.386 62.9462 216.323 63.7894Z" fill="#37474F"/>
<path d="M163.834 104.699C164.658 105.235 165.343 105.958 165.835 106.809C166.327 107.66 166.611 108.614 166.665 109.595C166.665 111.405 165.401 112.136 163.834 111.231C163.014 110.693 162.331 109.969 161.841 109.119C161.352 108.269 161.069 107.315 161.015 106.335C161.015 104.537 162.28 103.806 163.834 104.699Z" fill="#37474F"/>
<path d="M163.834 126.488C164.658 127.025 165.343 127.747 165.835 128.598C166.327 129.449 166.611 130.403 166.665 131.384C166.665 133.183 165.401 133.914 163.834 133.02C163.014 132.482 162.331 131.759 161.841 130.908C161.352 130.058 161.069 129.104 161.015 128.124C161.015 126.314 162.28 125.583 163.834 126.488Z" fill="#37474F"/>
<path d="M162.953 105.14C163.776 105.676 164.462 106.399 164.953 107.25C165.445 108.1 165.73 109.055 165.784 110.036C165.784 111.835 164.519 112.566 162.953 111.672C162.129 111.136 161.444 110.413 160.952 109.562C160.46 108.712 160.176 107.757 160.122 106.776C160.133 104.966 161.398 104.27 162.953 105.14Z" fill="#455A64"/>
<path d="M162.953 126.918C163.778 127.455 164.464 128.18 164.956 129.032C165.448 129.885 165.732 130.842 165.784 131.825C165.784 133.624 164.519 134.355 162.953 133.45C162.127 132.915 161.441 132.193 160.949 131.342C160.456 130.491 160.173 129.535 160.122 128.553C160.133 126.755 161.398 126.024 162.953 126.918Z" fill="#455A64"/>
<path d="M292.69 50.7716C292.69 48.8457 291.344 48.0683 289.673 49.0313L278.546 55.4474L196.739 102.692C195.86 103.263 195.128 104.033 194.604 104.941C194.08 105.848 193.778 106.867 193.722 107.913V280.532C193.722 282.458 195.068 283.235 196.739 282.272L278.581 235.016L289.673 228.612C290.552 228.041 291.283 227.27 291.807 226.363C292.331 225.455 292.634 224.437 292.69 223.391V50.7716Z" fill="#FFFCF5"/>
<path d="M293.85 50.7716C293.923 50.1898 293.822 49.5994 293.562 49.0741C293.301 48.5489 292.891 48.1123 292.383 47.8188C291.876 47.5254 291.293 47.3881 290.707 47.4242C290.122 47.4603 289.56 47.6682 289.093 48.0219L278.477 54.1595L196.158 101.729C195.098 102.398 194.217 103.315 193.591 104.4C192.964 105.485 192.611 106.707 192.562 107.959V280.532C192.515 281.111 192.626 281.692 192.884 282.213C193.141 282.734 193.535 283.176 194.023 283.491C194.439 283.732 194.912 283.856 195.393 283.85C196.073 283.829 196.736 283.633 197.319 283.282L279.695 235.712L290.288 229.598C291.342 228.922 292.218 228.004 292.844 226.92C293.47 225.836 293.826 224.618 293.884 223.367L293.85 50.7716ZM278.5 233.728L277.548 234.285L196.205 281.251C196.068 281.356 195.91 281.43 195.741 281.466C195.572 281.502 195.398 281.5 195.23 281.46C195.079 281.367 194.928 281.042 194.928 280.509V107.913C194.989 107.071 195.239 106.253 195.661 105.521C196.083 104.79 196.666 104.163 197.365 103.69L278.627 56.7004L290.23 49.9827C290.366 49.8777 290.525 49.8044 290.693 49.7683C290.862 49.7322 291.037 49.7341 291.204 49.7738C291.355 49.8667 291.506 50.1915 291.506 50.7252V223.391C291.446 224.233 291.195 225.051 290.773 225.782C290.351 226.514 289.769 227.14 289.07 227.614L278.477 233.728H278.5Z" fill="#132EBA" fill-opacity="0.6"/>
<path d="M243.206 90.8808C253.648 84.8708 262.06 89.7206 262.06 101.775C262.06 113.83 253.613 128.461 243.206 134.424C232.799 140.388 224.352 135.584 224.352 123.541C224.352 111.498 232.799 96.9024 243.206 90.8808Z" fill="#132EBA" fill-opacity="0.6"/>
<path d="M243.206 100.348C246.582 98.3991 249.32 99.977 249.32 103.829C249.205 105.951 248.592 108.016 247.53 109.857C246.467 111.697 244.986 113.261 243.206 114.422C239.829 116.371 237.091 114.793 237.091 110.941C237.206 108.819 237.819 106.754 238.882 104.914C239.944 103.073 241.426 101.509 243.206 100.348Z" fill="#132EBA" fill-opacity="0.6"/>
<path d="M255.122 121.14C255.122 114.735 250.631 112.136 245.074 115.338L241.593 117.346C236.047 120.548 231.546 128.345 231.546 134.749V136.478C234.759 137.534 238.797 136.965 243.148 134.424C247.968 131.451 252.044 127.415 255.064 122.625L255.122 121.14Z" fill="#132EBA" fill-opacity="0.6"/>
<path opacity="0.7" d="M243.206 100.348C246.582 98.3991 249.32 99.977 249.32 103.829C249.205 105.951 248.592 108.016 247.53 109.857C246.467 111.697 244.986 113.261 243.206 114.422C239.829 116.371 237.091 114.793 237.091 110.941C237.206 108.819 237.819 106.754 238.882 104.914C239.944 103.073 241.426 101.509 243.206 100.348Z" fill="#FFFCF5"/>
<path opacity="0.7" d="M255.122 121.14C255.122 114.735 250.631 112.136 245.074 115.338L241.593 117.346C236.047 120.548 231.546 128.345 231.546 134.749V136.478C234.759 137.534 238.797 136.965 243.148 134.424C247.968 131.451 252.044 127.415 255.064 122.625L255.122 121.14Z" fill="#FFFCF5"/>
<path d="M206.728 160.935L230.989 146.932C232.149 146.293 232.996 146.804 232.996 148.092V148.892C232.959 149.59 232.758 150.268 232.409 150.873C232.06 151.478 231.574 151.992 230.989 152.373L206.728 166.377C205.626 167.015 204.721 166.493 204.721 165.217V164.416C204.759 163.719 204.96 163.041 205.309 162.436C205.657 161.831 206.144 161.317 206.728 160.935Z" fill="#132EBA" fill-opacity="0.6"/>
<path opacity="0.1" d="M206.728 160.935L230.989 146.932C232.149 146.293 232.996 146.804 232.996 148.092V148.892C232.959 149.59 232.758 150.268 232.409 150.873C232.06 151.478 231.574 151.992 230.989 152.373L206.728 166.377C205.626 167.015 204.721 166.493 204.721 165.217V164.416C204.759 163.719 204.96 163.041 205.309 162.436C205.657 161.831 206.144 161.317 206.728 160.935Z" fill="black"/>
<path d="M205.73 177.84L279.126 135.468C279.672 135.144 280.124 135.399 280.124 136.049V144.611C280.104 144.959 280.003 145.297 279.83 145.599C279.657 145.9 279.416 146.158 279.126 146.351L205.73 188.723C205.173 189.048 204.721 188.781 204.721 188.143V179.58C204.741 179.231 204.843 178.892 205.018 178.59C205.193 178.287 205.437 178.031 205.73 177.84Z" fill="#132EBA" fill-opacity="0.6"/>
<path opacity="0.2" d="M205.73 177.84L279.126 135.468C279.672 135.144 280.124 135.399 280.124 136.049V144.611C280.104 144.959 280.003 145.297 279.83 145.599C279.657 145.9 279.416 146.158 279.126 146.351L205.73 188.723C205.173 189.048 204.721 188.781 204.721 188.143V179.58C204.741 179.231 204.843 178.892 205.018 178.59C205.193 178.287 205.437 178.031 205.73 177.84Z" fill="#FFFCF5"/>
<path d="M206.728 199.026L230.989 185.022C232.149 184.384 232.996 184.906 232.996 186.182V186.983C232.96 187.68 232.759 188.359 232.41 188.964C232.062 189.569 231.574 190.083 230.989 190.463L206.728 204.467C205.626 205.117 204.721 204.595 204.721 203.307V202.507C204.76 201.81 204.963 201.132 205.311 200.528C205.66 199.923 206.145 199.409 206.728 199.026Z" fill="#132EBA" fill-opacity="0.6"/>
<path opacity="0.1" d="M206.728 199.026L230.989 185.022C232.149 184.384 232.996 184.906 232.996 186.182V186.983C232.96 187.68 232.759 188.359 232.41 188.964C232.062 189.569 231.574 190.083 230.989 190.463L206.728 204.467C205.626 205.117 204.721 204.595 204.721 203.307V202.507C204.76 201.81 204.963 201.132 205.311 200.528C205.66 199.923 206.145 199.409 206.728 199.026Z" fill="black"/>
<path d="M205.73 215.93L279.126 173.559C279.672 173.234 280.124 173.501 280.124 174.139V182.701C280.104 183.049 280.003 183.387 279.83 183.689C279.657 183.991 279.416 184.249 279.126 184.442L205.73 226.813C205.173 227.138 204.721 226.883 204.721 226.233V217.671C204.741 217.322 204.843 216.982 205.018 216.68C205.193 216.378 205.437 216.121 205.73 215.93Z" fill="#132EBA" fill-opacity="0.6"/>
<path opacity="0.2" d="M205.73 215.93L279.126 173.559C279.672 173.234 280.124 173.501 280.124 174.139V182.701C280.104 183.049 280.003 183.387 279.83 183.689C279.657 183.991 279.416 184.249 279.126 184.442L205.73 226.813C205.173 227.138 204.721 226.883 204.721 226.233V217.671C204.741 217.322 204.843 216.982 205.018 216.68C205.193 216.378 205.437 216.121 205.73 215.93Z" fill="#FFFCF5"/>
<path d="M235.003 220.792L264.009 204.073C265.169 203.423 266.027 203.945 266.027 205.233V214.19C265.989 214.888 265.787 215.568 265.436 216.173C265.085 216.778 264.596 217.291 264.009 217.671L235.003 234.401C233.843 235.039 232.996 234.517 232.996 233.241V224.272C233.036 223.576 233.238 222.899 233.587 222.294C233.935 221.69 234.42 221.175 235.003 220.792Z" fill="#132EBA" fill-opacity="0.6"/>
<path opacity="0.1" d="M235.003 220.792L264.009 204.073C265.169 203.423 266.027 203.945 266.027 205.233V214.19C265.989 214.888 265.787 215.568 265.436 216.173C265.085 216.778 264.596 217.291 264.009 217.671L235.003 234.401C233.843 235.039 232.996 234.517 232.996 233.241V224.272C233.036 223.576 233.238 222.899 233.587 222.294C233.935 221.69 234.42 221.175 235.003 220.792Z" fill="black"/>
<path d="M303.689 182.991C303.689 182.991 289.441 163.337 288.606 160.947C287.944 159.184 288.606 156.561 288.815 155.343C289.023 154.125 289.209 151.41 289.418 150.702C289.766 149.38 288.06 149.646 287.097 150.853C286.134 152.06 285.81 154.473 285.311 154.867C284.812 155.262 281.018 149.728 279.034 147.175C277.05 144.623 275.808 143.068 274.59 144.019C273.72 144.704 274.37 146.189 275.808 148.37C276.649 149.545 277.423 150.765 278.129 152.025C278.349 152.501 277.166 152.535 276.528 153.522C276.029 154.287 276.528 155.529 275.832 156.12C275.403 156.447 275.11 156.919 275.007 157.447C274.904 157.976 274.999 158.524 275.275 158.986C276.566 161.014 278.232 162.778 280.182 164.184C282.317 165.658 283.176 166.18 284.44 168.187C285.705 170.194 297.052 190.695 297.818 191.925C298.584 193.155 300.057 195.661 302.296 195.731C304.536 195.8 322.867 180.021 323.807 179.232C326.824 176.715 327.787 176.355 328.297 178.617C328.473 179.422 328.605 180.235 328.692 181.054C329.051 183.931 331.012 194.211 331.012 194.211C331.012 194.211 340.294 198.701 347.917 196.531C355.539 194.362 358.115 191.125 358.115 191.125L354.298 184.906C355.331 182.342 360.099 171.946 361.642 164.671L337.741 160.808C337.254 160.703 336.465 160.506 335.421 160.239C334.11 159.891 330.78 158.743 328.262 160.947C320.048 168.106 303.712 182.991 303.712 182.991" fill="#FFA8A7"/>
<path d="M351.073 303.586L346.792 309.538C348.737 310.446 350.863 310.902 353.01 310.872C356.851 311.011 357.906 309.712 358.046 309.456C358.695 308.064 357.686 305.558 357.408 303.4L351.073 303.586Z" fill="#37474F"/>
<path d="M347.035 306.683C347.035 306.683 341.837 306.347 338.252 305.906C334.667 305.465 331.824 307.206 332.66 308.679C333.495 310.153 335.479 311.382 338.565 312.415C341.199 313.308 344.366 313.947 347.104 314.735C349.843 315.524 351.745 316.557 353.335 316C355.11 315.385 355.876 314.677 355.725 313.378C355.338 311.53 354.857 309.702 354.286 307.902L347.035 306.683Z" fill="#37474F"/>
<path d="M358.046 297.611C358.046 297.611 357.396 303.017 357.349 304.177C357.303 305.338 352.07 305.709 351.073 303.586L350.91 296.972L358.046 297.611Z" fill="#F28F8F"/>
<path d="M352.778 300.929L354.646 309.143C354.646 309.143 354.82 310.141 350.55 310.779C346.281 311.417 339.575 308.54 338.426 307.96C337.277 307.38 337.15 306.208 341.35 306.44C345.55 306.672 347.035 306.684 347.035 306.684L345.666 303.052L352.778 300.929Z" fill="#FFA8A7"/>
<path d="M361.573 164.602L364.531 163.778C364.531 163.778 370.715 183.351 371.4 185.242C372.084 187.133 372.862 189.129 371.527 191.461C369.938 194.234 361.573 205.384 361.573 205.384L356.259 200.186L362.292 189.141L356.955 178.351L361.573 164.602Z" fill="#F28F8F"/>
<path d="M331.186 139.181C330.493 137.879 330.141 136.422 330.163 134.947C330.185 133.472 330.581 132.027 331.314 130.746C334.261 125.282 340.828 122.625 348.648 123.634C352.268 124.11 356.537 127.115 358.869 131.605C361.445 136.582 361.689 146.607 362.35 150.401L331.186 139.181Z" fill="#37474F"/>
<path d="M330.977 141.328C330.977 141.328 329.121 144.866 329.446 145.191C329.927 145.472 330.453 145.668 331.001 145.771L330.977 141.328Z" fill="#FFA8A7"/>
<path d="M336.616 130.143C334.597 131.454 331.117 133.867 330.966 141.815C330.803 149.937 331.964 152.617 333.17 153.556C333.982 154.195 338.751 153.87 340.793 153.394C342.835 152.918 348.717 150.006 350.84 145.586C353.335 140.388 352.824 132.823 349.123 130.503C347.239 129.389 345.104 128.771 342.916 128.708C340.728 128.646 338.561 129.139 336.616 130.143Z" fill="#FFA8A7"/>
<path d="M358.046 191.078C361.619 196.647 365.007 201.52 365.75 207.809C367.281 221.024 362.269 236.13 361.19 245.911C363.219 248.693 364.389 252.008 364.555 255.448C364.555 259.497 358.046 297.611 358.046 297.611C358.046 297.611 353.312 299.049 350.91 296.972L346.443 226.86L348.764 218.32L358.046 191.078Z" fill="#132EBA" fill-opacity="0.6"/>
<path opacity="0.2" d="M358.046 191.078C361.619 196.647 365.007 201.52 365.75 207.809C367.281 221.024 362.269 236.13 361.19 245.911C363.219 248.693 364.389 252.008 364.555 255.448C364.555 259.497 358.046 297.611 358.046 297.611C358.046 297.611 353.312 299.049 350.91 296.972L346.443 226.86L348.764 218.32L358.046 191.078Z" fill="black"/>
<path d="M346.443 226.86L348.764 218.32C353.207 217.151 357.492 215.448 361.526 213.25C361.526 213.25 359.113 217.647 352.175 220.061L348.59 231.025L348.288 256.144L346.443 226.86Z" fill="#132EBA" fill-opacity="0.6"/>
<path opacity="0.3" d="M346.443 226.86L348.764 218.32C353.207 217.151 357.492 215.448 361.526 213.25C361.526 213.25 359.113 217.647 352.175 220.061L348.59 231.025L348.288 256.144L346.443 226.86Z" fill="black"/>
<path d="M358.045 191.078C359.96 194.211 364.531 199.548 363.557 204.688C362.396 210.907 359.032 215.281 348.798 218.32L339.192 253.127C339.192 253.127 344.192 257.768 345.724 262.258C347.255 266.748 352.778 300.952 352.778 300.952C352.778 300.952 351.061 303.748 345.666 303.075C345.666 303.075 326.859 260.147 325.536 257.351C323.93 254.519 323.368 251.214 323.946 248.011C324.538 243.509 330.908 194.234 330.908 194.234L358.045 191.078Z" fill="#132EBA" fill-opacity="0.6"/>
<path opacity="0.2" d="M358.045 191.078C359.96 194.211 364.531 199.548 363.557 204.688C362.396 210.907 359.032 215.281 348.798 218.32L339.192 253.127C339.192 253.127 344.192 257.768 345.724 262.258C347.255 266.748 352.778 300.952 352.778 300.952C352.778 300.952 351.061 303.748 345.666 303.075C345.666 303.075 326.859 260.147 325.536 257.351C323.93 254.519 323.368 251.214 323.946 248.011C324.538 243.509 330.908 194.234 330.908 194.234L358.045 191.078Z" fill="black"/>
<path d="M361.573 164.602L337.672 160.738C337.185 160.634 336.396 160.437 335.351 160.17C335.351 160.17 334.33 175.16 328.193 178.594C328.344 179.314 328.471 180.114 328.587 181.031C328.947 183.908 330.908 194.188 330.908 194.188C330.908 194.188 340.19 198.678 347.812 196.508C355.435 194.338 358.011 191.101 358.011 191.101L354.194 184.883C355.261 182.295 360.064 171.9 361.573 164.602Z" fill="#132EBA" fill-opacity="0.6"/>
<path opacity="0.7" d="M361.573 164.602L337.672 160.738C337.185 160.634 336.396 160.437 335.351 160.17C335.351 160.17 334.33 175.16 328.193 178.594C328.344 179.314 328.471 180.114 328.587 181.031C328.947 183.908 330.908 194.188 330.908 194.188C330.908 194.188 340.19 198.678 347.812 196.508C355.435 194.338 358.011 191.101 358.011 191.101L354.194 184.883C355.261 182.295 360.064 171.9 361.573 164.602Z" fill="#FFFCF5"/>
<path d="M355.273 182.411C352.098 184.317 348.773 185.959 345.329 187.319C348.455 187.257 351.515 186.411 354.228 184.859L355.273 182.411Z" fill="#132EBA" fill-opacity="0.6"/>
<path d="M336.024 130.537C336.024 130.537 334.864 138.079 337.602 142.511C337.602 142.511 338.623 139.506 341.164 140.075C343.705 140.643 343.844 143.996 342.058 145.876C341.603 146.403 341.01 146.791 340.345 146.997C339.68 147.202 338.971 147.215 338.298 147.036C338.298 147.036 337.892 152.489 337.672 157.06C337.451 161.632 336.245 171.598 341.385 175.624C346.524 179.65 359.426 181.065 365.471 172.619C368.836 167.92 364.369 159.613 362.292 150.296C360.378 141.734 359.299 129.041 350.214 126.999C341.129 124.957 336.024 130.537 336.024 130.537Z" fill="#37474F"/>
<path d="M369.358 27.4975L367.443 28.6577C367.604 27.9765 367.693 27.2805 367.71 26.5809C367.71 22.6941 364.984 21.1278 361.619 23.1002C360.595 23.7178 359.681 24.5021 358.915 25.4206C358.915 20.1996 355.249 18.0764 350.724 20.6869C348.34 22.2419 346.356 24.3371 344.932 26.8025C343.509 29.2679 342.687 32.034 342.533 34.8765C342.533 35.1434 342.533 35.3986 342.533 35.6539C341.367 35.5072 340.188 35.7785 339.203 36.4196C337.43 37.5749 335.955 39.132 334.896 40.9644C333.838 42.7969 333.227 44.8531 333.112 46.9661C333.111 47.4573 333.162 47.9473 333.263 48.428L332.242 49.0197C329.469 50.6208 327.218 53.7419 327.218 55.9811C327.218 58.2203 329.469 58.754 332.242 57.1413L369.369 35.7351C372.142 34.134 374.393 31.0129 374.393 28.7737C374.393 26.5345 372.131 25.8847 369.358 27.4975Z" fill="#EBEBEB"/>
</svg>
