<svg width="23" height="23" viewBox="0 0 23 23" fill="none" xmlns="http://www.w3.org/2000/svg">
<path d="M15.6889 18.5412C16.4766 18.5412 17.1152 17.9027 17.1152 17.115C17.1152 16.3273 16.4766 15.6887 15.6889 15.6887C14.9012 15.6887 14.2627 16.3273 14.2627 17.115C14.2627 17.9027 14.9012 18.5412 15.6889 18.5412Z" fill="white"/>
<path d="M21.2344 16.7435C20.7937 15.6209 20.0334 14.6524 19.0476 13.9578C18.0617 13.2633 16.8938 12.8733 15.6884 12.8362C14.483 12.8733 13.3151 13.2633 12.3292 13.9578C11.3434 14.6524 10.583 15.6209 10.1424 16.7435L9.9834 17.115L10.1424 17.4865C10.583 18.6091 11.3434 19.5776 12.3292 20.2722C13.3151 20.9667 14.483 21.3567 15.6884 21.3937C16.8938 21.3567 18.0617 20.9667 19.0476 20.2722C20.0334 19.5776 20.7937 18.6091 21.2344 17.4865L21.3934 17.115L21.2344 16.7435ZM15.6884 19.9675C15.1242 19.9675 14.5727 19.8002 14.1036 19.4868C13.6345 19.1733 13.2689 18.7278 13.053 18.2066C12.8371 17.6854 12.7806 17.1118 12.8907 16.5585C13.0008 16.0052 13.2724 15.4969 13.6714 15.098C14.0703 14.699 14.5786 14.4274 15.1319 14.3173C15.6852 14.2072 16.2588 14.2637 16.78 14.4796C17.3012 14.6955 17.7467 15.0611 18.0602 15.5302C18.3736 15.9993 18.5409 16.5508 18.5409 17.115C18.54 17.8712 18.2391 18.5962 17.7044 19.131C17.1696 19.6657 16.4446 19.9665 15.6884 19.9675Z" fill="white"/>
<path d="M8.5573 19.9675H4.99168V4.99189H7.13105V7.13127H15.6886V4.99189H17.8279V11.41H19.2542V4.99189C19.2542 4.61363 19.1039 4.25086 18.8364 3.98338C18.569 3.71591 18.2062 3.56564 17.8279 3.56564H15.6886V2.85252C15.6886 2.47425 15.5383 2.11148 15.2708 1.84401C15.0033 1.57653 14.6406 1.42627 14.2623 1.42627H8.5573C8.17904 1.42627 7.81627 1.57653 7.54879 1.84401C7.28132 2.11148 7.13105 2.47425 7.13105 2.85252V3.56564H4.99168C4.61341 3.56564 4.25064 3.71591 3.98317 3.98338C3.71569 4.25086 3.56543 4.61363 3.56543 4.99189V19.9675C3.56543 20.3458 3.71569 20.7086 3.98317 20.976C4.25064 21.2435 4.61341 21.3938 4.99168 21.3938H8.5573V19.9675ZM8.5573 2.85252H14.2623V5.70502H8.5573V2.85252Z" fill="white"/>
</svg>
