<svg width="649" height="555" viewBox="0 0 649 555" fill="none" xmlns="http://www.w3.org/2000/svg">
<rect x="154.5" y="0.5" width="350" height="554" rx="9.5" stroke="#132EBA"/>
<path d="M648.73 435.389H0V435.687H648.73V435.389Z" fill="#EBEBEB"/>
<path d="M583.727 454.526H540.756V454.824H583.727V454.526Z" fill="#EBEBEB"/>
<path d="M429.745 457.761H418.47V458.059H429.745V457.761Z" fill="#EBEBEB"/>
<path d="M539.458 443.489H514.56V443.787H539.458V443.489Z" fill="#EBEBEB"/>
<path d="M124.102 445.487H68.0647V445.785H124.102V445.487Z" fill="#EBEBEB"/>
<path d="M143.875 445.487H135.662V445.785H143.875V445.487Z" fill="#EBEBEB"/>
<path d="M292.123 450.506H170.577V450.804H292.123V450.506Z" fill="#EBEBEB"/>
<path d="M307.498 382.345H56.9713C55.0087 382.342 53.1276 381.625 51.7411 380.352C50.3545 379.078 49.5758 377.353 49.5758 375.554V52.7317C49.5928 50.9429 50.3791 49.2326 51.7638 47.9722C53.1486 46.7118 55.0199 46.0031 56.9713 46H307.498C309.463 46 311.347 46.7155 312.737 47.9891C314.126 49.2627 314.906 50.99 314.906 52.7911V375.554C314.906 377.355 314.126 379.082 312.737 380.356C311.347 381.63 309.463 382.345 307.498 382.345ZM56.9713 46.2379C55.0947 46.241 53.2962 46.9266 51.9704 48.1441C50.6447 49.3615 49.9001 51.0115 49.9001 52.7317V375.554C49.9001 377.274 50.6447 378.924 51.9704 380.141C53.2962 381.359 55.0947 382.044 56.9713 382.048H307.498C309.376 382.044 311.176 381.359 312.503 380.142C313.831 378.925 314.579 377.275 314.582 375.554V52.7317C314.579 51.0104 313.831 49.3605 312.503 48.1433C311.176 46.9262 309.376 46.241 307.498 46.2379H56.9713Z" fill="#EBEBEB"/>
<path d="M588.152 382.345H337.612C335.648 382.342 333.766 381.625 332.377 380.352C330.989 379.08 330.207 377.354 330.204 375.554V52.7317C330.224 50.9418 331.013 49.2315 332.4 47.9714C333.787 46.7114 335.659 46.003 337.612 46H588.152C590.101 46.0062 591.969 46.7163 593.351 47.9764C594.733 49.2364 595.517 50.945 595.534 52.7317V375.554C595.534 377.351 594.757 379.075 593.374 380.348C591.99 381.62 590.112 382.339 588.152 382.345ZM337.612 46.2379C335.734 46.241 333.934 46.9262 332.607 48.1433C331.279 49.3605 330.531 51.0104 330.528 52.7317V375.554C330.531 377.275 331.279 378.925 332.607 380.142C333.934 381.359 335.734 382.044 337.612 382.048H588.152C590.029 382.044 591.829 381.359 593.157 380.142C594.485 378.925 595.232 377.275 595.236 375.554V52.7317C595.232 51.0104 594.485 49.3605 593.157 48.1433C591.829 46.9262 590.029 46.241 588.152 46.2379H337.612Z" fill="#EBEBEB"/>
<path d="M267.835 337.971H179.932V424.697H267.835V337.971Z" fill="#E6E6E6"/>
<path d="M281.264 331.524H270.209V435.96H281.264V331.524Z" fill="#E6E6E6"/>
<path d="M201.132 344.798H193.931V377.207H201.132V344.798Z" fill="#FAFAFA"/>
<path d="M230.987 344.798H223.786V377.207H230.987V344.798Z" fill="#F5F5F5"/>
<path d="M208.333 347.081H201.132V377.207H208.333V347.081Z" fill="#F5F5F5"/>
<path d="M223.786 347.081H216.585V377.207H223.786V347.081Z" fill="#FAFAFA"/>
<path d="M216.585 344.798H211.927V377.207H216.585V344.798Z" fill="#EBEBEB"/>
<path d="M211.94 347.081H208.333V377.207H211.94V347.081Z" fill="#FAFAFA"/>
<path d="M238.188 344.798H230.987V377.207H238.188V344.798Z" fill="#EBEBEB"/>
<path d="M245.389 347.081H238.188V377.207H245.389V347.081Z" fill="#E6E6E6"/>
<path d="M260.854 347.081H253.654V377.207H260.854V347.081Z" fill="#E6E6E6"/>
<path d="M253.654 344.798H248.996V377.207H253.654V344.798Z" fill="#FAFAFA"/>
<path d="M248.995 347.081H245.388V377.207H248.995V347.081Z" fill="#EBEBEB"/>
<path d="M264.461 345.57H260.854V377.207H264.461V345.57Z" fill="#FAFAFA"/>
<path d="M257.248 420.642H264.449V388.232H257.248V420.642Z" fill="#FAFAFA"/>
<path d="M227.38 420.642H234.581V388.232H227.38V420.642Z" fill="#FAFAFA"/>
<path d="M250.047 420.654H257.247V390.528H250.047V420.654Z" fill="#F0F0F0"/>
<path d="M234.594 420.654H241.795V390.528H234.594V420.654Z" fill="#EBEBEB"/>
<path d="M241.782 420.642H246.44V388.232H241.782V420.642Z" fill="#FAFAFA"/>
<path d="M246.439 420.654H250.046V390.528H246.439V420.654Z" fill="#F5F5F5"/>
<path d="M220.179 420.642H227.38V388.232H220.179V420.642Z" fill="#EBEBEB"/>
<path d="M212.991 420.654H220.192V390.528H212.991V420.654Z" fill="#F5F5F5"/>
<path d="M197.526 420.654H204.726V390.528H197.526V420.654Z" fill="#E6E6E6"/>
<path d="M204.726 420.642H209.384V388.232H204.726V420.642Z" fill="#FAFAFA"/>
<path d="M189.274 420.642H193.931V388.232H189.274V420.642Z" fill="#FAFAFA"/>
<path d="M209.371 420.654H212.978V390.528H209.371V420.654Z" fill="#EBEBEB"/>
<path d="M193.918 420.654H197.525V389.017H193.918V420.654Z" fill="#F0F0F0"/>
<path d="M267.394 331.524H177.155V430.156H264.448V436.008H270.339V331.584L267.394 331.524ZM264.448 420.641H182.708V382.654H264.448V420.641ZM264.448 377.231H182.708V340.956H264.448V377.231Z" fill="#F0F0F0"/>
<path d="M91.8862 424.709H179.789V337.983H91.8862L91.8862 424.709Z" fill="#E6E6E6"/>
<path d="M95.2724 435.96H106.327V429.05H95.2724V435.96Z" fill="#E6E6E6"/>
<path d="M169.63 377.219H176.831V344.809H169.63V377.219Z" fill="#FAFAFA"/>
<path d="M139.775 377.219H146.976V344.809H139.775V377.219Z" fill="#F5F5F5"/>
<path d="M162.429 377.207H169.63V347.081H162.429V377.207Z" fill="#F5F5F5"/>
<path d="M146.976 377.207H154.177V347.081H146.976V377.207Z" fill="#FAFAFA"/>
<path d="M154.177 377.219H158.835V344.809H154.177V377.219Z" fill="#EBEBEB"/>
<path d="M158.822 377.207H162.429V347.081H158.822V377.207Z" fill="#FAFAFA"/>
<path d="M137.31 377.219H144.511V344.809H137.31V377.219Z" fill="#EBEBEB"/>
<path d="M130.109 377.207H137.31V347.081H130.109V377.207Z" fill="#E6E6E6"/>
<path d="M114.644 377.207H121.845V347.081H114.644V377.207Z" fill="#E6E6E6"/>
<path d="M121.845 377.219H126.502V344.809H121.845V377.219Z" fill="#FAFAFA"/>
<path d="M126.502 377.207H130.109V347.081H126.502V377.207Z" fill="#EBEBEB"/>
<path d="M111.049 377.207H114.656V345.57H111.049V377.207Z" fill="#F5F5F5"/>
<path d="M114.864 388.244H107.663V420.653H114.864V388.244Z" fill="#FAFAFA"/>
<path d="M144.732 388.244H137.531V420.653H144.732V388.244Z" fill="#FAFAFA"/>
<path d="M122.078 390.516H114.877V420.642H122.078V390.516Z" fill="#F5F5F5"/>
<path d="M137.531 390.516H130.33V420.642H137.531V390.516Z" fill="#EBEBEB"/>
<path d="M130.33 388.244H125.672V420.653H130.33V388.244Z" fill="#FAFAFA"/>
<path d="M125.685 390.516H122.078V420.642H125.685V390.516Z" fill="#F5F5F5"/>
<path d="M147.184 388.244H139.983V420.653H147.184V388.244Z" fill="#EBEBEB"/>
<path d="M154.385 390.516H147.184V420.642H154.385V390.516Z" fill="#F5F5F5"/>
<path d="M169.851 390.516H162.65V420.642H169.851V390.516Z" fill="#E6E6E6"/>
<path d="M162.65 388.244H157.992V420.653H162.65V388.244Z" fill="#FAFAFA"/>
<path d="M177.155 388.244H172.497V420.653H177.155V388.244Z" fill="#FAFAFA"/>
<path d="M157.992 390.516H154.385V420.642H157.992V390.516Z" fill="#EBEBEB"/>
<path d="M173.457 389.005H169.85V420.642H173.457V389.005Z" fill="#EBEBEB"/>
<path d="M89.3952 331.524V435.948H95.2857V430.156H182.579V331.524H89.3952ZM95.2857 382.666H177.026V420.642H95.2857V382.666ZM95.2857 341.039H177.026V377.302H95.2857V341.039Z" fill="#F0F0F0"/>
<path d="M95.7137 259.51H281.419V83.6068L95.7137 83.6068L95.7137 259.51Z" fill="#EBEBEB"/>
<path d="M89.2262 259.51H274.932V83.6068L89.2262 83.6068L89.2262 259.51Z" fill="#F0F0F0"/>
<path d="M270.248 87.7815H94.1439V255.419H270.248V87.7815Z" fill="#E0E0E0"/>
<path d="M270.248 87.7815H98.5421V255.419H270.248V87.7815Z" fill="#F5F5F5"/>
<path d="M182.617 255.419H186.108L186.108 87.7814H182.617L182.617 255.419Z" fill="#EBEBEB"/>
<path d="M162.611 87.7815L113.67 255.419H108.974L157.914 87.7815H162.611Z" fill="white"/>
<path d="M181.139 258.63H184.123L184.123 85.1887H181.139L181.139 258.63Z" fill="#F0F0F0"/>
<path d="M144.848 87.7815L98.5421 246.427V159.225L119.392 87.7815H144.848Z" fill="white"/>
<path d="M270.248 102.993V119.085L230.442 255.419H225.745L270.248 102.993Z" fill="white"/>
<path d="M270.248 135.486V222.688L260.699 255.418H235.242L270.248 135.486Z" fill="white"/>
<path d="M484.751 128.812C499.013 125.726 507.846 112.627 504.48 99.5532C501.114 86.4798 486.823 78.383 472.561 81.4687C458.299 84.5543 449.466 97.6538 452.833 110.727C456.199 123.801 470.489 131.897 484.751 128.812Z" fill="#E0E0E0"/>
<path d="M494.609 119.741C503.421 111.664 503.421 98.5687 494.609 90.4917C485.798 82.4146 471.512 82.4146 462.701 90.4917C453.889 98.5687 453.889 111.664 462.701 119.741C471.512 127.818 485.798 127.818 494.609 119.741Z" fill="#F0F0F0"/>
<path d="M477.595 119.311V104.849L467.138 110.272" fill="#F0F0F0"/>
<path d="M477.595 120.5C477.251 120.5 476.921 120.375 476.678 120.152C476.434 119.929 476.298 119.626 476.298 119.311V106.894L467.786 111.307C467.487 111.464 467.132 111.507 466.798 111.424C466.465 111.342 466.181 111.141 466.009 110.867C465.837 110.592 465.791 110.266 465.881 109.961C465.971 109.655 466.19 109.395 466.489 109.237L476.946 103.814C477.144 103.709 477.367 103.655 477.595 103.655C477.823 103.655 478.047 103.709 478.244 103.814C478.44 103.918 478.603 104.067 478.717 104.246C478.831 104.426 478.891 104.629 478.893 104.837V119.299C478.894 119.456 478.862 119.612 478.798 119.758C478.733 119.904 478.638 120.036 478.517 120.148C478.397 120.259 478.253 120.348 478.095 120.409C477.936 120.469 477.767 120.5 477.595 120.5Z" fill="#E0E0E0"/>
<path d="M562.241 174.199H395.077V180.454H562.241V174.199Z" fill="#E0E0E0"/>
<path d="M410.14 151.137H402.771V174.199H410.14V151.137Z" fill="#EBEBEB"/>
<path d="M445.755 151.137H438.386V174.199H445.755V151.137Z" fill="#EBEBEB"/>
<path d="M491.543 173.295L484.29 174.199L478.918 151.482L486.171 150.567L491.543 173.295Z" fill="#EBEBEB"/>
<path d="M419.274 154.182H411.905V174.199H419.274V154.182Z" fill="#EBEBEB"/>
<path d="M436.193 154.182H428.823V174.199H436.193V154.182Z" fill="#EBEBEB"/>
<path d="M478.919 154.182H471.549V174.199H478.919V154.182Z" fill="#EBEBEB"/>
<path d="M461.377 173.033L454.189 174.199L448.234 154.658L455.422 153.492L461.377 173.033Z" fill="#EBEBEB"/>
<path d="M425.632 149.996H421.947V174.199H425.632V149.996Z" fill="#EBEBEB"/>
<path d="M469.434 149.996H465.749V174.199H469.434V149.996Z" fill="#EBEBEB"/>
<path d="M546.205 155.954H510.317V173.996H546.205V155.954Z" fill="#EBEBEB"/>
<path d="M324.365 489.1C463.3 489.1 575.93 483.072 575.93 475.637C575.93 468.201 463.3 462.173 324.365 462.173C185.43 462.173 72.8004 468.201 72.8004 475.637C72.8004 483.072 185.43 489.1 324.365 489.1Z" fill="#F5F5F5"/>
<path d="M105.432 415.682C105.432 415.682 97.4133 417.288 93.988 415.682C90.5627 414.076 91.8472 390.706 88.344 390.254C80.2998 389.136 81.6751 420.154 85.1004 426.683C88.5257 433.213 106.158 430.442 106.158 430.442L105.432 415.682Z" fill="#132EBA"/>
<path opacity="0.2" d="M105.432 415.682C105.432 415.682 97.4133 417.288 93.988 415.682C90.5627 414.076 91.8472 390.706 88.344 390.254C80.2998 389.136 81.6751 420.154 85.1004 426.683C88.5257 433.213 106.158 430.442 106.158 430.442L105.432 415.682Z" fill="white"/>
<path d="M106.093 458.783C106.093 458.783 94.2216 355.144 108.39 353.325C122.558 351.505 125.983 352.635 120.508 456.797L106.093 458.783Z" fill="#132EBA"/>
<path opacity="0.3" d="M106.093 458.783C106.093 458.783 94.2216 355.144 108.39 353.325C122.558 351.505 125.983 352.635 120.508 456.797L106.093 458.783Z" fill="white"/>
<path d="M89.4468 447.08H136.065L132.172 474.423H93.3392L89.4468 447.08Z" fill="#263238"/>
<path d="M120.171 394.535C120.171 394.535 133.08 395.57 133.47 394.535C133.859 393.501 133.859 371.082 139.334 372.414C144.809 373.746 142.409 400.708 139.334 403.848C136.259 406.988 120.171 408.748 120.171 408.748C120.171 408.748 118.069 398.734 120.171 394.535Z" fill="#132EBA"/>
<path opacity="0.4" d="M120.171 394.535C120.171 394.535 133.08 395.57 133.47 394.535C133.859 393.501 133.859 371.082 139.334 372.414C144.809 373.746 142.409 400.708 139.334 403.848C136.259 406.988 120.171 408.748 120.171 408.748C120.171 408.748 118.069 398.734 120.171 394.535Z" fill="white"/>
<path d="M111.984 444.322C111.041 436.829 110.176 429.329 109.389 421.82C108.602 414.311 107.949 406.779 107.43 399.222C106.885 391.694 106.508 384.154 106.405 376.625C106.405 372.843 106.405 369.061 106.638 365.279C106.752 363.374 106.981 361.476 107.326 359.594C107.501 358.625 107.774 357.673 108.143 356.751C108.342 356.241 108.636 355.766 109.012 355.348C109.138 355.228 109.272 355.117 109.415 355.015C109.613 354.902 109.833 354.826 110.063 354.789C110.292 354.78 110.519 354.819 110.729 354.904C110.938 354.988 111.123 355.116 111.27 355.276C111.917 356.134 112.359 357.106 112.568 358.131C112.827 359.07 113.035 360.01 113.203 360.95C113.541 362.817 113.8 364.708 114.008 366.587C114.436 370.345 114.734 374.116 114.981 377.886C115.457 385.426 115.781 392.959 115.954 400.483C116.127 408.008 116.231 415.54 116.265 423.081C116.265 430.621 116.213 438.153 116.11 445.678C116.006 438.138 115.846 430.605 115.63 423.081C115.461 415.54 115.253 408 114.955 400.483C114.656 392.967 114.345 385.414 113.813 377.886C113.541 374.127 113.229 370.369 112.775 366.635C112.555 364.767 112.295 362.912 111.945 361.069C111.776 360.153 111.568 359.237 111.322 358.345C111.151 357.499 110.803 356.691 110.297 355.966C110.193 355.835 110.141 355.871 110.18 355.847C110.219 355.824 110.18 355.847 110.18 355.847L110.024 355.978C109.749 356.298 109.53 356.655 109.376 357.037C109.034 357.885 108.782 358.761 108.623 359.653C108.277 361.487 108.043 363.338 107.923 365.196C107.663 368.942 107.611 372.7 107.637 376.459C107.637 383.987 108.078 391.516 108.481 399.056C108.883 406.596 109.454 414.101 110.063 421.653C110.673 429.206 111.257 436.817 111.984 444.322Z" fill="#132EBA"/>
<path d="M121.793 399.852C123.466 399.709 125.127 399.602 126.788 399.435C128.448 399.269 130.096 399.126 131.731 398.876C132.531 398.752 133.324 398.589 134.105 398.389C134.832 398.246 135.701 397.77 135.403 397.699C135.334 396.907 135.334 396.112 135.403 395.32C135.403 394.547 135.507 393.786 135.585 393.013C135.883 389.956 136.272 386.912 136.791 383.879C137.247 380.837 137.88 377.82 138.685 374.84C138.504 376.362 138.361 377.885 138.231 379.419L137.777 383.986L136.869 393.12C136.696 394.597 136.609 396.082 136.61 397.568V397.735C136.616 397.838 136.616 397.941 136.61 398.044C136.564 398.225 136.471 398.392 136.337 398.531C136.156 398.741 135.919 398.905 135.649 399.007C135.236 399.195 134.801 399.339 134.352 399.435C133.499 399.621 132.631 399.749 131.757 399.816C128.442 400.078 125.109 400.09 121.793 399.852Z" fill="#132EBA"/>
<path d="M121.793 405.025L127.307 403.907C129.136 403.55 130.979 403.194 132.795 402.789C134.587 402.438 136.351 401.977 138.076 401.41C138.193 401.365 138.302 401.305 138.4 401.231C138.489 401.089 138.558 400.937 138.608 400.779C138.747 400.391 138.856 399.993 138.932 399.59C139.101 398.769 139.217 397.925 139.321 397.081C139.762 393.691 139.97 390.254 140.242 386.817L140.619 381.667L141.047 376.517C141.267 379.966 141.293 383.415 141.241 386.864C141.19 390.313 141.021 393.762 140.619 397.211C140.502 398.08 140.372 398.948 140.178 399.816C140.082 400.264 139.952 400.705 139.788 401.136C139.701 401.393 139.574 401.637 139.412 401.862C139.201 402.108 138.918 402.294 138.595 402.397C136.773 402.975 134.896 403.397 132.99 403.658C129.279 404.276 125.542 404.74 121.793 405.025Z" fill="#132EBA"/>
<path d="M101.436 420.011C98.1083 420.159 94.7771 419.806 91.5749 418.964C91.1485 418.832 90.7394 418.656 90.3552 418.441C90.1142 418.317 89.9094 418.141 89.7584 417.929C89.6161 417.751 89.5025 417.555 89.4211 417.347C89.1056 416.609 88.8709 415.844 88.7204 415.063C88.43 413.563 88.2221 412.051 88.0977 410.532C87.8382 407.511 87.7344 404.49 87.7603 401.481C87.7863 398.472 87.8771 395.451 88.1755 392.442L88.4999 396.949L88.7594 401.457C88.967 404.454 89.1097 407.404 89.3822 410.437C89.5119 411.923 89.6676 413.41 89.9271 414.861C90.0372 415.568 90.2152 416.264 90.459 416.942C90.5169 417.091 90.5907 417.235 90.6796 417.37C90.7496 417.471 90.8426 417.556 90.9521 417.62C91.2643 417.813 91.5943 417.98 91.9382 418.12C93.436 418.666 94.9931 419.065 96.5831 419.309C98.1789 419.594 99.8137 419.797 101.436 420.011Z" fill="#132EBA"/>
<path d="M85.7881 395.261C85.9697 397.021 86.0865 398.829 86.2552 400.53L86.6444 405.81C86.9169 409.378 87.1374 412.827 87.4358 416.324C87.5915 418.072 87.7472 419.833 87.9938 421.545C88.0817 422.375 88.2555 423.196 88.5127 423.995C88.7203 424.685 89.4858 425.078 90.2903 425.458C92.0435 426.099 93.8723 426.55 95.7396 426.802C97.6209 427.135 99.5282 427.337 101.435 427.54C97.5447 427.752 93.6431 427.35 89.901 426.35C89.4139 426.169 88.9486 425.942 88.5127 425.672C88.0339 425.391 87.6692 424.973 87.4748 424.483C87.1425 423.608 86.912 422.703 86.7871 421.783C86.4757 420.011 86.32 418.215 86.1514 416.491C85.8659 412.923 85.6973 409.438 85.6454 405.917C85.5935 402.397 85.6324 398.793 85.7881 395.261Z" fill="#132EBA"/>
<path d="M384.866 146.761V323.009C384.866 323.867 384.494 324.69 383.832 325.296C383.17 325.903 382.272 326.244 381.337 326.244H102.681C101.745 326.244 100.847 325.903 100.185 325.296C99.5237 324.69 99.1518 323.867 99.1518 323.009V146.761C99.1518 145.903 99.5237 145.08 100.185 144.473C100.847 143.866 101.745 143.526 102.681 143.526H381.337C382.272 143.526 383.17 143.866 383.832 144.473C384.494 145.08 384.866 145.903 384.866 146.761Z" fill="#132EBA"/>
<path opacity="0.4" d="M384.866 154.456V323.009C384.866 323.867 384.494 324.689 383.832 325.296C383.17 325.903 382.272 326.244 381.337 326.244H102.681C101.745 326.244 100.847 325.903 100.185 325.296C99.5237 324.689 99.1518 323.867 99.1518 323.009V154.456H384.866Z" fill="white"/>
<path opacity="0.2" d="M384.866 315.837V322.973C384.866 323.398 384.774 323.818 384.597 324.211C384.42 324.603 384.16 324.96 383.832 325.261C383.504 325.561 383.115 325.799 382.687 325.962C382.259 326.124 381.8 326.208 381.337 326.208H102.681C102.217 326.208 101.759 326.124 101.33 325.962C100.902 325.799 100.513 325.561 100.185 325.261C99.8578 324.96 99.5978 324.603 99.4205 324.211C99.2431 323.818 99.1518 323.398 99.1518 322.973V315.837H384.866Z" fill="black"/>
<path opacity="0.4" d="M377.782 151.506C379.129 151.506 380.221 150.505 380.221 149.27C380.221 148.035 379.129 147.034 377.782 147.034C376.434 147.034 375.342 148.035 375.342 149.27C375.342 150.505 376.434 151.506 377.782 151.506Z" fill="white"/>
<path opacity="0.4" d="M368.544 151.506C369.891 151.506 370.983 150.505 370.983 149.27C370.983 148.035 369.891 147.034 368.544 147.034C367.196 147.034 366.104 148.035 366.104 149.27C366.104 150.505 367.196 151.506 368.544 151.506Z" fill="white"/>
<path opacity="0.4" d="M361.745 149.27C361.745 149.712 361.602 150.145 361.334 150.512C361.066 150.88 360.685 151.167 360.239 151.336C359.793 151.505 359.303 151.549 358.83 151.463C358.357 151.377 357.922 151.164 357.581 150.851C357.24 150.539 357.007 150.14 356.913 149.706C356.819 149.273 356.867 148.823 357.052 148.414C357.237 148.006 357.549 147.657 357.95 147.411C358.352 147.165 358.823 147.034 359.306 147.034C359.953 147.034 360.573 147.27 361.03 147.689C361.488 148.108 361.745 148.677 361.745 149.27Z" fill="white"/>
<path opacity="0.2" d="M384.866 154.456H99.1518V165.053H384.866V154.456Z" fill="black"/>
<path d="M109.467 160.237H104.277C104.105 160.237 103.94 160.174 103.818 160.062C103.697 159.951 103.628 159.799 103.628 159.642C103.628 159.484 103.697 159.332 103.818 159.221C103.94 159.109 104.105 159.047 104.277 159.047H109.467C109.639 159.047 109.804 159.109 109.926 159.221C110.047 159.332 110.116 159.484 110.116 159.642C110.116 159.799 110.047 159.951 109.926 160.062C109.804 160.174 109.639 160.237 109.467 160.237Z" fill="white"/>
<path d="M105.808 162.162C105.637 162.16 105.473 162.096 105.354 161.984L103.252 160.057C103.191 160.002 103.143 159.936 103.11 159.864C103.077 159.791 103.06 159.714 103.06 159.635C103.06 159.557 103.077 159.479 103.11 159.406C103.143 159.334 103.191 159.268 103.252 159.213L105.354 157.286C105.476 157.174 105.641 157.111 105.814 157.111C105.987 157.111 106.153 157.174 106.275 157.286C106.397 157.398 106.466 157.55 106.466 157.708C106.466 157.867 106.397 158.019 106.275 158.131L104.627 159.641L106.275 161.14C106.395 161.253 106.461 161.404 106.461 161.562C106.461 161.719 106.395 161.871 106.275 161.984C106.151 162.098 105.983 162.162 105.808 162.162Z" fill="white"/>
<path d="M379.585 157.858H374.071C373.899 157.858 373.734 157.795 373.612 157.684C373.49 157.572 373.422 157.421 373.422 157.263C373.422 157.105 373.49 156.954 373.612 156.842C373.734 156.731 373.899 156.668 374.071 156.668H379.585C379.757 156.668 379.922 156.731 380.044 156.842C380.165 156.954 380.234 157.105 380.234 157.263C380.234 157.421 380.165 157.572 380.044 157.684C379.922 157.795 379.757 157.858 379.585 157.858Z" fill="white"/>
<path d="M379.585 160.237H374.071C373.899 160.237 373.734 160.174 373.612 160.062C373.49 159.951 373.422 159.799 373.422 159.642C373.422 159.484 373.49 159.332 373.612 159.221C373.734 159.109 373.899 159.047 374.071 159.047H379.585C379.757 159.047 379.922 159.109 380.044 159.221C380.165 159.332 380.234 159.484 380.234 159.642C380.234 159.799 380.165 159.951 380.044 160.062C379.922 160.174 379.757 160.237 379.585 160.237Z" fill="white"/>
<path d="M379.585 162.615H374.071C373.899 162.615 373.734 162.553 373.612 162.441C373.49 162.329 373.422 162.178 373.422 162.02C373.422 161.862 373.49 161.711 373.612 161.6C373.734 161.488 373.899 161.425 374.071 161.425H379.585C379.757 161.425 379.922 161.488 380.044 161.6C380.165 161.711 380.234 161.862 380.234 162.02C380.234 162.178 380.165 162.329 380.044 162.441C379.922 162.553 379.757 162.615 379.585 162.615Z" fill="white"/>
<path d="M170.616 183.595H113.645C113.3 183.595 112.97 183.469 112.727 183.246C112.484 183.023 112.347 182.721 112.347 182.405C112.347 182.09 112.484 181.787 112.727 181.564C112.97 181.341 113.3 181.216 113.645 181.216H170.616C170.96 181.216 171.29 181.341 171.534 181.564C171.777 181.787 171.914 182.09 171.914 182.405C171.914 182.721 171.777 183.023 171.534 183.246C171.29 183.469 170.96 183.595 170.616 183.595Z" fill="white"/>
<path d="M216.3 195.987H113.645C113.3 195.987 112.97 195.862 112.727 195.639C112.484 195.416 112.347 195.114 112.347 194.798C112.347 194.483 112.484 194.18 112.727 193.957C112.97 193.734 113.3 193.609 113.645 193.609H216.3C216.644 193.609 216.974 193.734 217.217 193.957C217.46 194.18 217.597 194.483 217.597 194.798C217.597 195.114 217.46 195.416 217.217 195.639C216.974 195.862 216.644 195.987 216.3 195.987Z" fill="white"/>
<path d="M216.3 203.647H113.645C113.3 203.647 112.97 203.521 112.727 203.298C112.484 203.075 112.347 202.773 112.347 202.457C112.347 202.142 112.484 201.839 112.727 201.616C112.97 201.393 113.3 201.268 113.645 201.268H216.3C216.644 201.268 216.974 201.393 217.217 201.616C217.46 201.839 217.597 202.142 217.597 202.457C217.597 202.773 217.46 203.075 217.217 203.298C216.974 203.521 216.644 203.647 216.3 203.647Z" fill="white"/>
<path d="M216.3 211.318H113.645C113.3 211.318 112.97 211.193 112.727 210.97C112.484 210.746 112.347 210.444 112.347 210.129C112.347 209.813 112.484 209.511 112.727 209.288C112.97 209.065 113.3 208.939 113.645 208.939H216.3C216.644 208.939 216.974 209.065 217.217 209.288C217.46 209.511 217.597 209.813 217.597 210.129C217.597 210.444 217.46 210.746 217.217 210.97C216.974 211.193 216.644 211.318 216.3 211.318Z" fill="white"/>
<path d="M216.3 218.977H113.645C113.3 218.977 112.97 218.852 112.727 218.629C112.484 218.406 112.347 218.103 112.347 217.788C112.347 217.473 112.484 217.17 112.727 216.947C112.97 216.724 113.3 216.599 113.645 216.599H216.3C216.644 216.599 216.974 216.724 217.217 216.947C217.46 217.17 217.597 217.473 217.597 217.788C217.597 218.103 217.46 218.406 217.217 218.629C216.974 218.852 216.644 218.977 216.3 218.977Z" fill="white"/>
<path d="M216.3 226.637H113.645C113.3 226.637 112.97 226.511 112.727 226.288C112.484 226.065 112.347 225.763 112.347 225.447C112.347 225.132 112.484 224.829 112.727 224.606C112.97 224.383 113.3 224.258 113.645 224.258H216.3C216.644 224.258 216.974 224.383 217.217 224.606C217.46 224.829 217.597 225.132 217.597 225.447C217.597 225.763 217.46 226.065 217.217 226.288C216.974 226.511 216.644 226.637 216.3 226.637Z" fill="white"/>
<path d="M216.3 234.308H113.645C113.3 234.308 112.97 234.183 112.727 233.96C112.484 233.736 112.347 233.434 112.347 233.119C112.347 232.803 112.484 232.501 112.727 232.278C112.97 232.055 113.3 231.929 113.645 231.929H216.3C216.644 231.929 216.974 232.055 217.217 232.278C217.46 232.501 217.597 232.803 217.597 233.119C217.597 233.434 217.46 233.736 217.217 233.96C216.974 234.183 216.644 234.308 216.3 234.308Z" fill="white"/>
<path d="M216.3 241.967H113.645C113.3 241.967 112.97 241.842 112.727 241.619C112.484 241.396 112.347 241.093 112.347 240.778C112.347 240.463 112.484 240.16 112.727 239.937C112.97 239.714 113.3 239.589 113.645 239.589H216.3C216.644 239.589 216.974 239.714 217.217 239.937C217.46 240.16 217.597 240.463 217.597 240.778C217.597 241.093 217.46 241.396 217.217 241.619C216.974 241.842 216.644 241.967 216.3 241.967Z" fill="white"/>
<path d="M216.3 249.626H113.645C113.3 249.626 112.97 249.501 112.727 249.278C112.484 249.055 112.347 248.752 112.347 248.437C112.347 248.122 112.484 247.819 112.727 247.596C112.97 247.373 113.3 247.248 113.645 247.248H216.3C216.644 247.248 216.974 247.373 217.217 247.596C217.46 247.819 217.597 248.122 217.597 248.437C217.597 248.752 217.46 249.055 217.217 249.278C216.974 249.501 216.644 249.626 216.3 249.626Z" fill="white"/>
<path opacity="0.4" d="M370.36 178.468H234.71V248.449H370.36V178.468Z" fill="white"/>
<path d="M234.71 234.367L267.796 228.361L272.934 230.942L286.272 226.791L296.885 229.301L311.261 208.737L327.583 236.52L343.425 213.447L356.01 220.036L370.36 205.692V248.437H234.71V234.367Z" fill="white"/>
<path d="M234.71 240.778C234.71 240.6 261.957 231.81 261.957 231.81L270.507 234.368L287.271 229.61L296.171 240.956L323.846 213.447L333.72 222.962L343.399 217.741L358.423 225.4L370.334 223.021V248.449H234.71V240.778Z" fill="#132EBA"/>
<path opacity="0.3" d="M210.215 307.309C223.98 307.309 235.139 297.08 235.139 284.462C235.139 271.844 223.98 261.615 210.215 261.615C196.449 261.615 185.29 271.844 185.29 284.462C185.29 297.08 196.449 307.309 210.215 307.309Z" fill="white"/>
<path d="M210.188 284.462H235.113C235.113 288.981 233.651 293.398 230.912 297.156C228.173 300.913 224.281 303.841 219.726 305.57C215.172 307.3 210.161 307.752 205.326 306.871C200.491 305.989 196.05 303.813 192.564 300.618C189.079 297.423 186.705 293.352 185.743 288.92C184.781 284.488 185.275 279.894 187.161 275.719C189.048 271.544 192.242 267.976 196.341 265.466C200.44 262.955 205.259 261.615 210.188 261.615V284.462Z" fill="#132EBA"/>
<path d="M210.214 299.448C219.243 299.448 226.562 292.739 226.562 284.463C226.562 276.186 219.243 269.477 210.214 269.477C201.186 269.477 193.866 276.186 193.866 284.463C193.866 292.739 201.186 299.448 210.214 299.448Z" fill="white"/>
<path d="M215.949 285.652H204.493C204.149 285.652 203.819 285.527 203.575 285.304C203.332 285.081 203.195 284.778 203.195 284.463C203.195 284.147 203.332 283.845 203.575 283.622C203.819 283.399 204.149 283.273 204.493 283.273H215.949C216.293 283.273 216.623 283.399 216.867 283.622C217.11 283.845 217.247 284.147 217.247 284.463C217.247 284.778 217.11 285.081 216.867 285.304C216.623 285.527 216.293 285.652 215.949 285.652Z" fill="#132EBA"/>
<path opacity="0.3" d="M273.79 307.309C287.555 307.309 298.714 297.08 298.714 284.462C298.714 271.844 287.555 261.615 273.79 261.615C260.025 261.615 248.866 271.844 248.866 284.462C248.866 297.08 260.025 307.309 273.79 307.309Z" fill="white"/>
<path d="M273.764 284.462L290.826 301.113C287.862 303.665 284.263 305.514 280.341 306.499C276.419 307.483 272.294 307.573 268.326 306.76C264.357 305.948 260.666 304.257 257.574 301.837C254.482 299.416 252.082 296.339 250.585 292.874C249.088 289.408 248.539 285.66 248.985 281.955C249.432 278.25 250.86 274.701 253.146 271.619C255.432 268.536 258.506 266.013 262.099 264.269C265.693 262.526 269.698 261.614 273.764 261.615V284.462Z" fill="#132EBA"/>
<path d="M273.79 299.448C282.819 299.448 290.138 292.739 290.138 284.463C290.138 276.186 282.819 269.477 273.79 269.477C264.761 269.477 257.442 276.186 257.442 284.463C257.442 292.739 264.761 299.448 273.79 299.448Z" fill="white"/>
<path d="M279.512 285.652H268.055C267.711 285.652 267.381 285.527 267.138 285.304C266.894 285.081 266.758 284.778 266.758 284.463C266.758 284.147 266.894 283.845 267.138 283.622C267.381 283.399 267.711 283.273 268.055 283.273H279.512C279.856 283.273 280.186 283.399 280.429 283.622C280.672 283.845 280.809 284.147 280.809 284.463C280.809 284.778 280.672 285.081 280.429 285.304C280.186 285.527 279.856 285.652 279.512 285.652Z" fill="#132EBA"/>
<path opacity="0.3" d="M337.353 307.309C351.118 307.309 362.277 297.08 362.277 284.462C362.277 271.844 351.118 261.615 337.353 261.615C323.588 261.615 312.429 271.844 312.429 284.462C312.429 297.08 323.588 307.309 337.353 307.309Z" fill="white"/>
<path d="M337.339 284.462H362.264C362.269 288.116 361.319 291.717 359.492 294.964C357.666 298.211 355.016 301.009 351.766 303.124C348.517 305.238 344.761 306.608 340.814 307.117C336.868 307.626 332.846 307.261 329.085 306.051C325.325 304.841 321.936 302.822 319.202 300.164C316.468 297.505 314.47 294.285 313.375 290.772C312.28 287.259 312.119 283.557 312.907 279.976C313.695 276.395 315.409 273.039 317.903 270.19L337.339 284.462Z" fill="#132EBA"/>
<path d="M337.353 299.448C346.381 299.448 353.701 292.739 353.701 284.463C353.701 276.186 346.381 269.477 337.353 269.477C328.324 269.477 321.005 276.186 321.005 284.463C321.005 292.739 328.324 299.448 337.353 299.448Z" fill="white"/>
<path d="M343.088 285.652H331.618C331.274 285.652 330.944 285.527 330.701 285.304C330.457 285.081 330.32 284.778 330.32 284.463C330.32 284.147 330.457 283.845 330.701 283.622C330.944 283.399 331.274 283.273 331.618 283.273H343.088C343.432 283.273 343.762 283.399 344.005 283.622C344.248 283.845 344.385 284.147 344.385 284.463C344.385 284.778 344.248 285.081 344.005 285.304C343.762 285.527 343.432 285.652 343.088 285.652Z" fill="#132EBA"/>
<path opacity="0.3" d="M146.652 307.309C160.417 307.309 171.576 297.08 171.576 284.462C171.576 271.844 160.417 261.615 146.652 261.615C132.886 261.615 121.728 271.844 121.728 284.462C121.728 297.08 132.886 307.309 146.652 307.309Z" fill="white"/>
<path d="M146.613 284.462L168.203 273.057C166.017 269.58 162.871 266.691 159.081 264.683C155.291 262.674 150.991 261.616 146.613 261.615V284.462Z" fill="#132EBA"/>
<path d="M146.652 299.448C155.681 299.448 163 292.739 163 284.463C163 276.186 155.681 269.477 146.652 269.477C137.623 269.477 130.304 276.186 130.304 284.463C130.304 292.739 137.623 299.448 146.652 299.448Z" fill="white"/>
<path d="M152.387 285.652H140.93C140.586 285.652 140.256 285.527 140.013 285.304C139.769 285.081 139.633 284.778 139.633 284.463C139.633 284.147 139.769 283.845 140.013 283.622C140.256 283.399 140.586 283.273 140.93 283.273H152.387C152.731 283.273 153.061 283.399 153.304 283.622C153.548 283.845 153.684 284.147 153.684 284.463C153.684 284.778 153.548 285.081 153.304 285.304C153.061 285.527 152.731 285.652 152.387 285.652Z" fill="#132EBA"/>
<path d="M251.435 123.129C251.179 123.132 250.925 123.087 250.688 122.997C250.452 122.907 250.238 122.774 250.06 122.605C247.924 120.649 245.028 119.551 242.009 119.551C238.99 119.551 236.094 120.649 233.958 122.605C233.593 122.941 233.098 123.131 232.581 123.132C232.064 123.133 231.568 122.946 231.201 122.611C230.835 122.277 230.628 121.823 230.627 121.349C230.626 120.875 230.83 120.42 231.195 120.084C232.614 118.783 234.299 117.751 236.153 117.047C238.008 116.342 239.995 115.98 242.002 115.98C244.01 115.98 245.997 116.342 247.852 117.047C249.706 117.751 251.391 118.783 252.81 120.084C253.172 120.42 253.374 120.873 253.374 121.345C253.374 121.816 253.172 122.269 252.81 122.605C252.631 122.772 252.416 122.904 252.18 122.994C251.944 123.084 251.691 123.13 251.435 123.129Z" fill="#132EBA"/>
<path d="M258.363 116.778C258.105 116.78 257.85 116.734 257.611 116.645C257.373 116.555 257.157 116.422 256.975 116.254C253.001 112.62 247.616 110.579 242.002 110.579C236.389 110.579 231.004 112.62 227.03 116.254C226.661 116.569 226.173 116.741 225.669 116.733C225.164 116.725 224.683 116.537 224.327 116.211C223.97 115.884 223.766 115.443 223.757 114.981C223.748 114.518 223.935 114.071 224.279 113.733C228.987 109.433 235.362 107.018 242.009 107.018C248.655 107.018 255.03 109.433 259.739 113.733C260.1 114.069 260.302 114.522 260.302 114.994C260.302 115.465 260.1 115.918 259.739 116.254C259.559 116.421 259.345 116.553 259.109 116.643C258.872 116.733 258.619 116.779 258.363 116.778Z" fill="#132EBA"/>
<path d="M264.785 110.89C264.27 110.886 263.777 110.698 263.41 110.367C260.6 107.788 257.263 105.742 253.59 104.346C249.916 102.95 245.979 102.231 242.002 102.231C238.026 102.231 234.088 102.95 230.415 104.346C226.741 105.742 223.404 107.788 220.594 110.367C220.227 110.698 219.733 110.884 219.219 110.884C218.704 110.884 218.21 110.698 217.843 110.367C217.661 110.202 217.517 110.006 217.418 109.789C217.32 109.573 217.269 109.341 217.269 109.106C217.269 108.872 217.32 108.639 217.418 108.423C217.517 108.207 217.661 108.01 217.843 107.845C221.014 104.934 224.78 102.624 228.925 101.048C233.071 99.4725 237.514 98.6614 242.002 98.6614C246.49 98.6614 250.934 99.4725 255.079 101.048C259.224 102.624 262.99 104.934 266.161 107.845C266.433 108.095 266.618 108.413 266.693 108.759C266.768 109.104 266.729 109.463 266.582 109.789C266.435 110.114 266.186 110.393 265.866 110.589C265.546 110.785 265.17 110.89 264.785 110.89Z" fill="#132EBA"/>
<path d="M245.765 129.587C245.765 130.269 245.544 130.936 245.131 131.503C244.717 132.07 244.13 132.512 243.442 132.773C242.755 133.034 241.998 133.102 241.268 132.969C240.538 132.836 239.868 132.508 239.342 132.025C238.816 131.543 238.457 130.928 238.312 130.259C238.167 129.59 238.241 128.897 238.526 128.267C238.811 127.636 239.293 127.098 239.912 126.719C240.531 126.34 241.258 126.137 242.002 126.137C242.497 126.136 242.987 126.224 243.444 126.397C243.902 126.57 244.317 126.824 244.667 127.144C245.017 127.465 245.294 127.846 245.482 128.265C245.671 128.684 245.767 129.133 245.765 129.587Z" fill="#132EBA"/>
<path d="M543.13 453.312H324.521V474.411H543.13V453.312Z" fill="#132EBA"/>
<path opacity="0.4" d="M543.13 453.312H324.521V474.411H543.13V453.312Z" fill="white"/>
<path opacity="0.2" d="M457.458 453.312H324.521V474.411H457.458V453.312Z" fill="white"/>
<path d="M405.469 402.397H551.421L573.659 297.069C574.231 294.369 574.145 291.585 573.405 288.919C572.666 286.252 571.292 283.769 569.382 281.647C567.473 279.524 565.074 277.816 562.359 276.643C559.644 275.47 556.679 274.863 553.678 274.864H449.194C444.467 274.866 439.887 276.375 436.241 279.133C432.596 281.891 430.111 285.727 429.213 289.981L405.469 402.397Z" fill="#132EBA"/>
<path opacity="0.3" d="M510.006 402.397H551.524L573.763 297.069C574.335 294.369 574.248 291.585 573.509 288.919C572.77 286.252 571.396 283.769 569.486 281.647C567.576 279.524 565.178 277.816 562.463 276.643C559.748 275.47 556.783 274.863 553.782 274.864C549.055 274.866 544.475 276.375 540.83 279.133C537.184 281.891 534.699 285.727 533.801 289.981L510.006 402.397Z" fill="black"/>
<path d="M546.737 401.101H319.149C313.481 401.101 308.886 405.313 308.886 410.508V447.188C308.886 452.383 313.481 456.595 319.149 456.595H546.737C552.405 456.595 557 452.383 557 447.188V410.508C557 405.313 552.405 401.101 546.737 401.101Z" fill="#132EBA"/>
<path opacity="0.3" d="M546.737 401.101H458.237C452.569 401.101 447.974 405.313 447.974 410.508V447.188C447.974 452.383 452.569 456.595 458.237 456.595H546.737C552.405 456.595 557 452.383 557 447.188V410.508C557 405.313 552.405 401.101 546.737 401.101Z" fill="black"/>
<path d="M441.253 284.902C432.586 285.473 429.576 323.056 429.005 324.698C428.434 326.339 405.469 358.57 405.469 358.57L410.179 363.042C410.179 363.042 441.746 335.759 442.771 325.875C443.796 315.992 448.921 284.391 441.253 284.902Z" fill="#263238"/>
<path opacity="0.2" d="M444.224 313.708C443.667 318.668 443.057 323.116 442.771 325.875C442.46 328.896 439.307 333.523 435.077 338.494C428.966 326.517 438.386 299.995 438.386 299.995C438.386 299.995 441.318 306.061 444.224 313.708Z" fill="black"/>
<path d="M397.088 462.495L405.625 459.378L402.291 447.973L399.216 437.507L388.421 439.695L393.001 451.779L397.088 462.495Z" fill="#EBB376"/>
<path opacity="0.2" d="M393.105 452.016L402.381 448.187L399.254 437.613L388.434 439.754L393.105 452.016Z" fill="black"/>
<path d="M461.688 359.724C461.688 359.724 390.328 350.911 370.503 362.507C350.678 374.103 389.07 444.821 389.07 444.821L401.084 442.383C401.084 442.383 392.08 386.341 392.754 383.998C393.429 381.655 427.02 396.938 473.015 398.389L461.688 359.724Z" fill="#132EBA"/>
<path opacity="0.5" d="M461.688 359.724C461.688 359.724 390.328 350.911 370.503 362.507C350.678 374.103 389.07 444.821 389.07 444.821L401.084 442.383C401.084 442.383 392.08 386.341 392.754 383.998C393.429 381.655 427.02 396.938 473.015 398.389L461.688 359.724Z" fill="white"/>
<path d="M320.161 458.998L326.778 464.849L336.756 457.368L345.89 450.494L339.273 442.383L329.153 451.172L320.161 458.998Z" fill="#EBB376"/>
<path d="M329.373 465.837C330.178 465.266 322.146 456.524 322.146 456.524C322.146 456.524 311.326 455.121 305.5 450.577C299.674 446.034 298.559 451.541 303.489 457.713L315.711 472.877C319.175 477.207 321.083 471.783 329.373 465.837Z" fill="#2E353A"/>
<path d="M320.187 456.393C320.136 456.404 320.083 456.404 320.032 456.393C319.227 456 315.218 454.014 315.296 452.492C315.296 452.206 315.478 451.814 316.178 451.552C316.347 451.488 316.528 451.454 316.71 451.454C316.893 451.454 317.074 451.488 317.242 451.552C318.07 452.027 318.739 452.702 319.175 453.503C318.994 452.444 318.981 451.398 319.5 451.005C319.691 450.886 319.917 450.822 320.148 450.822C320.38 450.822 320.606 450.886 320.797 451.005C321.045 451.127 321.261 451.296 321.432 451.501C321.602 451.707 321.722 451.943 321.783 452.195C322.211 453.824 320.486 456.167 320.486 456.274C320.434 456.335 320.361 456.377 320.278 456.393H320.187ZM316.658 452.016C316.577 452.004 316.493 452.004 316.412 452.016C315.932 452.195 315.932 452.385 315.919 452.444C315.919 453.158 317.826 454.49 319.552 455.418C318.968 454.228 317.943 452.432 316.957 452.04C316.86 452.014 316.759 452.006 316.658 452.016ZM320.045 451.41C319.998 451.397 319.949 451.397 319.902 451.41C319.461 451.754 319.746 453.61 320.278 455.37C320.933 454.463 321.252 453.387 321.186 452.302C321.132 452.139 321.04 451.989 320.917 451.862C320.794 451.735 320.642 451.633 320.473 451.564C320.344 451.486 320.198 451.433 320.045 451.41Z" fill="#577AFA"/>
<path opacity="0.2" d="M328.958 451.362L336.574 457.535L345.799 450.577L339.234 442.419L328.958 451.362Z" fill="black"/>
<path d="M441.448 368.18C441.448 368.18 442.473 355.24 442.953 352.6C443.345 349.986 443.925 347.4 444.692 344.857C447.831 336.222 489.778 346.367 489.778 346.367C489.778 346.367 514.586 380.62 497.252 396.783C493.359 400.351 485.873 401.981 478.166 401.921C478.166 401.921 454.643 402.956 410.906 401.089C410.906 401.089 395.505 422.104 342.14 455.525L333.434 447.199C333.434 447.199 393.779 383.617 395.713 382.143C413.215 369.203 441.448 368.18 441.448 368.18Z" fill="#132EBA"/>
<path opacity="0.6" d="M441.448 368.18C441.448 368.18 442.473 355.24 442.953 352.6C443.345 349.986 443.925 347.4 444.692 344.857C447.831 336.222 489.778 346.367 489.778 346.367C489.778 346.367 514.586 380.62 497.252 396.783C493.359 400.351 485.873 401.981 478.166 401.921C478.166 401.921 454.643 402.956 410.906 401.089C410.906 401.089 395.505 422.104 342.14 455.525L333.434 447.199C333.434 447.199 393.779 383.617 395.713 382.143C413.215 369.203 441.448 368.18 441.448 368.18Z" fill="white"/>
<path d="M346.123 454.264L335.432 443.477L330.269 448.341L340.285 458.165L346.123 454.264Z" fill="#132EBA"/>
<path d="M493.489 297.129C489.35 308.535 489.156 334.272 490.622 348.508L443.732 348.235C435.661 319.857 438.386 299.948 439.074 293.299C439.93 285.2 441.292 284.902 441.292 284.902C441.292 284.902 450.868 284.046 459.197 284.106C465.646 284.307 472.072 284.927 478.426 285.961C483.151 286.684 487.83 287.649 492.438 288.851C492.923 288.978 493.374 289.194 493.765 289.486C494.156 289.777 494.479 290.139 494.713 290.548C494.947 290.957 495.088 291.406 495.128 291.866C495.167 292.327 495.104 292.79 494.942 293.228C494.41 294.572 493.93 295.88 493.489 297.129Z" fill="#263238"/>
<path opacity="0.1" d="M443.731 348.235L472.029 348.401L490.661 348.508C489.438 335.257 489.564 321.931 491.037 308.701C491.459 304.783 492.294 300.912 493.528 297.141C493.969 295.88 494.449 294.572 494.942 293.24C495.106 292.801 495.17 292.337 495.132 291.875C495.094 291.413 494.953 290.963 494.719 290.552C494.484 290.142 494.161 289.779 493.769 289.487C493.377 289.194 492.924 288.978 492.438 288.851C487.83 287.649 483.151 286.684 478.425 285.961C472.072 284.927 465.646 284.307 459.197 284.106C450.867 284.106 441.292 284.902 441.292 284.902C441.292 284.902 439.995 285.212 439.074 293.299C438.347 299.948 435.622 319.857 443.731 348.235Z" fill="white"/>
<path opacity="0.2" d="M490.622 348.508C489.399 335.257 489.525 321.931 490.998 308.701C485.25 316.218 475.065 331.441 471.99 348.401L490.622 348.508Z" fill="black"/>
<path d="M460.041 363.91C460.041 363.91 448.363 370.892 446.988 371.451C445.613 372.01 436.959 373.948 434.468 373.829C431.977 373.71 435.311 366.574 437.452 365.647C439.593 364.719 447.248 365.992 447.248 365.992L456.33 359.736L460.041 363.91Z" fill="#E4897B"/>
<path d="M379.948 371.45V374.947C379.948 375.839 381.103 376.208 382.076 376.208H458.237C459.223 376.208 460.391 375.839 460.391 374.947V371.45H379.948Z" fill="#263238"/>
<path opacity="0.4" d="M379.948 371.45V374.947C379.948 375.839 381.103 376.208 382.076 376.208H458.237C459.223 376.208 460.391 375.839 460.391 374.947V371.45H379.948Z" fill="white"/>
<path opacity="0.2" d="M379.948 371.45V374.947C379.948 375.839 381.103 376.208 382.076 376.208H432.314C433.287 376.208 434.442 375.839 434.442 374.947V371.45H379.948Z" fill="black"/>
<path d="M367.181 335.176L376.263 372.878C376.429 373.482 376.807 374.019 377.34 374.406C377.872 374.793 378.529 375.009 379.209 375.019H428.733C429.043 375.013 429.348 374.941 429.622 374.809C429.897 374.677 430.135 374.488 430.316 374.258C430.497 374.027 430.617 373.76 430.667 373.48C430.716 373.199 430.694 372.911 430.601 372.64L421.519 335.223C421.336 334.651 420.942 334.155 420.405 333.819C419.868 333.483 419.221 333.328 418.574 333.38H369.076C367.752 333.392 366.909 333.939 367.181 335.176Z" fill="#263238"/>
<path opacity="0.4" d="M367.181 335.176L376.263 372.878C376.429 373.482 376.807 374.019 377.34 374.406C377.872 374.793 378.529 375.009 379.209 375.019H427.059C427.369 375.013 427.674 374.941 427.949 374.809C428.223 374.677 428.461 374.488 428.642 374.258C428.823 374.027 428.944 373.76 428.993 373.48C429.043 373.199 429.02 372.911 428.927 372.64L419.845 335.223C419.662 334.651 419.268 334.155 418.732 333.819C418.195 333.483 417.548 333.328 416.9 333.38H369.076C367.752 333.392 366.909 333.939 367.181 335.176Z" fill="white"/>
<path opacity="0.2" d="M391.625 354.336C391.625 357.559 395.401 360.187 398.178 360.187C400.954 360.187 402.576 357.559 401.797 354.336C401.019 351.113 398.255 348.591 395.544 348.496C396.335 351.719 394.636 354.336 391.885 354.336H391.625Z" fill="black"/>
<path d="M494.41 290.171C485.108 283.332 488.637 321.879 484.251 330.668C479.866 339.457 453.709 360.199 453.709 360.199L459.301 365.932C459.301 365.932 491.219 349.792 495.695 338.969C501.404 325.28 501.287 295.226 494.41 290.171Z" fill="#263238"/>
<path d="M453.709 360.199L450.128 362.97L455.046 368.465L459.327 365.98L453.709 360.199Z" fill="#132EBA"/>
<path d="M401.746 438.862L386.63 443.358L389.342 449.673L403.225 445.344L401.746 438.862Z" fill="#132EBA"/>
<path d="M387.694 464.029C387.346 464.05 387 463.966 386.708 463.791C386.526 463.648 386.396 463.458 386.333 463.246C386.271 463.034 386.279 462.809 386.358 462.601C386.397 462.437 386.474 462.282 386.584 462.146C386.693 462.011 386.833 461.899 386.994 461.817C387.884 461.451 388.869 461.323 389.835 461.448C388.784 460.984 387.837 460.401 387.785 459.795C387.785 459.414 388.006 459.093 388.551 458.831C388.792 458.708 389.061 458.636 389.337 458.619C389.613 458.603 389.889 458.643 390.147 458.736C391.859 459.331 392.988 461.935 393.04 462.066C393.052 462.101 393.052 462.139 393.04 462.173C393.04 462.173 393.04 462.233 393.04 462.257C393.042 462.284 393.042 462.312 393.04 462.34L392.936 462.411C391.312 463.241 389.535 463.789 387.694 464.029ZM389.057 461.995C388.458 461.958 387.858 462.064 387.318 462.304C387.231 462.346 387.156 462.405 387.097 462.477C387.039 462.549 386.999 462.632 386.981 462.72C386.864 463.184 386.981 463.291 387.085 463.339C387.694 463.767 389.991 463.053 391.807 462.268C390.9 462.107 389.98 462.015 389.057 461.995ZM389.459 459.188C389.24 459.191 389.026 459.244 388.836 459.343C388.667 459.414 388.382 459.581 388.408 459.747C388.408 460.27 390.289 461.115 392.171 461.698C391.726 460.701 390.938 459.866 389.926 459.319C389.779 459.252 389.621 459.208 389.459 459.188Z" fill="#577AFA"/>
<path d="M407.403 459.176C407.403 458.248 394.934 459.354 394.934 459.354C394.934 459.354 387.538 466.74 380.169 468.572C372.799 470.403 377.094 474.364 385.359 474.102L405.91 473.46C411.827 473.282 407.973 468.786 407.403 459.176Z" fill="#2E353A"/>
<path d="M468.059 282.083C468.059 282.083 479.464 281.239 482.331 286.615C485.198 291.991 479.736 299.995 479.736 299.995L471.497 294.345L454.552 299.995L450.128 294.571L446.819 296.225C446.819 296.225 446.638 279.681 468.059 282.083Z" fill="#132EBA"/>
<path opacity="0.2" d="M468.059 282.083C468.059 282.083 479.464 281.239 482.331 286.615C485.198 291.991 479.736 299.995 479.736 299.995L471.497 294.345L454.552 299.995L450.128 294.571L446.819 296.225C446.819 296.225 446.638 279.681 468.059 282.083Z" fill="white"/>
<path d="M476.414 287.436C476.414 287.436 472.12 293.061 455.928 298.08C455.928 298.08 448.714 289.672 459.677 285.83C459.677 285.83 461.961 285.176 462.454 281.846C462.686 279.497 462.353 277.13 461.481 274.912C461.364 274.555 461.221 274.175 461.079 273.794L474.416 266.147C474.416 266.147 469.681 281.608 476.414 287.436Z" fill="#E4897B"/>
<path opacity="0.2" d="M471.419 270.547C471.419 270.547 470.705 279.289 462.454 281.81C462.685 279.461 462.353 277.095 461.481 274.876C466.346 272.521 471.419 270.547 471.419 270.547Z" fill="black"/>
<path d="M454.319 244.952C453.942 241.94 454.777 238.905 456.666 236.415C458.555 233.926 461.369 232.154 464.582 231.43C467.447 230.677 470.474 230.604 473.378 231.216C478.129 232.225 482.376 234.657 485.45 238.127C488.523 241.597 490.247 245.907 490.349 250.376C490.713 260.378 488.169 273.164 472.418 272.01C446.845 270.131 454.319 244.952 454.319 244.952Z" fill="#263238"/>
<path d="M467.903 241.289C456.901 240.35 452.801 245.44 450.932 255.775C448.597 268.692 450.79 278.194 464.841 276.601C483.953 274.436 486.197 242.859 467.903 241.289Z" fill="#E4897B"/>
<path d="M458.107 255.823C457.07 257.255 455.85 258.568 454.474 259.736C454.755 260.18 455.164 260.545 455.656 260.791C456.148 261.036 456.704 261.153 457.264 261.127L458.107 255.823Z" fill="#DE5753"/>
<path d="M464.932 255.573C464.828 256.406 465.23 257.131 465.827 257.191C466.424 257.25 467.008 256.644 467.125 255.811C467.241 254.979 466.826 254.265 466.216 254.194C465.607 254.122 465.036 254.753 464.932 255.573Z" fill="#263238"/>
<path d="M466.45 254.265L464.582 253.349C464.582 253.349 465.373 254.967 466.45 254.265Z" fill="#263238"/>
<path d="M453.735 254.194C453.631 255.026 454.02 255.752 454.63 255.811C455.24 255.871 455.798 255.264 455.928 254.431C456.057 253.599 455.629 252.885 455.019 252.814C454.41 252.743 453.839 253.373 453.735 254.194Z" fill="#263238"/>
<path d="M455.253 252.945L453.384 252.029C453.384 252.029 454.111 253.588 455.253 252.945Z" fill="#263238"/>
<path d="M470.368 250.982C470.292 250.98 470.217 250.962 470.149 250.929C470.082 250.896 470.023 250.849 469.979 250.792C469.463 250.231 468.816 249.783 468.087 249.48C467.357 249.178 466.563 249.028 465.762 249.044C465.701 249.045 465.64 249.036 465.583 249.016C465.525 248.995 465.473 248.965 465.428 248.927C465.384 248.888 465.348 248.842 465.323 248.79C465.298 248.739 465.284 248.684 465.282 248.627C465.28 248.567 465.292 248.507 465.317 248.451C465.342 248.395 465.38 248.345 465.428 248.303C465.476 248.262 465.532 248.23 465.595 248.21C465.657 248.19 465.723 248.182 465.788 248.187C466.749 248.158 467.703 248.335 468.575 248.705C469.447 249.075 470.212 249.626 470.81 250.316C470.845 250.362 470.871 250.415 470.884 250.471C470.897 250.526 470.897 250.584 470.885 250.639C470.873 250.695 470.848 250.748 470.813 250.794C470.778 250.841 470.732 250.881 470.68 250.911C470.588 250.968 470.478 250.993 470.368 250.982Z" fill="#263238"/>
<path d="M453.32 248.391C453.235 248.391 453.151 248.37 453.078 248.331C453.005 248.291 452.945 248.233 452.904 248.165C452.873 248.115 452.853 248.06 452.846 248.003C452.839 247.946 452.845 247.889 452.863 247.834C452.882 247.779 452.912 247.729 452.953 247.685C452.993 247.642 453.043 247.607 453.099 247.582C453.822 247.167 454.638 246.91 455.486 246.83C456.334 246.75 457.191 246.848 457.99 247.117C458.046 247.142 458.095 247.176 458.137 247.217C458.178 247.259 458.209 247.308 458.23 247.361C458.25 247.414 458.259 247.47 458.256 247.527C458.253 247.583 458.237 247.638 458.211 247.689C458.185 247.739 458.148 247.785 458.102 247.823C458.056 247.86 458.003 247.889 457.945 247.908C457.829 247.946 457.7 247.94 457.588 247.891C456.92 247.684 456.21 247.616 455.51 247.692C454.81 247.769 454.137 247.987 453.54 248.331C453.474 248.368 453.398 248.389 453.32 248.391Z" fill="#263238"/>
<path d="M478.205 259.332C478.205 259.332 473.898 250.602 475.338 244.263C475.338 244.263 454.345 234.225 451.192 254.432C451.192 254.432 450.907 236.223 469.875 237.436C488.844 238.649 486.172 264.041 475.623 270.737C475.623 270.785 480.865 264.838 478.205 259.332Z" fill="#263238"/>
<path d="M476.168 261.27C476.402 260.116 477.123 259.094 478.175 258.426C479.228 257.757 480.525 257.497 481.786 257.702C485.159 258.333 486.132 264.898 477.491 265.706C476.259 265.837 475.688 264.684 476.168 261.27Z" fill="#E4897B"/>
<path d="M455.564 265.017C456.051 266.143 456.45 267.3 456.758 268.478H457.458C460.611 268.228 461.974 267.157 462.545 266.099C462.811 265.55 462.926 264.95 462.882 264.351C462.869 264.012 462.808 263.676 462.7 263.352C460.829 264.297 458.759 264.865 456.628 265.017C455.979 265.005 455.564 265.017 455.564 265.017Z" fill="#263238"/>
<path d="M456.628 264.921L457.017 265.932C459.976 265.695 462.039 265.159 462.882 264.255C462.869 263.917 462.808 263.581 462.7 263.256C460.829 264.202 458.759 264.77 456.628 264.921Z" fill="white"/>
<path d="M457.459 268.406C460.612 268.156 461.974 267.086 462.545 266.028C461.35 266.143 460.186 266.449 459.106 266.931C458.405 267.256 457.829 267.771 457.459 268.406Z" fill="#DE5753"/>
<path d="M487.054 251.589C487.054 251.589 481.747 243.87 490.739 240.814C499.73 237.757 508.449 248.354 503.051 255.692C501.587 257.755 499.431 259.325 496.908 260.166C494.385 261.006 491.632 261.073 489.065 260.354L487.054 251.589Z" fill="#263238"/>
</svg>
