<svg width="75" height="79" viewBox="0 0 75 79" fill="none" xmlns="http://www.w3.org/2000/svg">
<path d="M37.5 2L47.304 9.15188L59.4409 9.12949L63.168 20.6785L73 27.7931L69.2281 39.3272L73 50.8613L63.168 57.9758L59.4409 69.5248L47.304 69.5024L37.5 76.6543L27.696 69.5024L15.5591 69.5248L11.832 57.9758L2 50.8613L5.77191 39.3272L2 27.7931L11.832 20.6785L15.5591 9.12949L27.696 9.15188L37.5 2Z" fill="#BA1313" stroke="black" stroke-width="4" stroke-linecap="round" stroke-linejoin="round"/>
<path d="M38 39.375L47 48.75M29 48.75L38 39.375L29 48.75ZM47 30L37.9983 39.375L47 30ZM37.9983 39.375L29 30L37.9983 39.375Z" stroke="white" stroke-width="4" stroke-linecap="round" stroke-linejoin="round"/>
</svg>
