<svg width="173" height="81" viewBox="0 0 173 81" fill="none" xmlns="http://www.w3.org/2000/svg">
<path d="M81.5092 40.384C82.1172 40.48 82.6692 40.728 83.1652 41.128C83.6772 41.528 84.0772 42.024 84.3652 42.616C84.6692 43.208 84.8212 43.84 84.8212 44.512C84.8212 45.36 84.6052 46.128 84.1732 46.816C83.7412 47.488 83.1092 48.024 82.2772 48.424C81.4612 48.808 80.4932 49 79.3732 49H73.1332V32.272H79.1332C80.2692 32.272 81.2372 32.464 82.0372 32.848C82.8372 33.216 83.4372 33.72 83.8372 34.36C84.2372 35 84.4372 35.72 84.4372 36.52C84.4372 37.512 84.1652 38.336 83.6212 38.992C83.0932 39.632 82.3892 40.096 81.5092 40.384ZM75.3172 39.496H78.9892C80.0132 39.496 80.8052 39.256 81.3652 38.776C81.9252 38.296 82.2052 37.632 82.2052 36.784C82.2052 35.936 81.9252 35.272 81.3652 34.792C80.8052 34.312 79.9972 34.072 78.9412 34.072H75.3172V39.496ZM79.1812 47.2C80.2692 47.2 81.1172 46.944 81.7252 46.432C82.3332 45.92 82.6372 45.208 82.6372 44.296C82.6372 43.368 82.3172 42.64 81.6772 42.112C81.0372 41.568 80.1812 41.296 79.1092 41.296H75.3172V47.2H79.1812ZM99.5159 35.848V49H97.3319V47.056C96.9159 47.728 96.3319 48.256 95.5799 48.64C94.8439 49.008 94.0279 49.192 93.1319 49.192C92.1079 49.192 91.1879 48.984 90.3719 48.568C89.5559 48.136 88.9079 47.496 88.4279 46.648C87.9639 45.8 87.7319 44.768 87.7319 43.552V35.848H89.8919V43.264C89.8919 44.56 90.2199 45.56 90.8759 46.264C91.5319 46.952 92.4279 47.296 93.5639 47.296C94.7319 47.296 95.6519 46.936 96.3239 46.216C96.9959 45.496 97.3319 44.448 97.3319 43.072V35.848H99.5159ZM109.611 35.608C111.211 35.608 112.507 36.096 113.499 37.072C114.491 38.032 114.987 39.424 114.987 41.248V49H112.827V41.56C112.827 40.248 112.499 39.248 111.843 38.56C111.187 37.856 110.291 37.504 109.155 37.504C108.003 37.504 107.083 37.864 106.395 38.584C105.723 39.304 105.387 40.352 105.387 41.728V49H103.203V35.848H105.387V37.72C105.819 37.048 106.403 36.528 107.139 36.16C107.891 35.792 108.715 35.608 109.611 35.608ZM117.739 42.376C117.739 41.032 118.011 39.856 118.555 38.848C119.099 37.824 119.843 37.032 120.787 36.472C121.747 35.912 122.819 35.632 124.003 35.632C125.027 35.632 125.979 35.872 126.859 36.352C127.739 36.816 128.411 37.432 128.875 38.2V31.24H131.083V49H128.875V46.528C128.443 47.312 127.803 47.96 126.955 48.472C126.107 48.968 125.115 49.216 123.979 49.216C122.811 49.216 121.747 48.928 120.787 48.352C119.843 47.776 119.099 46.968 118.555 45.928C118.011 44.888 117.739 43.704 117.739 42.376ZM128.875 42.4C128.875 41.408 128.675 40.544 128.275 39.808C127.875 39.072 127.331 38.512 126.643 38.128C125.971 37.728 125.227 37.528 124.411 37.528C123.595 37.528 122.851 37.72 122.179 38.104C121.507 38.488 120.971 39.048 120.571 39.784C120.171 40.52 119.971 41.384 119.971 42.376C119.971 43.384 120.171 44.264 120.571 45.016C120.971 45.752 121.507 46.32 122.179 46.72C122.851 47.104 123.595 47.296 124.411 47.296C125.227 47.296 125.971 47.104 126.643 46.72C127.331 46.32 127.875 45.752 128.275 45.016C128.675 44.264 128.875 43.392 128.875 42.4ZM136.958 31.24V49H134.774V31.24H136.958ZM152.68 41.92C152.68 42.336 152.656 42.776 152.608 43.24H142.096C142.176 44.536 142.616 45.552 143.416 46.288C144.232 47.008 145.216 47.368 146.368 47.368C147.312 47.368 148.096 47.152 148.72 46.72C149.36 46.272 149.808 45.68 150.064 44.944H152.416C152.064 46.208 151.36 47.24 150.304 48.04C149.248 48.824 147.936 49.216 146.368 49.216C145.12 49.216 144 48.936 143.008 48.376C142.032 47.816 141.264 47.024 140.704 46C140.144 44.96 139.864 43.76 139.864 42.4C139.864 41.04 140.136 39.848 140.68 38.824C141.224 37.8 141.984 37.016 142.96 36.472C143.952 35.912 145.088 35.632 146.368 35.632C147.616 35.632 148.72 35.904 149.68 36.448C150.64 36.992 151.376 37.744 151.888 38.704C152.416 39.648 152.68 40.72 152.68 41.92ZM150.424 41.464C150.424 40.632 150.24 39.92 149.872 39.328C149.504 38.72 149 38.264 148.36 37.96C147.736 37.64 147.04 37.48 146.272 37.48C145.168 37.48 144.224 37.832 143.44 38.536C142.672 39.24 142.232 40.216 142.12 41.464H150.424Z" fill="white"/>
<circle cx="20.6667" cy="40.6667" r="19.1667" stroke="white" stroke-width="3"/>
<circle cx="41.3332" cy="40.6667" r="19.1667" stroke="white" stroke-width="3"/>
</svg>
