<svg width="179" height="81" viewBox="0 0 179 81" fill="none" xmlns="http://www.w3.org/2000/svg">
<path d="M87.3803 40.432C88.2763 40.592 89.0363 41.064 89.6603 41.848C90.2843 42.632 90.5963 43.52 90.5963 44.512C90.5963 45.36 90.3723 46.128 89.9243 46.816C89.4923 47.488 88.8603 48.024 88.0283 48.424C87.1963 48.808 86.2283 49 85.1243 49H78.4523V32.32H84.8123C85.9483 32.32 86.9243 32.512 87.7403 32.896C88.5563 33.28 89.1723 33.8 89.5883 34.456C90.0043 35.096 90.2123 35.816 90.2123 36.616C90.2123 37.576 89.9563 38.376 89.4443 39.016C88.9323 39.656 88.2443 40.128 87.3803 40.432ZM81.1883 39.328H84.5723C85.4683 39.328 86.1643 39.128 86.6603 38.728C87.1723 38.312 87.4283 37.72 87.4283 36.952C87.4283 36.2 87.1723 35.616 86.6603 35.2C86.1643 34.768 85.4683 34.552 84.5723 34.552H81.1883V39.328ZM84.8843 46.768C85.8123 46.768 86.5403 46.544 87.0683 46.096C87.5963 45.648 87.8603 45.024 87.8603 44.224C87.8603 43.408 87.5803 42.76 87.0203 42.28C86.4603 41.8 85.7163 41.56 84.7883 41.56H81.1883V46.768H84.8843ZM105.546 35.776V49H102.81V47.44C102.378 47.984 101.81 48.416 101.106 48.736C100.418 49.04 99.6815 49.192 98.8975 49.192C97.8575 49.192 96.9215 48.976 96.0895 48.544C95.2735 48.112 94.6255 47.472 94.1455 46.624C93.6815 45.776 93.4495 44.752 93.4495 43.552V35.776H96.1615V43.144C96.1615 44.328 96.4575 45.24 97.0495 45.88C97.6415 46.504 98.4495 46.816 99.4735 46.816C100.498 46.816 101.306 46.504 101.898 45.88C102.506 45.24 102.81 44.328 102.81 43.144V35.776H105.546ZM115.827 35.56C116.867 35.56 117.795 35.776 118.611 36.208C119.443 36.64 120.091 37.28 120.555 38.128C121.019 38.976 121.251 40 121.251 41.2V49H118.539V41.608C118.539 40.424 118.243 39.52 117.651 38.896C117.059 38.256 116.251 37.936 115.227 37.936C114.203 37.936 113.387 38.256 112.779 38.896C112.187 39.52 111.891 40.424 111.891 41.608V49H109.155V35.776H111.891V37.288C112.339 36.744 112.907 36.32 113.595 36.016C114.299 35.712 115.043 35.56 115.827 35.56ZM123.829 42.328C123.829 41 124.101 39.824 124.645 38.8C125.205 37.776 125.957 36.984 126.901 36.424C127.861 35.848 128.925 35.56 130.093 35.56C130.957 35.56 131.805 35.752 132.637 36.136C133.485 36.504 134.157 37 134.653 37.624V31.24H137.413V49H134.653V47.008C134.205 47.648 133.581 48.176 132.781 48.592C131.997 49.008 131.093 49.216 130.069 49.216C128.917 49.216 127.861 48.928 126.901 48.352C125.957 47.76 125.205 46.944 124.645 45.904C124.101 44.848 123.829 43.656 123.829 42.328ZM134.653 42.376C134.653 41.464 134.461 40.672 134.077 40C133.709 39.328 133.221 38.816 132.613 38.464C132.005 38.112 131.349 37.936 130.645 37.936C129.941 37.936 129.285 38.112 128.677 38.464C128.069 38.8 127.573 39.304 127.189 39.976C126.821 40.632 126.637 41.416 126.637 42.328C126.637 43.24 126.821 44.04 127.189 44.728C127.573 45.416 128.069 45.944 128.677 46.312C129.301 46.664 129.957 46.84 130.645 46.84C131.349 46.84 132.005 46.664 132.613 46.312C133.221 45.96 133.709 45.448 134.077 44.776C134.461 44.088 134.653 43.288 134.653 42.376ZM143.743 31.24V49H141.007V31.24H143.743ZM159.455 42.064C159.455 42.56 159.423 43.008 159.359 43.408H149.255C149.335 44.464 149.727 45.312 150.431 45.952C151.135 46.592 151.999 46.912 153.023 46.912C154.495 46.912 155.535 46.296 156.143 45.064H159.095C158.695 46.28 157.967 47.28 156.911 48.064C155.871 48.832 154.575 49.216 153.023 49.216C151.759 49.216 150.623 48.936 149.615 48.376C148.623 47.8 147.839 47 147.263 45.976C146.703 44.936 146.423 43.736 146.423 42.376C146.423 41.016 146.695 39.824 147.239 38.8C147.799 37.76 148.575 36.96 149.567 36.4C150.575 35.84 151.727 35.56 153.023 35.56C154.271 35.56 155.383 35.832 156.359 36.376C157.335 36.92 158.095 37.688 158.639 38.68C159.183 39.656 159.455 40.784 159.455 42.064ZM156.599 41.2C156.583 40.192 156.223 39.384 155.519 38.776C154.815 38.168 153.943 37.864 152.903 37.864C151.959 37.864 151.151 38.168 150.479 38.776C149.807 39.368 149.407 40.176 149.279 41.2H156.599Z" fill="#132EBA"/>
<circle cx="20.6667" cy="40.6667" r="19.1667" stroke="#132EBA" stroke-width="3"/>
<circle cx="41.3333" cy="40.6667" r="19.1667" stroke="#132EBA" stroke-width="3"/>
</svg>
