<svg width="556" height="555" viewBox="0 0 556 555" fill="none" xmlns="http://www.w3.org/2000/svg">
<rect x="77.5" y="0.5" width="399" height="554" rx="9.5" stroke="#132EBA"/>
<path d="M276.575 491.949C410.17 491.949 518.47 440.056 518.47 376.043C518.47 312.031 410.17 260.138 276.575 260.138C142.981 260.138 34.6804 312.031 34.6804 376.043C34.6804 440.056 142.981 491.949 276.575 491.949Z" fill="#FAFAFA"/>
<path d="M279.511 402.802C273.844 402.802 268.087 402.58 262.407 402.147C217.617 398.707 177.627 382.128 158.021 358.855L157.23 357.931L175.368 345.06L176.146 345.985C194.182 367.373 235.768 381.741 279.626 381.741C283.723 381.741 287.846 381.613 291.867 381.355C319.144 379.612 342.732 372.089 356.875 360.681L344.111 347.974L389.36 345.634L385.378 389.007L372.435 376.137C354.361 390.938 326.394 400.228 293.501 402.334C288.88 402.65 284.17 402.802 279.511 402.802Z" fill="#E0E0E0"/>
<path d="M226.144 293.859V277.08L249.924 264.49V281.269L226.144 293.859Z" fill="#F0F0F0"/>
<path d="M226.144 277.08L196.429 261.343V278.121L226.144 293.858V277.08Z" fill="#E6E6E6"/>
<path d="M226.144 277.08L250.626 264.116L220.196 248.004L195.714 260.969L226.144 277.08Z" fill="#FAFAFA"/>
<path d="M226.144 277.08V281.269L250.626 268.316V264.116L226.144 277.08Z" fill="#F0F0F0"/>
<path d="M226.144 281.269L249.924 268.691V269.615L226.144 282.193V281.269Z" fill="#E6E6E6"/>
<path d="M195.714 260.968L226.144 277.08V281.269L195.714 265.169V260.968Z" fill="#E6E6E6"/>
<path d="M226.144 281.269L196.429 265.543V266.467L226.144 282.193V281.269Z" fill="#E0E0E0"/>
<path d="M233.968 279.631L242.099 275.325C242.444 275.149 242.725 275.325 242.725 275.664V280.064C242.713 280.264 242.651 280.46 242.542 280.635C242.434 280.81 242.282 280.959 242.099 281.07L233.968 285.376C233.624 285.563 233.343 285.376 233.343 285.036V280.602C233.36 280.407 233.425 280.218 233.533 280.05C233.642 279.882 233.791 279.738 233.968 279.631Z" fill="#EBEBEB"/>
<path d="M234.492 280.122L241.576 276.378C241.806 276.261 241.997 276.378 241.997 276.6V279.9C241.988 280.035 241.945 280.166 241.872 280.284C241.799 280.401 241.698 280.502 241.576 280.578L234.492 284.322C234.262 284.451 234.071 284.322 234.071 284.1V280.801C234.08 280.666 234.123 280.534 234.196 280.417C234.269 280.299 234.37 280.198 234.492 280.122Z" fill="#FAFAFA"/>
<path d="M226.144 274.974V258.195L249.924 245.605V262.384L226.144 274.974Z" fill="#F0F0F0"/>
<path d="M226.144 258.195L196.429 242.458V259.237L226.144 274.974V258.195Z" fill="#E6E6E6"/>
<path d="M226.144 258.195L250.626 245.231L220.196 229.12L195.714 242.084L226.144 258.195Z" fill="#F5F5F5"/>
<path d="M226.144 258.195V262.384L250.626 249.431V245.231L226.144 258.195Z" fill="#F0F0F0"/>
<path d="M226.144 262.384L249.924 249.806V250.719L226.144 263.308V262.384Z" fill="#E6E6E6"/>
<path d="M195.714 242.084L226.144 258.195V262.384L195.714 246.284V242.084Z" fill="#E6E6E6"/>
<path d="M226.144 262.384L196.429 246.659V247.583L226.144 263.308V262.384Z" fill="#E0E0E0"/>
<path d="M233.968 260.711L242.099 256.405C242.444 256.218 242.725 256.405 242.725 256.745V261.144C242.713 261.345 242.651 261.54 242.542 261.715C242.434 261.89 242.282 262.039 242.099 262.15L233.968 266.444C233.624 266.632 233.343 266.444 233.343 266.117V261.717C233.352 261.516 233.414 261.32 233.523 261.145C233.631 260.97 233.784 260.821 233.968 260.711Z" fill="#EBEBEB"/>
<path d="M234.492 261.238L241.576 257.493C241.806 257.365 241.997 257.493 241.997 257.716V261.015C241.989 261.149 241.946 261.279 241.873 261.395C241.8 261.511 241.698 261.609 241.576 261.682L234.492 265.391C234.262 265.508 234.071 265.391 234.071 265.169V261.881C234.084 261.752 234.128 261.627 234.201 261.515C234.274 261.404 234.373 261.309 234.492 261.238Z" fill="#FAFAFA"/>
<path d="M248.647 263.063L226.144 274.974L197.705 259.904L197.016 260.29L226.144 275.652L249.337 263.437L248.647 263.063Z" fill="#E0E0E0"/>
<path opacity="0.5" d="M248.647 263.063L226.144 274.974L197.705 259.904L197.016 260.29L226.144 275.652L249.337 263.437L248.647 263.063Z" fill="#E0E0E0"/>
<path d="M329.432 293.859V277.08L305.652 264.49V281.269L329.432 293.859Z" fill="#F0F0F0"/>
<path d="M329.432 277.08L359.147 261.343V278.121L329.432 293.858V277.08Z" fill="#E6E6E6"/>
<path d="M329.432 277.08L304.95 264.116L335.38 248.004L359.862 260.969L329.432 277.08Z" fill="#FAFAFA"/>
<path d="M329.432 277.08V281.269L304.95 268.316V264.116L329.432 277.08Z" fill="#F0F0F0"/>
<path d="M329.432 281.269L305.652 268.691V269.615L329.432 282.193V281.269Z" fill="#E6E6E6"/>
<path d="M359.862 260.968L329.432 277.08V281.269L359.862 265.169V260.968Z" fill="#E6E6E6"/>
<path d="M329.432 281.269L359.16 265.543L359.147 266.467L329.432 282.193V281.269Z" fill="#E0E0E0"/>
<path d="M321.608 279.631L313.528 275.325C313.183 275.149 312.902 275.325 312.902 275.664V280.064C312.914 280.264 312.976 280.46 313.085 280.635C313.193 280.81 313.345 280.959 313.528 281.07L321.659 285.376C322.003 285.563 322.284 285.376 322.284 285.036V280.602C322.261 280.403 322.189 280.211 322.071 280.043C321.954 279.874 321.795 279.733 321.608 279.631Z" fill="#EBEBEB"/>
<path d="M321.084 280.122L314 276.378C313.771 276.261 313.579 276.378 313.579 276.6V279.9C313.588 280.035 313.631 280.166 313.704 280.284C313.777 280.401 313.878 280.502 314 280.578L321.084 284.322C321.314 284.451 321.506 284.322 321.506 284.1V280.801C321.496 280.666 321.454 280.534 321.381 280.417C321.308 280.299 321.206 280.198 321.084 280.122Z" fill="#FAFAFA"/>
<path d="M329.432 274.974V258.195L305.652 245.605V262.384L329.432 274.974Z" fill="#F0F0F0"/>
<path d="M329.432 258.195L359.147 242.458V259.237L329.432 274.974V258.195Z" fill="#E6E6E6"/>
<path d="M329.432 258.195L304.95 245.231L335.38 229.12L359.862 242.084L329.432 258.195Z" fill="#F5F5F5"/>
<path d="M329.432 258.195V262.384L304.95 249.431V245.231L329.432 258.195Z" fill="#F0F0F0"/>
<path d="M329.432 262.384L305.652 249.806V250.719L329.432 263.308V262.384Z" fill="#E6E6E6"/>
<path d="M359.862 242.084L329.432 258.195V262.384L359.862 246.284V242.084Z" fill="#E6E6E6"/>
<path d="M329.432 262.384L359.16 246.659L359.147 247.583L329.432 263.308V262.384Z" fill="#E0E0E0"/>
<path d="M321.608 260.711L313.528 256.44C313.183 256.253 312.902 256.44 312.902 256.78V261.179C312.914 261.38 312.976 261.575 313.085 261.75C313.193 261.925 313.345 262.074 313.528 262.185L321.659 266.479C322.003 266.667 322.284 266.479 322.284 266.152V261.752C322.276 261.541 322.209 261.334 322.091 261.152C321.973 260.97 321.807 260.819 321.608 260.711Z" fill="#EBEBEB"/>
<path d="M321.084 261.238L314 257.493C313.771 257.365 313.579 257.493 313.579 257.716V261.015C313.587 261.149 313.63 261.279 313.703 261.395C313.776 261.511 313.878 261.609 314 261.682L321.084 265.438C321.314 265.555 321.506 265.438 321.506 265.216V261.881C321.493 261.752 321.448 261.627 321.375 261.515C321.302 261.404 321.203 261.309 321.084 261.238Z" fill="#FAFAFA"/>
<path d="M306.929 263.063L329.432 274.974L357.871 259.904L358.56 260.29L329.432 275.652L306.24 263.437L306.929 263.063Z" fill="#E0E0E0"/>
<path opacity="0.5" d="M306.929 263.063L329.432 274.974L357.871 259.904L358.56 260.29L329.432 275.652L306.24 263.437L306.929 263.063Z" fill="#E0E0E0"/>
<path d="M40.603 361.816L69.029 346.781V290.91L40.603 305.946V361.816Z" fill="#263238"/>
<path d="M40.603 305.945L0 284.463V340.333L40.603 361.815V305.945Z" fill="#37474F"/>
<path d="M0 284.463L40.603 305.946L69.029 290.91L28.426 269.417L0 284.463Z" fill="#455A64"/>
<path d="M37.297 334.284L4.81205 317.096V337.783L4.05896 338.181L36.5439 355.369L37.297 354.971V334.284Z" fill="#263238"/>
<path d="M36.5439 334.682L4.05896 317.482V338.18L36.5439 355.369V334.682Z" fill="#455A64"/>
<path d="M23.7798 331.441L18.2911 328.574C17.5763 328.188 17.0147 328.364 17.0147 328.961C17.0627 329.324 17.2033 329.673 17.425 329.977C17.6467 330.282 17.9433 330.535 18.2911 330.716L23.8181 333.641C24.5329 334.027 25.0945 333.851 25.0945 333.255C25.0521 332.877 24.9103 332.515 24.6813 332.199C24.4522 331.883 24.1429 331.623 23.7798 331.441Z" fill="#263238"/>
<path d="M37.297 309.303L4.81205 292.115V312.802L4.05896 313.2L36.5439 330.388L37.297 329.99V309.303Z" fill="#263238"/>
<path d="M36.5439 309.702L4.05896 292.514V313.2L36.5439 330.388V309.702Z" fill="#455A64"/>
<path d="M23.7797 306.472L18.2528 303.547C17.538 303.161 16.9764 303.336 16.9764 303.933C17.0244 304.297 17.1649 304.645 17.3866 304.95C17.6083 305.255 17.905 305.508 18.2528 305.688L23.7797 308.613C24.4945 308.999 25.0562 308.824 25.0562 308.227C25.0081 307.863 24.8676 307.515 24.6459 307.21C24.4242 306.905 24.1275 306.653 23.7797 306.472Z" fill="#263238"/>
<path d="M514.973 361.816L486.547 346.781V290.91L514.973 305.946V361.816Z" fill="#132EBA"/>
<g opacity="0.2">
<path opacity="0.2" d="M514.973 361.816L486.547 346.781V290.91L514.973 305.946V361.816Z" fill="black"/>
</g>
<path d="M514.973 305.945L555.576 284.463V340.333L514.973 361.815V305.945Z" fill="#132EBA"/>
<path d="M555.576 284.463L514.973 305.946L486.547 290.91L527.15 269.416L555.576 284.463Z" fill="#132EBA"/>
<g opacity="0.4">
<path opacity="0.4" d="M555.576 284.463L514.973 305.946L486.547 290.91L527.15 269.416L555.576 284.463Z" fill="white"/>
</g>
<path d="M518.292 334.284L550.764 317.096V337.783L551.504 338.18L519.032 355.369L518.279 354.971L518.292 334.284Z" fill="#132EBA"/>
<g opacity="0.1">
<path opacity="0.1" d="M518.292 334.284L550.764 317.096V337.783L551.504 338.18L519.032 355.369L518.279 354.971L518.292 334.284Z" fill="black"/>
</g>
<path d="M519.032 334.682L551.517 317.482L551.504 338.18L519.032 355.369V334.682Z" fill="#132EBA"/>
<g opacity="0.4">
<path opacity="0.4" d="M519.032 334.682L551.517 317.482L551.504 338.18L519.032 355.369V334.682Z" fill="white"/>
</g>
<path d="M531.796 331.441L537.285 328.574C538 328.188 538.561 328.364 538.561 328.961C538.513 329.324 538.373 329.673 538.151 329.977C537.929 330.282 537.633 330.535 537.285 330.716L531.758 333.641C531.043 334.027 530.481 333.851 530.481 333.255C530.524 332.877 530.666 332.515 530.895 332.199C531.124 331.883 531.433 331.623 531.796 331.441Z" fill="#132EBA"/>
<g opacity="0.1">
<path opacity="0.1" d="M531.796 331.441L537.285 328.574C538 328.188 538.561 328.364 538.561 328.961C538.513 329.324 538.373 329.673 538.151 329.977C537.929 330.282 537.633 330.535 537.285 330.716L531.758 333.641C531.043 334.027 530.481 333.851 530.481 333.255C530.524 332.877 530.666 332.515 530.895 332.199C531.124 331.883 531.433 331.623 531.796 331.441Z" fill="black"/>
</g>
<path d="M518.292 309.303L550.764 292.115V312.802L551.504 313.2L519.032 330.388L518.279 329.99L518.292 309.303Z" fill="#132EBA"/>
<g opacity="0.1">
<path opacity="0.1" d="M518.292 309.303L550.764 292.115V312.802L551.504 313.2L519.032 330.388L518.279 329.99L518.292 309.303Z" fill="black"/>
</g>
<path d="M519.032 309.702L551.517 292.513L551.504 313.2L519.032 330.388V309.702Z" fill="#132EBA"/>
<g opacity="0.4">
<path opacity="0.4" d="M519.032 309.702L551.517 292.513L551.504 313.2L519.032 330.388V309.702Z" fill="white"/>
</g>
<path d="M531.796 306.472L537.323 303.547C538.038 303.161 538.6 303.336 538.6 303.933C538.552 304.297 538.411 304.645 538.189 304.95C537.968 305.255 537.671 305.508 537.323 305.688L531.796 308.613C531.082 308.999 530.52 308.824 530.52 308.227C530.568 307.863 530.708 307.515 530.93 307.21C531.152 306.905 531.449 306.653 531.796 306.472Z" fill="#132EBA"/>
<g opacity="0.1">
<path opacity="0.1" d="M531.796 306.472L537.323 303.547C538.038 303.161 538.6 303.336 538.6 303.933C538.552 304.297 538.411 304.645 538.189 304.95C537.968 305.255 537.671 305.508 537.323 305.688L531.796 308.613C531.082 308.999 530.52 308.824 530.52 308.227C530.568 307.863 530.708 307.515 530.93 307.21C531.152 306.905 531.449 306.653 531.796 306.472Z" fill="black"/>
</g>
<path d="M347.455 289.681L480.331 360.013L488.411 364.284L488.781 364.46C488.999 364.559 489.225 364.641 489.457 364.705C489.729 364.804 490.011 364.875 490.3 364.916C490.484 364.96 490.672 364.991 490.862 365.01C490.899 365.022 490.939 365.022 490.976 365.01C491.214 365.022 491.453 365.022 491.691 365.01C492.425 365.036 493.154 364.891 493.81 364.588C495.38 363.513 496.459 361.941 496.835 360.177L519.224 253.538C519.275 253.307 519.3 253.072 519.3 252.836C519.319 252.646 519.319 252.454 519.3 252.263C519.255 251.969 519.182 251.68 519.083 251.397C518.967 251.111 518.835 250.829 518.688 250.555L518.356 250.052C518.213 249.872 518.06 249.7 517.896 249.537C517.753 249.395 517.599 249.262 517.437 249.139C517.266 249.015 517.087 248.902 516.901 248.8L375.907 174.232C375.787 174.167 375.664 174.108 375.537 174.057L375.141 173.893C375.08 173.866 375.016 173.847 374.949 173.834C374.78 173.812 374.608 173.812 374.439 173.834C373.511 174.015 372.639 174.383 371.886 174.911L368.759 176.596C368.518 176.684 368.303 176.825 368.133 177.005C367.869 177.252 367.672 177.553 367.559 177.883C367.501 178.027 367.458 178.176 367.431 178.327L345.03 284.954C344.898 285.873 345.056 286.806 345.486 287.644C345.916 288.482 346.599 289.189 347.455 289.681Z" fill="#132EBA"/>
<path d="M347.455 289.681L480.331 360.013L488.411 364.284L488.781 364.46C488.999 364.559 489.225 364.641 489.457 364.705C489.729 364.804 490.011 364.875 490.3 364.916C490.484 364.96 490.672 364.991 490.862 365.01C490.899 365.022 490.939 365.022 490.976 365.01C491.214 365.022 491.453 365.022 491.691 365.01C492.425 365.036 493.154 364.891 493.81 364.588C495.38 363.513 496.459 361.941 496.835 360.177L519.224 253.538C519.275 253.307 519.3 253.072 519.3 252.836C519.319 252.646 519.319 252.454 519.3 252.263C519.255 251.969 519.182 251.68 519.083 251.397C518.967 251.111 518.835 250.829 518.688 250.555L518.356 250.052C518.213 249.872 518.06 249.7 517.896 249.537C517.753 249.395 517.599 249.262 517.437 249.139C517.266 249.015 517.087 248.902 516.901 248.8L375.907 174.232C375.787 174.167 375.664 174.108 375.537 174.057L375.141 173.893C375.08 173.866 375.016 173.847 374.949 173.834C374.78 173.812 374.608 173.812 374.439 173.834C373.511 174.015 372.639 174.383 371.886 174.911L368.759 176.596C368.518 176.684 368.303 176.825 368.133 177.005C367.869 177.252 367.672 177.553 367.559 177.883C367.501 178.027 367.458 178.176 367.431 178.327L345.03 284.954C344.898 285.873 345.056 286.806 345.486 287.644C345.916 288.482 346.599 289.189 347.455 289.681Z" fill="#132EBA"/>
<path d="M488.781 364.46C489.555 364.823 490.406 365.026 491.274 365.057C492.143 365.087 493.008 364.943 493.81 364.635C495.38 363.56 496.458 361.988 496.835 360.224L519.224 253.585C519.4 252.551 519.194 251.492 518.636 250.578L513.926 253.082C514.482 253.997 514.693 255.054 514.526 256.089L492.099 362.74C492.067 363.083 491.944 363.413 491.741 363.703C491.538 363.992 491.262 364.232 490.935 364.402C490.608 364.571 490.241 364.665 489.866 364.675C489.49 364.685 489.118 364.611 488.781 364.46Z" fill="#263238"/>
<path d="M371.937 174.864L368.81 176.549C369.189 176.397 369.604 176.334 370.017 176.367C370.429 176.399 370.826 176.526 371.171 176.736L512.114 251.35C512.868 251.772 513.482 252.375 513.888 253.094L518.636 250.59L518.305 250.087C518.162 249.907 518.009 249.735 517.845 249.572C517.552 249.285 517.217 249.037 516.849 248.835L375.907 174.232C375.662 174.1 375.406 173.987 375.141 173.893C375.08 173.866 375.016 173.847 374.949 173.834C374.78 173.812 374.608 173.812 374.439 173.834C373.533 174.007 372.68 174.359 371.937 174.864Z" fill="#37474F"/>
<path opacity="0.5" d="M371.937 174.864L368.81 176.549C369.189 176.397 369.604 176.334 370.017 176.367C370.429 176.399 370.826 176.526 371.171 176.736L512.114 251.35C512.868 251.772 513.482 252.375 513.888 253.094L518.636 250.59L518.305 250.087C518.162 249.907 518.009 249.735 517.845 249.572C517.552 249.285 517.217 249.037 516.849 248.835L375.907 174.232C375.662 174.1 375.406 173.987 375.141 173.893C375.08 173.866 375.016 173.847 374.949 173.834C374.78 173.812 374.608 173.812 374.439 173.834C373.533 174.007 372.68 174.359 371.937 174.864Z" fill="#455A64"/>
<path d="M492.1 362.728L514.488 256.101C514.632 255.182 514.484 254.245 514.064 253.401C513.643 252.556 512.966 251.841 512.114 251.339L371.171 176.748C370.837 176.525 370.444 176.387 370.032 176.349C369.621 176.311 369.206 176.373 368.829 176.53C368.453 176.687 368.128 176.933 367.889 177.243C367.651 177.552 367.506 177.915 367.47 178.292L345.081 284.931C344.938 285.85 345.085 286.787 345.506 287.632C345.927 288.476 346.603 289.192 347.455 289.693L488.398 364.284C488.734 364.504 489.128 364.639 489.539 364.674C489.95 364.71 490.365 364.646 490.74 364.488C491.115 364.33 491.439 364.084 491.678 363.775C491.916 363.466 492.062 363.105 492.1 362.728Z" fill="#132EBA"/>
<path d="M492.1 362.728L514.488 256.101C514.632 255.182 514.484 254.245 514.064 253.401C513.643 252.556 512.966 251.841 512.114 251.339L371.171 176.748C370.837 176.525 370.444 176.387 370.032 176.349C369.621 176.311 369.206 176.373 368.829 176.53C368.453 176.687 368.128 176.933 367.889 177.243C367.651 177.552 367.506 177.915 367.47 178.292L345.081 284.931C344.938 285.85 345.085 286.787 345.506 287.632C345.927 288.476 346.603 289.192 347.455 289.693L488.398 364.284C488.734 364.504 489.128 364.639 489.539 364.674C489.95 364.71 490.365 364.646 490.74 364.488C491.115 364.33 491.439 364.084 491.678 363.775C491.916 363.466 492.062 363.105 492.1 362.728Z" fill="#37474F"/>
<path opacity="0.5" d="M492.1 362.728L514.488 256.101C514.632 255.182 514.484 254.245 514.064 253.401C513.643 252.556 512.966 251.841 512.114 251.339L371.171 176.748C370.837 176.525 370.444 176.387 370.032 176.349C369.621 176.311 369.206 176.373 368.829 176.53C368.453 176.687 368.128 176.933 367.889 177.243C367.651 177.552 367.506 177.915 367.47 178.292L345.081 284.931C344.938 285.85 345.085 286.787 345.506 287.632C345.927 288.476 346.603 289.192 347.455 289.693L488.398 364.284C488.734 364.504 489.128 364.639 489.539 364.674C489.95 364.71 490.365 364.646 490.74 364.488C491.115 364.33 491.439 364.084 491.678 363.775C491.916 363.466 492.062 363.105 492.1 362.728Z" fill="#263238"/>
<path d="M385.25 285.376L480.842 335.969L486.649 339.046L486.917 339.175C487.075 339.244 487.237 339.302 487.402 339.35C487.601 339.419 487.806 339.47 488.015 339.503C488.145 339.533 488.277 339.553 488.411 339.561C488.425 339.567 488.44 339.569 488.455 339.569C488.471 339.569 488.486 339.567 488.5 339.561C488.67 339.573 488.841 339.573 489.011 339.561C489.542 339.576 490.069 339.467 490.542 339.245C491.669 338.471 492.442 337.341 492.712 336.074L508.821 259.412C508.84 259.245 508.84 259.076 508.821 258.909C508.833 258.769 508.833 258.628 508.821 258.488C508.796 258.273 508.744 258.061 508.668 257.856C508.587 257.652 508.493 257.453 508.387 257.259C508.31 257.142 508.234 257.014 508.144 256.897C508.048 256.765 507.937 256.644 507.812 256.534C507.718 256.422 507.606 256.323 507.481 256.241C507.363 256.152 507.24 256.07 507.11 255.996L405.724 202.325L405.43 202.208L405.137 202.091C405.095 202.084 405.051 202.084 405.009 202.091C404.887 202.075 404.762 202.075 404.639 202.091C403.983 202.228 403.369 202.495 402.839 202.875L400.593 204.045C400.418 204.11 400.261 204.21 400.133 204.338C399.946 204.517 399.807 204.733 399.725 204.97C399.686 205.073 399.656 205.178 399.635 205.285L383.527 282.006C383.441 282.659 383.557 283.322 383.861 283.918C384.166 284.513 384.647 285.019 385.25 285.376Z" fill="#132EBA"/>
<path d="M385.25 285.376L480.842 335.969L486.649 339.046L486.917 339.175C487.075 339.244 487.237 339.302 487.402 339.35C487.601 339.419 487.806 339.47 488.015 339.503C488.145 339.533 488.277 339.553 488.411 339.561C488.425 339.567 488.44 339.569 488.455 339.569C488.471 339.569 488.486 339.567 488.5 339.561C488.67 339.573 488.841 339.573 489.011 339.561C489.542 339.576 490.069 339.467 490.542 339.245C491.669 338.471 492.442 337.341 492.712 336.074L508.821 259.412C508.84 259.245 508.84 259.076 508.821 258.909C508.833 258.769 508.833 258.628 508.821 258.488C508.796 258.273 508.744 258.061 508.668 257.856C508.587 257.652 508.493 257.453 508.387 257.259C508.31 257.142 508.234 257.014 508.144 256.897C508.048 256.765 507.937 256.644 507.812 256.534C507.718 256.422 507.606 256.323 507.481 256.241C507.363 256.152 507.24 256.07 507.11 255.996L405.724 202.325L405.43 202.208L405.137 202.091C405.095 202.084 405.051 202.084 405.009 202.091C404.887 202.075 404.762 202.075 404.639 202.091C403.983 202.228 403.369 202.495 402.839 202.875L400.593 204.045C400.418 204.11 400.261 204.21 400.133 204.338C399.946 204.517 399.807 204.733 399.725 204.97C399.686 205.073 399.656 205.178 399.635 205.285L383.527 282.006C383.441 282.659 383.557 283.322 383.861 283.918C384.166 284.513 384.647 285.019 385.25 285.376Z" fill="#132EBA"/>
<path d="M486.917 339.175C487.476 339.434 488.09 339.579 488.716 339.599C489.342 339.62 489.965 339.515 490.542 339.292C491.669 338.517 492.442 337.388 492.712 336.121L508.821 259.412C508.937 258.668 508.789 257.909 508.4 257.248L504.992 259.049C505.395 259.707 505.547 260.468 505.426 261.214L489.304 337.935C489.282 338.182 489.194 338.42 489.049 338.629C488.903 338.838 488.704 339.011 488.469 339.133C488.233 339.256 487.969 339.323 487.699 339.331C487.428 339.338 487.16 339.284 486.917 339.175Z" fill="#E0E0E0"/>
<path d="M402.878 202.782L400.631 203.952C400.901 203.84 401.199 203.795 401.494 203.819C401.789 203.844 402.072 203.938 402.316 204.092L503.715 257.798C504.263 258.094 504.706 258.528 504.992 259.05L508.412 257.248C508.336 257.131 508.259 257.002 508.17 256.885C508.073 256.754 507.962 256.632 507.838 256.522C507.635 256.312 507.398 256.13 507.136 255.984L405.724 202.325C405.543 202.232 405.356 202.15 405.162 202.08C405.12 202.073 405.077 202.073 405.035 202.08C404.912 202.063 404.787 202.063 404.665 202.08C404.021 202.193 403.411 202.433 402.878 202.782Z" fill="#FAFAFA"/>
<path d="M489.304 337.935L505.413 261.214C505.51 260.555 505.401 259.883 505.098 259.278C504.796 258.674 504.311 258.16 503.702 257.798L402.316 204.127C402.07 203.965 401.782 203.867 401.481 203.842C401.179 203.817 400.876 203.867 400.603 203.987C400.33 204.107 400.098 204.291 399.93 204.522C399.762 204.753 399.664 205.02 399.648 205.297L383.552 282.018C383.453 282.676 383.561 283.347 383.861 283.952C384.162 284.557 384.643 285.071 385.25 285.434L486.649 339.105C486.895 339.264 487.182 339.36 487.481 339.383C487.781 339.406 488.081 339.355 488.352 339.236C488.623 339.117 488.854 338.933 489.022 338.704C489.189 338.475 489.286 338.21 489.304 337.935Z" fill="#F5F5F5"/>
<path d="M414.365 262.817C414.747 262.578 415.062 262.259 415.284 261.887C415.505 261.515 415.628 261.1 415.642 260.676V121.17C415.618 120.732 415.48 120.304 415.24 119.924C415.001 119.544 414.666 119.221 414.263 118.982L318.634 68.3891C318.237 68.1483 317.775 68.0139 317.299 68.001C316.824 67.9882 316.354 68.0974 315.942 68.3164C315.531 68.5354 315.194 68.8555 314.971 69.2405C314.747 69.6254 314.645 70.06 314.677 70.4952V210.001C314.701 210.44 314.839 210.867 315.078 211.247C315.318 211.628 315.653 211.95 316.055 212.189L411.621 262.782C412.042 262.99 412.511 263.103 412.989 263.109C413.466 263.115 413.939 263.015 414.365 262.817Z" fill="#EBEBEB"/>
<path d="M314.689 70.2723C314.817 69.6288 315.379 69.4065 316.068 69.7692L411.647 120.304C412.056 120.536 412.39 120.863 412.617 121.252L415.17 119.883C414.932 119.494 414.595 119.165 414.187 118.923L318.634 68.4002C318.218 68.207 317.759 68.1063 317.293 68.1063C316.828 68.1063 316.368 68.207 315.953 68.4002C315.617 68.6196 315.333 68.8982 315.116 69.2196C314.899 69.5411 314.754 69.899 314.689 70.2723Z" fill="#FAFAFA"/>
<path d="M411.813 262.864C412.203 263.029 412.627 263.114 413.057 263.114C413.487 263.114 413.911 263.029 414.302 262.864C414.683 262.625 414.998 262.306 415.22 261.934C415.442 261.562 415.564 261.147 415.578 260.723V121.17C415.562 120.733 415.426 120.307 415.182 119.93L412.63 121.299C412.882 121.673 413.023 122.1 413.038 122.539V262.045C413.089 262.782 412.489 263.133 411.813 262.864Z" fill="#E0E0E0"/>
<path d="M411.634 262.783L316.081 212.19C315.678 211.951 315.344 211.628 315.104 211.248C314.864 210.868 314.727 210.44 314.702 210.002V70.4961C314.702 69.6887 315.315 69.326 316.081 69.7706L411.634 120.305C412.036 120.544 412.371 120.867 412.611 121.247C412.851 121.627 412.988 122.055 413.012 122.493V262.046C413.012 262.853 412.4 263.181 411.634 262.783Z" fill="#F5F5F5"/>
<g opacity="0.3">
<path opacity="0.3" d="M406.043 183.897C406.043 184.974 404.984 185.29 403.695 184.599L324.007 142.477C323.376 142.148 322.835 141.689 322.428 141.137C322.021 140.585 321.758 139.955 321.659 139.295C321.659 138.218 322.718 137.902 324.007 138.593L403.695 180.715C404.326 181.044 404.867 181.503 405.274 182.055C405.681 182.607 405.944 183.237 406.043 183.897Z" fill="#455A64"/>
<path opacity="0.3" d="M406.043 195.551C406.043 196.615 404.984 196.931 403.695 196.253L324.007 154.131C323.374 153.803 322.832 153.345 322.424 152.793C322.017 152.241 321.755 151.609 321.659 150.948C321.659 149.872 322.718 149.567 324.007 150.246L403.695 192.427C404.32 192.748 404.857 193.197 405.264 193.739C405.672 194.28 405.938 194.9 406.043 195.551Z" fill="#455A64"/>
<path opacity="0.3" d="M406.043 207.193C406.043 208.269 404.984 208.585 403.695 207.895L324.007 165.773C323.376 165.443 322.835 164.985 322.428 164.433C322.021 163.881 321.758 163.251 321.659 162.591C321.659 161.514 322.718 161.198 324.007 161.889L403.695 204.01C404.326 204.34 404.867 204.799 405.274 205.35C405.681 205.902 405.944 206.533 406.043 207.193Z" fill="#455A64"/>
<path opacity="0.3" d="M406.043 218.847C406.043 219.923 404.984 220.227 403.695 219.549L324.007 177.427C323.374 177.099 322.832 176.641 322.424 176.089C322.017 175.537 321.755 174.905 321.659 174.244C321.659 173.179 322.718 172.864 324.007 173.542L403.695 215.723C404.32 216.044 404.857 216.493 405.264 217.035C405.672 217.576 405.938 218.196 406.043 218.847Z" fill="#455A64"/>
<path opacity="0.3" d="M406.043 148.948C406.043 150.024 404.984 150.34 403.695 149.65L324.007 107.528C323.376 107.198 322.835 106.74 322.428 106.188C322.021 105.636 321.758 105.005 321.659 104.345C321.659 103.269 322.718 102.953 324.007 103.643L403.695 145.765C404.326 146.095 404.867 146.553 405.274 147.105C405.681 147.657 405.944 148.288 406.043 148.948Z" fill="#455A64"/>
<path opacity="0.3" d="M406.043 160.601C406.043 161.678 404.984 161.982 403.695 161.303L324.007 119.181C323.374 118.854 322.832 118.396 322.424 117.844C322.017 117.291 321.755 116.66 321.659 115.999C321.659 114.934 322.718 114.618 324.007 115.308L403.695 157.43C404.325 157.758 404.865 158.215 405.273 158.765C405.68 159.315 405.944 159.943 406.043 160.601Z" fill="#455A64"/>
<path opacity="0.3" d="M406.043 137.317C406.043 138.394 404.984 138.71 403.695 138.019L324.007 95.8972C323.376 95.5676 322.835 95.109 322.428 94.5571C322.021 94.0052 321.758 93.3748 321.659 92.7147C321.659 91.6382 322.718 91.3223 324.007 92.0126L403.695 134.135C404.326 134.464 404.867 134.923 405.274 135.475C405.681 136.027 405.944 136.657 406.043 137.317Z" fill="#455A64"/>
<path opacity="0.3" d="M406.043 172.255C406.043 173.32 404.984 173.636 403.695 172.945L324.007 130.823C323.375 130.494 322.834 130.036 322.427 129.484C322.019 128.932 321.757 128.301 321.659 127.641C321.659 126.564 322.718 126.248 324.007 126.939L403.695 169.061C404.328 169.392 404.869 169.852 405.277 170.406C405.684 170.96 405.946 171.593 406.043 172.255Z" fill="#455A64"/>
<path opacity="0.3" d="M406.043 230.5C406.043 231.565 404.984 231.881 403.695 231.191L324.007 189.069C323.376 188.739 322.835 188.28 322.428 187.729C322.021 187.177 321.758 186.546 321.659 185.886C321.659 184.81 322.718 184.494 324.007 185.184L403.695 227.306C404.328 227.637 404.869 228.097 405.277 228.651C405.684 229.205 405.946 229.838 406.043 230.5Z" fill="#455A64"/>
<path opacity="0.3" d="M406.043 242.143C406.043 243.219 404.984 243.535 403.695 242.845L324.007 200.723C323.374 200.395 322.832 199.937 322.424 199.385C322.017 198.832 321.755 198.201 321.659 197.54C321.659 196.475 322.718 196.159 324.007 196.85L403.695 238.972C404.325 239.299 404.865 239.756 405.273 240.306C405.68 240.856 405.944 241.484 406.043 242.143Z" fill="#455A64"/>
</g>
<path d="M341.762 188.226C341.726 187.879 341.786 187.53 341.938 187.21C342.09 186.891 342.328 186.612 342.63 186.401C342.698 186.352 342.771 186.309 342.847 186.272L347.417 183.838C347.774 183.689 348.168 183.63 348.559 183.667C348.949 183.705 349.322 183.836 349.638 184.049L440.992 232.337L443.659 222.497C443.85 221.835 444.306 221.262 444.936 220.894L449.684 218.355C450.126 218.125 450.629 218.01 451.137 218.023C451.645 218.035 452.14 218.174 452.569 218.425L491.436 238.983C492.357 239.532 493.124 240.273 493.674 241.146C494.224 242.018 494.542 242.997 494.601 244.003V362.822C494.638 363.168 494.579 363.516 494.43 363.835C494.28 364.154 494.045 364.434 493.746 364.647L488.857 367.256C488.504 367.384 488.122 367.428 487.745 367.385C487.368 367.342 487.009 367.214 486.7 367.011L344.864 291.928C343.943 291.379 343.176 290.638 342.626 289.766C342.076 288.894 341.758 287.915 341.699 286.909L341.762 188.226Z" fill="#132EBA"/>
<path d="M445 220.847C445.44 220.633 445.936 220.531 446.434 220.552C446.932 220.573 447.415 220.715 447.833 220.964L486.739 241.522C487.668 242.063 488.435 242.807 488.972 243.687L493.708 241.16C493.18 240.274 492.41 239.528 491.474 238.995L452.658 218.437C452.227 218.186 451.73 218.047 451.22 218.035C450.71 218.022 450.205 218.137 449.761 218.367L445 220.847Z" fill="#455A64"/>
<path d="M342.886 186.272C343.233 186.172 343.601 186.145 343.961 186.194C344.321 186.242 344.665 186.365 344.966 186.553L436.371 234.97C436.742 235.196 437.167 235.336 437.61 235.379C438.053 235.421 438.501 235.365 438.915 235.214C439.329 235.064 439.697 234.823 439.987 234.514C440.278 234.204 440.482 233.835 440.583 233.437L441.004 232.384L349.663 184.084C349.241 183.843 348.757 183.71 348.259 183.698C347.974 183.696 347.693 183.76 347.442 183.885L342.886 186.272Z" fill="#455A64"/>
<path d="M341.762 188.238L341.699 286.909C341.758 287.915 342.076 288.894 342.626 289.766C343.176 290.638 343.943 291.379 344.864 291.928L487.122 367.186C487.405 367.336 487.727 367.415 488.055 367.415C488.383 367.415 488.705 367.335 488.988 367.185C489.272 367.034 489.507 366.817 489.67 366.557C489.833 366.296 489.918 366.001 489.917 365.7V246.542C489.882 245.537 489.566 244.558 488.998 243.699C488.46 242.819 487.693 242.075 486.764 241.534L447.884 220.929C447.465 220.683 446.982 220.543 446.485 220.522C445.987 220.502 445.493 220.602 445.051 220.812H444.961C444.329 221.179 443.873 221.752 443.685 222.415L441.017 232.244L440.596 233.309C440.495 233.706 440.291 234.076 440 234.385C439.71 234.695 439.342 234.935 438.928 235.086C438.514 235.236 438.066 235.293 437.623 235.25C437.18 235.208 436.755 235.067 436.384 234.841L344.928 186.565C344.63 186.375 344.289 186.251 343.93 186.202C343.571 186.153 343.205 186.181 342.86 186.284L342.733 186.354H342.656C342.341 186.57 342.093 186.857 341.936 187.187C341.78 187.518 341.72 187.88 341.762 188.238Z" fill="#37474F"/>
<path d="M408.06 283.071C408.421 282.918 408.833 282.901 409.208 283.023C409.583 283.146 409.89 283.398 410.064 283.726L414.302 291.917V277.349C414.282 277.158 414.307 276.965 414.373 276.783C414.44 276.601 414.547 276.434 414.688 276.292C414.83 276.15 415.001 276.037 415.193 275.959C415.385 275.882 415.592 275.842 415.801 275.842C416.011 275.842 416.218 275.882 416.41 275.959C416.601 276.037 416.773 276.15 416.914 276.292C417.055 276.434 417.163 276.601 417.229 276.783C417.296 276.965 417.32 277.158 417.301 277.349V294.9L421.871 290.875C422.009 290.746 422.173 290.643 422.355 290.573C422.537 290.502 422.733 290.466 422.93 290.466C423.128 290.466 423.323 290.502 423.505 290.573C423.687 290.643 423.852 290.746 423.99 290.875C424.269 291.134 424.425 291.483 424.425 291.846C424.425 292.21 424.269 292.559 423.99 292.818L416.893 299.077C416.725 299.225 416.523 299.334 416.301 299.397C416.08 299.46 415.845 299.475 415.616 299.44C415.383 299.401 415.163 299.31 414.976 299.175C414.79 299.041 414.641 298.867 414.544 298.668L407.434 284.896C407.261 284.577 407.23 284.209 407.346 283.868C407.463 283.528 407.719 283.242 408.06 283.071Z" fill="#132EBA"/>
<path d="M426.007 286.195C425.809 286.197 425.614 286.162 425.431 286.094C425.248 286.026 425.082 285.925 424.942 285.798C424.802 285.671 424.691 285.519 424.615 285.353C424.539 285.186 424.5 285.007 424.5 284.826V276.542L407.103 267.334V274.038C407.103 274.401 406.945 274.749 406.665 275.006C406.385 275.263 406.005 275.407 405.609 275.407C405.213 275.407 404.833 275.263 404.553 275.006C404.273 274.749 404.116 274.401 404.116 274.038V264.958C404.117 264.721 404.186 264.488 404.316 264.283C404.446 264.077 404.632 263.907 404.856 263.788C405.084 263.664 405.344 263.599 405.609 263.601C405.874 263.601 406.134 263.665 406.362 263.788L426.785 274.576C427.011 274.694 427.199 274.864 427.331 275.07C427.463 275.275 427.535 275.508 427.538 275.746V284.814C427.54 284.998 427.501 285.18 427.425 285.35C427.348 285.52 427.235 285.674 427.092 285.803C426.949 285.931 426.779 286.033 426.593 286.1C426.406 286.167 426.207 286.2 426.007 286.195Z" fill="#132EBA"/>
<path d="M488.756 367.292C488.802 367.302 488.85 367.302 488.896 367.292L493.785 364.694C494.082 364.474 494.316 364.19 494.465 363.868C494.614 363.545 494.674 363.194 494.64 362.845V244.015C494.603 243.005 494.282 242.022 493.708 241.16L488.973 243.687C489.547 244.549 489.868 245.533 489.904 246.542V365.724C489.906 366.06 489.797 366.39 489.592 366.669C489.387 366.948 489.096 367.165 488.756 367.292Z" fill="#263238"/>
<path d="M208.121 289.682L75.2452 360.014L67.1782 364.284L66.808 364.46C66.5903 364.559 66.364 364.641 66.1315 364.706C65.8601 364.804 65.5775 364.875 65.289 364.916C65.1045 364.96 64.9168 364.991 64.7274 365.01C64.6904 365.022 64.6496 365.022 64.6125 365.01C64.3745 365.022 64.1358 365.022 63.8977 365.01C63.164 365.036 62.4349 364.891 61.7789 364.589C60.2085 363.513 59.1303 361.941 58.7538 360.177L36.3525 253.585C36.3013 253.354 36.2757 253.119 36.2759 252.883C36.257 252.693 36.257 252.501 36.2759 252.31C36.3211 252.016 36.3937 251.727 36.4929 251.444C36.6093 251.158 36.7414 250.876 36.8886 250.602L37.2205 250.099C37.3628 249.919 37.5162 249.747 37.68 249.584C37.8236 249.442 37.9771 249.309 38.1395 249.186C38.31 249.062 38.4891 248.949 38.6756 248.847L179.618 174.256C179.738 174.19 179.861 174.132 179.988 174.08L180.384 173.916C180.445 173.89 180.509 173.87 180.576 173.858C180.745 173.835 180.917 173.835 181.086 173.858C182.014 174.038 182.886 174.406 183.639 174.934L186.766 176.619C187.008 176.708 187.222 176.848 187.392 177.029C187.656 177.276 187.853 177.577 187.966 177.906C188.025 178.05 188.067 178.199 188.094 178.351L210.495 284.978C210.627 285.888 210.474 286.813 210.054 287.646C209.634 288.479 208.963 289.185 208.121 289.682Z" fill="#132EBA"/>
<path d="M208.121 289.682L75.2452 360.014L67.1782 364.284L66.808 364.46C66.5903 364.559 66.364 364.641 66.1315 364.706C65.8601 364.804 65.5775 364.875 65.289 364.916C65.1045 364.96 64.9168 364.991 64.7274 365.01C64.6904 365.022 64.6496 365.022 64.6125 365.01C64.3745 365.022 64.1358 365.022 63.8977 365.01C63.164 365.036 62.4349 364.891 61.7789 364.589C60.2085 363.513 59.1303 361.941 58.7538 360.177L36.3525 253.585C36.3013 253.354 36.2757 253.119 36.2759 252.883C36.257 252.693 36.257 252.501 36.2759 252.31C36.3211 252.016 36.3937 251.727 36.4929 251.444C36.6093 251.158 36.7414 250.876 36.8886 250.602L37.2205 250.099C37.3628 249.919 37.5162 249.747 37.68 249.584C37.8236 249.442 37.9771 249.309 38.1395 249.186C38.31 249.062 38.4891 248.949 38.6756 248.847L179.618 174.256C179.738 174.19 179.861 174.132 179.988 174.08L180.384 173.916C180.445 173.89 180.509 173.87 180.576 173.858C180.745 173.835 180.917 173.835 181.086 173.858C182.014 174.038 182.886 174.406 183.639 174.934L186.766 176.619C187.008 176.708 187.222 176.848 187.392 177.029C187.656 177.276 187.853 177.577 187.966 177.906C188.025 178.05 188.067 178.199 188.094 178.351L210.495 284.978C210.627 285.888 210.474 286.813 210.054 287.646C209.634 288.479 208.963 289.185 208.121 289.682Z" fill="#132EBA"/>
<path opacity="0.2" d="M66.7954 364.46C66.0215 364.823 65.1706 365.026 64.3019 365.057C63.4333 365.087 62.568 364.943 61.7662 364.635C60.1958 363.56 59.1176 361.988 58.7411 360.224L36.3526 253.585C36.1759 252.551 36.3827 251.492 36.9398 250.578L41.6498 253.082C41.0938 253.997 40.8829 255.054 41.0499 256.089L63.4766 362.74C63.5089 363.083 63.6318 363.413 63.8347 363.703C64.0377 363.992 64.3145 364.232 64.6414 364.402C64.9682 364.571 65.3352 364.665 65.7105 364.675C66.0859 364.685 66.4582 364.611 66.7954 364.46Z" fill="black"/>
<path opacity="0.1" d="M183.639 174.864L186.766 176.549C186.387 176.397 185.972 176.334 185.56 176.367C185.147 176.399 184.75 176.526 184.405 176.736L43.4623 251.351C42.6956 251.764 42.0683 252.363 41.6498 253.082L36.9015 250.578L37.2334 250.075C37.3756 249.896 37.5291 249.724 37.6929 249.56C37.9862 249.274 38.3212 249.026 38.6885 248.823L179.631 174.232C179.876 174.101 180.132 173.987 180.397 173.893C180.458 173.866 180.522 173.847 180.589 173.834C180.758 173.812 180.93 173.812 181.099 173.834C182.018 174.003 182.885 174.354 183.639 174.864Z" fill="white"/>
<path d="M63.4767 362.728L41.0882 256.101C40.9471 255.184 41.0958 254.249 41.5166 253.407C41.9374 252.565 42.6126 251.851 43.4623 251.35L184.405 176.759C184.739 176.536 185.133 176.399 185.544 176.36C185.956 176.322 186.371 176.385 186.747 176.542C187.124 176.699 187.448 176.945 187.687 177.254C187.926 177.564 188.071 177.926 188.107 178.304L210.495 284.943C210.639 285.862 210.491 286.799 210.07 287.643C209.649 288.487 208.973 289.203 208.121 289.705L67.1783 364.284C66.8419 364.504 66.4483 364.638 66.0371 364.674C65.6259 364.71 65.2118 364.646 64.8363 364.488C64.4609 364.33 64.1375 364.084 63.8988 363.775C63.6601 363.466 63.5145 363.105 63.4767 362.728Z" fill="#132EBA"/>
<path opacity="0.15" d="M63.4767 362.728L41.0882 256.101C40.9471 255.184 41.0958 254.249 41.5166 253.407C41.9374 252.565 42.6126 251.851 43.4623 251.35L184.405 176.759C184.739 176.536 185.133 176.399 185.544 176.36C185.956 176.322 186.371 176.385 186.747 176.542C187.124 176.699 187.448 176.945 187.687 177.254C187.926 177.564 188.071 177.926 188.107 178.304L210.495 284.943C210.639 285.862 210.491 286.799 210.07 287.643C209.649 288.487 208.973 289.203 208.121 289.705L67.1783 364.284C66.8419 364.504 66.4483 364.638 66.0371 364.674C65.6259 364.71 65.2118 364.646 64.8363 364.488C64.4609 364.33 64.1375 364.084 63.8988 363.775C63.6601 363.466 63.5145 363.105 63.4767 362.728Z" fill="black"/>
<path d="M170.326 285.376L74.7346 335.969L68.9268 339.105L68.6588 339.233C68.5017 339.302 68.3396 339.361 68.1738 339.409C67.9752 339.477 67.7701 339.528 67.5611 339.561C67.4315 339.592 67.299 339.611 67.1654 339.619C67.1512 339.625 67.1361 339.628 67.1207 339.628C67.1054 339.628 67.0902 339.625 67.076 339.619C66.9061 339.631 66.7354 339.631 66.5655 339.619C66.034 339.634 65.5071 339.526 65.0338 339.304C63.9076 338.529 63.1345 337.399 62.8638 336.133L46.7554 259.412C46.7365 259.245 46.7365 259.076 46.7554 258.909C46.7428 258.769 46.7428 258.628 46.7554 258.488C46.7806 258.273 46.8319 258.061 46.9085 257.856C46.989 257.652 47.0827 257.453 47.1893 257.259C47.2659 257.142 47.3425 257.014 47.4319 256.897C47.5284 256.765 47.6396 256.644 47.7637 256.534C47.8581 256.422 47.9699 256.323 48.0956 256.241C48.2128 256.152 48.3365 256.07 48.4658 255.996L149.865 202.337L150.146 202.208L150.439 202.091C150.481 202.084 150.525 202.084 150.567 202.091C150.69 202.075 150.814 202.075 150.937 202.091C151.593 202.228 152.207 202.495 152.737 202.875L154.983 204.045C155.158 204.11 155.315 204.21 155.443 204.338C155.63 204.517 155.769 204.733 155.851 204.97C155.89 205.073 155.92 205.178 155.941 205.285L172.049 282.006C172.135 282.659 172.02 283.322 171.715 283.917C171.41 284.513 170.929 285.019 170.326 285.376Z" fill="#132EBA"/>
<path d="M170.326 285.376L74.7346 335.969L68.9268 339.105L68.6588 339.233C68.5017 339.302 68.3396 339.361 68.1738 339.409C67.9752 339.477 67.7701 339.528 67.5611 339.561C67.4315 339.592 67.299 339.611 67.1654 339.619C67.1512 339.625 67.1361 339.628 67.1207 339.628C67.1054 339.628 67.0902 339.625 67.076 339.619C66.9061 339.631 66.7354 339.631 66.5655 339.619C66.034 339.634 65.5071 339.526 65.0338 339.304C63.9076 338.529 63.1345 337.399 62.8638 336.133L46.7554 259.412C46.7365 259.245 46.7365 259.076 46.7554 258.909C46.7428 258.769 46.7428 258.628 46.7554 258.488C46.7806 258.273 46.8319 258.061 46.9085 257.856C46.989 257.652 47.0827 257.453 47.1893 257.259C47.2659 257.142 47.3425 257.014 47.4319 256.897C47.5284 256.765 47.6396 256.644 47.7637 256.534C47.8581 256.422 47.9699 256.323 48.0956 256.241C48.2128 256.152 48.3365 256.07 48.4658 255.996L149.865 202.337L150.146 202.208L150.439 202.091C150.481 202.084 150.525 202.084 150.567 202.091C150.69 202.075 150.814 202.075 150.937 202.091C151.593 202.228 152.207 202.495 152.737 202.875L154.983 204.045C155.158 204.11 155.315 204.21 155.443 204.338C155.63 204.517 155.769 204.733 155.851 204.97C155.89 205.073 155.92 205.178 155.941 205.285L172.049 282.006C172.135 282.659 172.02 283.322 171.715 283.917C171.41 284.513 170.929 285.019 170.326 285.376Z" fill="#132EBA"/>
<path d="M68.6588 339.175C68.1001 339.434 67.4864 339.579 66.8604 339.6C66.2343 339.62 65.611 339.515 65.0338 339.292C63.9076 338.517 63.1345 337.388 62.8638 336.121L46.7554 259.412C46.6393 258.668 46.7869 257.909 47.1766 257.248L50.5846 259.05C50.1816 259.707 50.0289 260.468 50.1507 261.214L66.2719 337.935C66.294 338.182 66.3817 338.42 66.5273 338.629C66.6729 338.838 66.8721 339.011 67.1074 339.134C67.3427 339.256 67.6071 339.324 67.8775 339.331C68.1479 339.338 68.4161 339.284 68.6588 339.175Z" fill="#E0E0E0"/>
<path d="M152.699 202.782L154.945 203.952C154.675 203.84 154.378 203.795 154.083 203.819C153.788 203.844 153.504 203.938 153.26 204.092L51.8612 257.797C51.3132 258.094 50.87 258.528 50.5848 259.049L47.1768 257.201C47.2533 257.084 47.3299 256.955 47.4193 256.838C47.5158 256.707 47.627 256.585 47.7511 256.475C47.9544 256.265 48.1911 256.083 48.4532 255.937L149.852 202.278C150.033 202.185 150.221 202.103 150.414 202.033C150.456 202.026 150.499 202.026 150.542 202.033C150.664 202.016 150.789 202.016 150.912 202.033C151.56 202.16 152.17 202.416 152.699 202.782Z" fill="#FAFAFA"/>
<path d="M66.2719 337.935L50.1634 261.214C50.0645 260.556 50.1716 259.885 50.4721 259.28C50.7726 258.676 51.2543 258.161 51.8611 257.798L153.247 204.127C153.493 203.965 153.781 203.866 154.083 203.842C154.384 203.817 154.687 203.867 154.96 203.987C155.233 204.107 155.465 204.291 155.634 204.522C155.802 204.753 155.899 205.02 155.915 205.297L172.011 282.018C172.11 282.676 172.003 283.347 171.702 283.952C171.402 284.556 170.92 285.071 170.313 285.434L68.9269 339.105C68.6815 339.264 68.3942 339.36 68.0948 339.383C67.7954 339.406 67.4946 339.355 67.2238 339.236C66.953 339.116 66.7219 338.933 66.5545 338.704C66.3872 338.475 66.2896 338.21 66.2719 337.935Z" fill="#F5F5F5"/>
<path d="M141.211 262.817C140.829 262.578 140.514 262.259 140.293 261.887C140.071 261.515 139.948 261.1 139.934 260.676V121.17C139.959 120.732 140.096 120.304 140.336 119.924C140.576 119.544 140.91 119.221 141.313 118.982L236.942 68.3891C237.339 68.1483 237.801 68.0139 238.277 68.001C238.753 67.9882 239.223 68.0974 239.634 68.3164C240.046 68.5354 240.382 68.8555 240.606 69.2405C240.829 69.6254 240.931 70.06 240.899 70.4952V210.001C240.875 210.44 240.737 210.867 240.498 211.247C240.258 211.628 239.923 211.95 239.521 212.189L143.955 262.782C143.535 262.99 143.066 263.103 142.588 263.109C142.11 263.115 141.637 263.015 141.211 262.817Z" fill="#EBEBEB"/>
<path d="M240.887 70.2726C240.759 69.629 240.197 69.4067 239.521 69.7695L143.93 120.304C143.521 120.536 143.186 120.863 142.96 121.252L140.407 119.883C140.644 119.495 140.982 119.165 141.39 118.923L236.943 68.4005C237.358 68.2073 237.817 68.1066 238.283 68.1066C238.749 68.1066 239.208 68.2073 239.623 68.4005C239.959 68.6199 240.244 68.8984 240.461 69.2199C240.678 69.5413 240.822 69.8992 240.887 70.2726Z" fill="#FAFAFA"/>
<path d="M143.764 262.864C143.365 263.038 142.929 263.128 142.487 263.128C142.046 263.128 141.61 263.038 141.211 262.864C140.829 262.625 140.514 262.306 140.293 261.934C140.071 261.562 139.948 261.147 139.934 260.723V121.17C139.951 120.733 140.087 120.307 140.33 119.93L142.883 121.299C142.63 121.673 142.49 122.1 142.474 122.539V262.045C142.551 262.782 143.087 263.133 143.764 262.864Z" fill="#E0E0E0"/>
<path d="M143.942 262.783L239.495 212.19C239.898 211.951 240.233 211.628 240.472 211.248C240.712 210.868 240.85 210.44 240.874 210.002V70.4961C240.874 69.6887 240.261 69.326 239.495 69.7706L143.942 120.305C143.54 120.544 143.205 120.867 142.965 121.247C142.726 121.627 142.588 122.055 142.564 122.493V262.046C142.564 262.853 143.176 263.181 143.942 262.783Z" fill="#F5F5F5"/>
<g opacity="0.3">
<path opacity="0.3" d="M149.533 183.897C149.533 184.974 150.592 185.29 151.882 184.599L231.569 142.477C232.2 142.148 232.741 141.689 233.148 141.137C233.555 140.585 233.819 139.955 233.917 139.295C233.917 138.218 232.858 137.902 231.569 138.593L151.882 180.715C151.25 181.044 150.71 181.503 150.302 182.055C149.895 182.607 149.632 183.237 149.533 183.897Z" fill="#455A64"/>
<path opacity="0.3" d="M149.533 195.551C149.533 196.615 150.592 196.931 151.882 196.253L231.569 154.131C232.202 153.803 232.744 153.345 233.152 152.793C233.559 152.241 233.821 151.609 233.917 150.948C233.917 149.872 232.858 149.567 231.569 150.246L151.882 192.427C151.256 192.748 150.719 193.197 150.312 193.739C149.905 194.28 149.638 194.9 149.533 195.551Z" fill="#455A64"/>
<path opacity="0.3" d="M149.533 207.193C149.533 208.269 150.592 208.585 151.882 207.895L231.569 165.773C232.2 165.443 232.741 164.985 233.148 164.433C233.555 163.881 233.819 163.251 233.917 162.591C233.917 161.514 232.858 161.198 231.569 161.889L151.882 204.01C151.25 204.34 150.71 204.799 150.302 205.35C149.895 205.902 149.632 206.533 149.533 207.193Z" fill="#455A64"/>
<path opacity="0.3" d="M149.533 218.847C149.533 219.923 150.592 220.227 151.882 219.549L231.569 177.427C232.202 177.099 232.744 176.641 233.152 176.089C233.559 175.537 233.821 174.905 233.917 174.244C233.917 173.179 232.858 172.864 231.569 173.542L151.882 215.664C151.248 215.992 150.706 216.45 150.299 217.002C149.891 217.554 149.629 218.186 149.533 218.847Z" fill="#455A64"/>
<path opacity="0.3" d="M149.533 148.948C149.533 150.024 150.592 150.34 151.882 149.65L231.569 107.528C232.2 107.198 232.741 106.74 233.148 106.188C233.555 105.636 233.819 105.005 233.917 104.345C233.917 103.269 232.858 102.953 231.569 103.643L151.882 145.765C151.25 146.095 150.71 146.553 150.302 147.105C149.895 147.657 149.632 148.288 149.533 148.948Z" fill="#455A64"/>
<path opacity="0.3" d="M149.533 160.601C149.533 161.678 150.592 161.982 151.882 161.303L231.569 119.181C232.202 118.854 232.744 118.396 233.152 117.844C233.559 117.291 233.821 116.66 233.917 115.999C233.917 114.934 232.858 114.618 231.569 115.308L151.882 157.43C151.251 157.758 150.711 158.215 150.304 158.765C149.896 159.315 149.633 159.943 149.533 160.601Z" fill="#455A64"/>
<path opacity="0.3" d="M149.533 137.317C149.533 138.394 150.592 138.71 151.882 138.019L231.569 95.8972C232.2 95.5676 232.741 95.109 233.148 94.5571C233.555 94.0052 233.819 93.3748 233.917 92.7147C233.917 91.6382 232.858 91.3223 231.569 92.0126L151.882 134.135C151.25 134.464 150.71 134.923 150.302 135.475C149.895 136.027 149.632 136.657 149.533 137.317Z" fill="#455A64"/>
<path opacity="0.3" d="M149.533 172.255C149.533 173.32 150.592 173.636 151.882 172.945L231.569 130.823C232.201 130.494 232.742 130.036 233.149 129.484C233.557 128.932 233.82 128.301 233.917 127.641C233.917 126.564 232.858 126.248 231.569 126.939L151.882 169.061C151.248 169.392 150.707 169.852 150.3 170.406C149.892 170.96 149.63 171.593 149.533 172.255Z" fill="#455A64"/>
<path opacity="0.3" d="M149.533 230.5C149.533 231.565 150.592 231.881 151.882 231.191L231.569 189.069C232.2 188.739 232.741 188.28 233.148 187.729C233.555 187.177 233.819 186.546 233.917 185.886C233.917 184.81 232.858 184.494 231.569 185.184L151.882 227.306C151.248 227.637 150.707 228.097 150.3 228.651C149.892 229.205 149.63 229.838 149.533 230.5Z" fill="#455A64"/>
<path opacity="0.3" d="M149.533 242.143C149.533 243.219 150.592 243.535 151.882 242.845L231.569 200.723C232.202 200.395 232.744 199.937 233.152 199.385C233.559 198.832 233.821 198.201 233.917 197.54C233.917 196.475 232.858 196.159 231.569 196.85L151.882 238.972C151.251 239.299 150.711 239.756 150.304 240.306C149.896 240.856 149.633 241.484 149.533 242.143Z" fill="#455A64"/>
</g>
<path d="M213.814 188.226C213.85 187.879 213.79 187.53 213.638 187.21C213.486 186.891 213.248 186.612 212.946 186.401C212.878 186.352 212.805 186.309 212.729 186.272L208.159 183.838C207.802 183.689 207.408 183.63 207.017 183.667C206.627 183.705 206.255 183.836 205.938 184.049L114.585 232.337L111.853 222.485C111.662 221.823 111.207 221.251 110.577 220.882L105.828 218.343C105.386 218.113 104.884 217.999 104.375 218.011C103.867 218.023 103.372 218.163 102.944 218.414L64.102 238.995C63.1806 239.544 62.4137 240.285 61.8636 241.157C61.3136 242.029 60.9959 243.008 60.9365 244.014V362.822C60.8995 363.168 60.9586 363.516 61.1081 363.835C61.2576 364.154 61.4928 364.434 61.7917 364.647L66.6804 367.256C67.0337 367.384 67.4163 367.428 67.7931 367.385C68.1699 367.342 68.529 367.214 68.8375 367.011L210.712 291.928C211.633 291.379 212.4 290.638 212.95 289.766C213.5 288.894 213.818 287.915 213.878 286.909L213.814 188.226Z" fill="#132EBA"/>
<path opacity="0.4" d="M110.577 220.847C110.136 220.633 109.641 220.531 109.142 220.552C108.644 220.572 108.161 220.715 107.743 220.964L68.8376 241.522C67.9088 242.063 67.1412 242.807 66.6038 243.687L61.8683 241.16C62.3966 240.273 63.1661 239.528 64.102 238.995L102.918 218.437C103.349 218.186 103.846 218.047 104.356 218.035C104.866 218.022 105.371 218.137 105.816 218.367L110.577 220.847Z" fill="white"/>
<path opacity="0.4" d="M212.691 186.272C212.343 186.172 211.975 186.145 211.615 186.194C211.255 186.243 210.911 186.365 210.61 186.553L119.218 234.97C118.846 235.196 118.42 235.336 117.976 235.378C117.533 235.421 117.084 235.364 116.669 235.214C116.255 235.063 115.885 234.823 115.594 234.514C115.302 234.205 115.096 233.835 114.993 233.437L114.572 232.384L205.926 184.084C206.342 183.842 206.823 183.709 207.317 183.698C207.602 183.696 207.883 183.761 208.134 183.885L212.691 186.272Z" fill="white"/>
<path d="M213.814 188.238L213.877 286.909C213.818 287.915 213.5 288.894 212.95 289.766C212.4 290.638 211.633 291.379 210.712 291.928L68.4546 367.186C68.1707 367.336 67.8487 367.415 67.521 367.415C67.1932 367.415 66.8714 367.335 66.5879 367.184C66.3044 367.034 66.0692 366.817 65.9062 366.556C65.7431 366.296 65.6579 366 65.6592 365.7V246.542C65.6941 245.537 66.0106 244.558 66.5782 243.698C67.116 242.819 67.8835 242.075 68.812 241.534L107.692 220.929C108.111 220.683 108.594 220.543 109.092 220.522C109.589 220.502 110.084 220.602 110.525 220.812H110.615C111.247 221.179 111.703 221.752 111.891 222.415L114.559 232.244L114.98 233.308C115.081 233.706 115.285 234.076 115.576 234.385C115.866 234.695 116.235 234.935 116.649 235.086C117.063 235.236 117.51 235.293 117.953 235.25C118.396 235.208 118.821 235.067 119.192 234.841L210.635 186.483C210.933 186.293 211.275 186.169 211.633 186.12C211.992 186.071 212.358 186.099 212.703 186.202L212.831 186.272H212.907C213.239 186.494 213.498 186.794 213.658 187.14C213.818 187.486 213.871 187.866 213.814 188.238Z" fill="#132EBA"/>
<path d="M132.033 279.982C132.234 280.065 132.451 280.108 132.671 280.111C132.955 280.11 133.232 280.036 133.471 279.897C133.71 279.758 133.902 279.561 134.025 279.327L138.275 271.078V285.703C138.31 286.046 138.482 286.365 138.76 286.597C139.037 286.829 139.399 286.957 139.775 286.957C140.15 286.957 140.512 286.829 140.79 286.597C141.067 286.365 141.24 286.046 141.275 285.703V268.153L145.831 272.178C146.117 272.43 146.501 272.569 146.899 272.562C147.296 272.556 147.674 272.405 147.95 272.142C148.226 271.88 148.377 271.528 148.37 271.164C148.363 270.8 148.198 270.453 147.912 270.2L140.815 263.94C140.643 263.789 140.435 263.678 140.207 263.615C139.979 263.552 139.739 263.54 139.505 263.578C139.27 263.617 139.05 263.706 138.86 263.838C138.671 263.97 138.519 264.142 138.415 264.338L131.318 278.121C131.228 278.286 131.175 278.466 131.162 278.649C131.15 278.833 131.178 279.017 131.244 279.191C131.311 279.365 131.415 279.524 131.551 279.66C131.686 279.796 131.85 279.905 132.033 279.982Z" fill="#263238"/>
<path d="M149.967 275.676C149.771 275.676 149.577 275.711 149.395 275.78C149.214 275.849 149.05 275.95 148.911 276.077C148.772 276.204 148.662 276.355 148.587 276.521C148.512 276.687 148.474 276.865 148.474 277.045V285.282L131.076 294.49V287.798C131.041 287.455 130.868 287.136 130.591 286.904C130.314 286.672 129.952 286.544 129.576 286.544C129.201 286.544 128.839 286.672 128.561 286.904C128.284 287.136 128.111 287.455 128.076 287.798V296.865C128.08 297.104 128.151 297.337 128.283 297.542C128.415 297.747 128.604 297.917 128.829 298.036C129.056 298.158 129.313 298.223 129.576 298.223C129.839 298.223 130.097 298.158 130.323 298.036L150.746 287.236C150.97 287.117 151.156 286.947 151.286 286.742C151.416 286.536 151.485 286.303 151.486 286.066V277.092C151.493 276.906 151.459 276.721 151.385 276.548C151.311 276.375 151.2 276.217 151.058 276.085C150.916 275.952 150.746 275.848 150.558 275.777C150.371 275.707 150.17 275.673 149.967 275.676Z" fill="#263238"/>
<path opacity="0.2" d="M66.8207 367.291C66.7746 367.302 66.7264 367.302 66.6803 367.291L61.7916 364.694C61.4942 364.474 61.2606 364.19 61.1114 363.868C60.9622 363.545 60.9021 363.194 60.9364 362.845V244.014C60.973 243.005 61.294 242.022 61.8682 241.16L66.6038 243.687C66.0295 244.549 65.7085 245.532 65.672 246.542V365.724C65.6707 366.06 65.7794 366.389 65.9842 366.669C66.1889 366.948 66.4803 367.165 66.8207 367.291Z" fill="black"/>
<path d="M346.868 338.228V347.144L384.331 384.375V375.459L346.868 338.228Z" fill="#132EBA"/>
<path opacity="0.15" d="M346.868 338.228V347.144L384.331 384.375V375.459L346.868 338.228Z" fill="black"/>
<path d="M387.956 345.001V336.086L384.331 375.458V384.374L387.956 345.001Z" fill="#132EBA"/>
<path opacity="0.2" d="M387.956 345.001V336.086L384.331 375.458V384.374L387.956 345.001Z" fill="black"/>
<path d="M261.769 398.345C218.09 394.987 178.01 378.887 158.276 355.486L159.03 347.295L174.347 344.054C194.438 367.865 243.567 382.935 291.19 379.881C319.361 378.068 343.69 370.135 357.909 358.106L372.499 363.676L371.758 371.866C353.888 386.937 325.807 396.438 292.62 398.544C282.346 399.202 272.032 399.136 261.769 398.345Z" fill="#132EBA"/>
<g opacity="0.15">
<path opacity="0.15" d="M261.769 398.345C218.09 394.987 178.01 378.887 158.276 355.486L159.03 347.295L174.347 344.054C194.438 367.865 243.567 382.935 291.19 379.881C319.361 378.068 343.69 370.135 357.909 358.106L372.499 363.676L371.758 371.866C353.888 386.937 325.807 396.438 292.62 398.544C282.346 399.202 272.032 399.136 261.769 398.345Z" fill="black"/>
</g>
<path d="M387.956 336.086L346.868 338.227L358.701 349.986C344.468 362.014 320.152 369.947 291.969 371.761C244.358 374.815 195.216 359.744 175.138 335.934L159.081 347.353C178.814 370.755 218.894 386.808 262.573 390.166C272.844 390.962 283.167 391.033 293.45 390.377C326.637 388.247 354.718 378.77 372.588 363.699L384.42 375.458L387.956 336.086Z" fill="#132EBA"/>
</svg>
